<?xml version="1.0" encoding="UTF-8" standalone="no"?>
<!DOCTYPE svg PUBLIC "-//W3C//DTD SVG 1.1//EN" "http://www.w3.org/Graphics/SVG/1.1/DTD/svg11.dtd">
<svg width="100%" height="100%" viewBox="0 0 44 35" version="1.1" xmlns="http://www.w3.org/2000/svg" xmlns:xlink="http://www.w3.org/1999/xlink" xml:space="preserve" xmlns:serif="http://www.serif.com/" style="fill-rule:evenodd;clip-rule:evenodd;stroke-linejoin:round;stroke-miterlimit:2;">
    <g transform="matrix(1,0,0,1,-11.8481,-462.915)">
        <g id="Дополнительно--для-стола" serif:id="Дополнительно (для стола" transform="matrix(0.0846524,0,0,0.0846524,12.0981,458.763)">
            <path d="M0,165.293L113.293,165.293L113.293,52L0,52L0,165.293ZM30.004,82.004L83.293,82.004L83.293,135.293L30.004,135.293L30.004,82.004Z" style="fill:none;fill-rule:nonzero;stroke:rgb(207,209,209);stroke-width:5.91px;"/>
            <path d="M149.297,52L149.297,165.293L512,165.293L512,52L149.297,52ZM481.996,135.293L179.301,135.293L179.301,82.004L481.996,82.004L481.996,135.293Z" style="fill:none;fill-rule:nonzero;stroke:rgb(207,209,209);stroke-width:5.91px;"/>
            <path d="M0,312.301L113.293,312.301L113.293,199.008L0,199.008L0,312.301ZM30.004,229.008L83.293,229.008L83.293,282.297L30.004,282.297L30.004,229.008Z" style="fill:none;fill-rule:nonzero;stroke:rgb(207,209,209);stroke-width:5.91px;"/>
            <path d="M149.297,312.301L512,312.301L512,199.008L149.297,199.008L149.297,312.301ZM179.301,229.008L481.996,229.008L481.996,282.297L179.301,282.297L179.301,229.008Z" style="fill:none;fill-rule:nonzero;stroke:rgb(207,209,209);stroke-width:5.91px;"/>
            <path d="M0,459.309L113.293,459.309L113.293,346.012L0,346.012L0,459.309ZM30.004,376.016L83.293,376.016L83.293,429.305L30.004,429.305L30.004,376.016Z" style="fill:none;fill-rule:nonzero;stroke:rgb(207,209,209);stroke-width:5.91px;"/>
            <path d="M149.297,459.309L512,459.309L512,346.012L149.297,346.012L149.297,459.309ZM179.301,376.016L481.996,376.016L481.996,429.305L179.301,429.305L179.301,376.016Z" style="fill:none;fill-rule:nonzero;stroke:rgb(207,209,209);stroke-width:5.91px;"/>
        </g>
    </g>
</svg>
