<?xml version="1.0" encoding="UTF-8" standalone="no"?>
<!DOCTYPE svg PUBLIC "-//W3C//DTD SVG 1.1//EN" "http://www.w3.org/Graphics/SVG/1.1/DTD/svg11.dtd">
<svg width="100%" height="100%" viewBox="0 0 41 57" version="1.1" xmlns="http://www.w3.org/2000/svg" xmlns:xlink="http://www.w3.org/1999/xlink" xml:space="preserve" xmlns:serif="http://www.serif.com/" style="fill-rule:evenodd;clip-rule:evenodd;stroke-linejoin:round;stroke-miterlimit:2;">
    <g transform="matrix(1,0,0,1,-73.1263,-83.1258)">
        <g id="Количество-кнопок" serif:id="Количество кнопок" transform="matrix(0.109487,0,0,0.109487,65.2553,83.5758)">
            <path d="M406,0L406,15C406,39.813 385.813,60 361,60L271,60C229.645,60 196,93.645 196,135L196,152L181,152C123.103,152 76,199.103 76,257L76,377C76,451.439 136.561,512 211,512C285.439,512 346,451.439 346,377L346,257C346,199.103 298.897,152 241,152L226,152L226,135C226,110.187 246.187,90 271,90L361,90C402.355,90 436,56.355 436,15L436,0L406,0ZM181,182L196,182L196,272L106,272L106,257C106,215.645 139.645,182 181,182ZM211,482C169.198,482 133.027,457.443 116.145,422L136,422L136,392L107.076,392C106.372,387.099 106,382.093 106,377L106,362L136,362L136,332L106,332L106,302L316,302L316,332L286,332L286,362L316,362L316,377C316,382.093 315.628,387.099 314.924,392L286,392L286,422L305.855,422C288.973,457.443 252.802,482 211,482ZM241,182C282.355,182 316,215.645 316,257L316,272L226,272L226,182L241,182Z" style="fill:none;fill-rule:nonzero;stroke:rgb(207,209,209);stroke-width:8.22px;"/>
        </g>
    </g>
</svg>
