<?xml version="1.0" encoding="UTF-8" standalone="no"?>
<!DOCTYPE svg PUBLIC "-//W3C//DTD SVG 1.1//EN" "http://www.w3.org/Graphics/SVG/1.1/DTD/svg11.dtd">
<svg width="100%" height="100%" viewBox="0 0 25 25" version="1.1" xmlns="http://www.w3.org/2000/svg" xmlns:xlink="http://www.w3.org/1999/xlink" xml:space="preserve" xmlns:serif="http://www.serif.com/" style="fill-rule:evenodd;clip-rule:evenodd;stroke-linejoin:round;stroke-miterlimit:2;">
    <g transform="matrix(1,0,0,1,-2600.54,-3778.88)">
        <g transform="matrix(0.655301,0,0,0.655301,2345.56,2930.08)">
            <g transform="matrix(0.0714589,0,0,0.0714589,389.487,1295.66)">
                <path d="M128,32L128,0L16,0C7.163,0 0,7.163 0,16L0,128L32,128L32,54.56L180.64,203.2L203.2,180.64L54.56,32L128,32Z" style="fill:none;fill-rule:nonzero;stroke:rgb(207,209,209);stroke-width:10.68px;"/>
                <path d="M496,0L384,0L384,32L457.44,32L308.8,180.64L331.36,203.2L480,54.56L480,128L512,128L512,16C512,7.163 504.837,0 496,0Z" style="fill:none;fill-rule:nonzero;stroke:rgb(207,209,209);stroke-width:10.68px;"/>
                <path d="M480,457.44L331.36,308.8L308.8,331.36L457.44,480L384,480L384,512L496,512C504.837,512 512,504.837 512,496L512,384L480,384L480,457.44Z" style="fill:none;fill-rule:nonzero;stroke:rgb(207,209,209);stroke-width:10.68px;"/>
                <path d="M180.64,308.64L32,457.44L32,384L0,384L0,496C0,504.837 7.163,512 16,512L128,512L128,480L54.56,480L203.2,331.36L180.64,308.64Z" style="fill:none;fill-rule:nonzero;stroke:rgb(207,209,209);stroke-width:10.68px;"/>
            </g>
        </g>
    </g>
</svg>
