<?xml version="1.0" encoding="UTF-8" standalone="no"?>
<!DOCTYPE svg PUBLIC "-//W3C//DTD SVG 1.1//EN" "http://www.w3.org/Graphics/SVG/1.1/DTD/svg11.dtd">
<svg width="100%" height="100%" viewBox="0 0 47 38" version="1.1" xmlns="http://www.w3.org/2000/svg" xmlns:xlink="http://www.w3.org/1999/xlink" xml:space="preserve" xmlns:serif="http://www.serif.com/" style="fill-rule:evenodd;clip-rule:evenodd;stroke-linejoin:round;stroke-miterlimit:2;">
    <g transform="matrix(1,0,0,1,-11.9671,-296.582)">
        <g transform="matrix(0.0917617,0,0,0.0917617,11.4837,291.69)">
            <g id="Layer_32">
                <path d="M499.576,232.84L457.888,212L499.576,191.2C502.287,189.849 504.007,187.069 504.007,184.04C504.007,181.011 502.287,178.231 499.576,176.88L259.576,56.88C257.326,55.756 254.674,55.756 252.424,56.88L12.424,176.88C9.713,178.231 7.993,181.011 7.993,184.04C7.993,187.069 9.713,189.849 12.424,191.2L54.112,212L12.424,232.84C9.716,234.193 7.999,236.973 8,240L8,272C7.983,275.042 9.703,277.84 12.424,279.2L54.112,300L12.424,320.8C9.713,322.151 7.993,324.931 7.993,327.96C7.993,330.989 9.713,333.769 12.424,335.12L252.424,455.12C254.674,456.244 257.326,456.244 259.576,455.12L499.576,335.12C502.287,333.769 504.007,330.989 504.007,327.96C504.007,324.931 502.287,322.151 499.576,320.8L457.888,300L499.576,279.2C502.297,277.84 504.017,275.042 504,272L504,240C504.001,236.973 502.284,234.193 499.576,232.84ZM256,72.944L478.112,184L256,295.056L33.888,184L256,72.944ZM252.424,311.2C254.674,312.324 257.326,312.324 259.576,311.2L440,220.944L478.112,240L256,351.056L33.888,240L72,220.944L252.424,311.2ZM24,252.944L248,364.944L248,379.056L24,267.056L24,252.944ZM478.112,328L256,439.056L33.888,328L72,308.944L252.424,399.2C254.674,400.324 257.326,400.324 259.576,399.2L440,308.944L478.112,328ZM264,379.056L264,364.944L488,252.944L488,267.056L264,379.056Z" style="fill:none;fill-rule:nonzero;stroke:rgb(207,209,209);stroke-width:5.45px;"/>
            </g>
        </g>
    </g>
</svg>
