<?xml version="1.0" encoding="UTF-8" standalone="no"?>
<!DOCTYPE svg PUBLIC "-//W3C//DTD SVG 1.1//EN" "http://www.w3.org/Graphics/SVG/1.1/DTD/svg11.dtd">
<svg width="100%" height="100%" viewBox="0 0 23 27" version="1.1" xmlns="http://www.w3.org/2000/svg" xmlns:xlink="http://www.w3.org/1999/xlink" xml:space="preserve" xmlns:serif="http://www.serif.com/" style="fill-rule:evenodd;clip-rule:evenodd;stroke-linejoin:round;stroke-miterlimit:2;">
    <g transform="matrix(1,0,0,1,-2619.29,-1574.19)">
        <g transform="matrix(0.655301,0,0,0.655301,2363.28,458.186)">
            <g transform="matrix(0.134213,0,0,0.134213,388.231,1703.42)">
                <path d="M208.764,114.734C208.195,114.734 207.467,114.734 206.913,114.777C206.305,114.824 205.001,115.626 205.001,117.321L205.001,175.162C205.001,176.359 206.632,176.984 207.427,176.997C207.703,177.002 208.049,177.002 208.288,177.002C216.635,177.002 223.961,168.788 223.961,144.146C223.959,125.862 219.23,114.734 208.764,114.734Z" style="fill:none;fill-rule:nonzero;stroke:rgb(207,209,209);stroke-width:5.69px;"/>
                <path d="M143.712,114.734C143.143,114.734 142.441,114.734 141.886,114.777C141.278,114.824 140,115.626 140,117.321L140,175.162C140,176.359 141.606,176.984 142.4,176.997C142.676,177.002 143.009,177.002 143.248,177.002C151.595,177.002 158.914,168.788 158.914,144.146C158.914,125.862 154.179,114.734 143.712,114.734Z" style="fill:none;fill-rule:nonzero;stroke:rgb(207,209,209);stroke-width:5.69px;"/>
                <path d="M271,25C271,11.193 259.807,0 246,0L46,0C32.193,0 21,11.193 21,25L21,267C21,280.807 32.193,292 46,292L246,292C259.807,292 271,280.807 271,267L271,25ZM52.729,21.107C61.66,21.107 68.899,28.347 68.899,37.277C68.899,46.208 61.659,53.448 52.729,53.448C43.798,53.448 36.558,46.208 36.558,37.277C36.558,28.347 43.798,21.107 52.729,21.107ZM52.729,278.188C43.798,278.188 36.558,270.948 36.558,262.017C36.558,253.086 43.798,245.847 52.729,245.847C61.66,245.847 68.899,253.087 68.899,262.017C68.9,270.948 61.66,278.188 52.729,278.188ZM107,188.515C107,189.615 106.642,191 105.542,191L92.187,191C91.087,191 90,189.615 90,188.515L90,155.154C90,154.054 89.287,153 88.187,153L74.036,153C72.936,153 72,154.054 72,155.154L72,188.515C72,189.615 71.136,191 70.036,191L56.681,191C55.581,191 54,189.615 54,188.515L54,103.22C54,102.12 55.581,101 56.681,101L70.036,101C71.136,101 72,102.12 72,103.22L72,134.991C72,136.091 72.936,137 74.036,137L88.187,137C89.287,137 90,136.091 90,134.991L90,103.22C90,102.12 91.087,101 92.187,101L105.542,101C106.642,101 107,102.12 107,103.22L107,188.515ZM164.512,182.566C158.55,188.395 149.674,191.177 137.221,191.177C133.377,191.177 129.578,190.912 126.438,190.616C125.14,190.494 123,189.323 123,187.727L123,107.315C123,104.124 125.837,101.93 127.517,101.687C131.294,101.14 135.787,100.823 140.555,100.823C151.816,100.823 159.622,103.473 165.319,108.772C173.003,115.662 176.972,127.453 176.972,144.808C176.971,162.826 172.329,175.677 164.512,182.566ZM191.464,190.616C190.166,190.494 188,189.323 188,187.727L188,107.315C188,104.124 190.862,101.93 192.543,101.687C196.32,101.14 200.826,100.823 205.594,100.823C216.855,100.823 224.667,103.473 230.364,108.772C238.048,115.662 242.02,127.453 242.02,144.808C242.02,162.826 237.382,175.677 229.565,182.566C223.603,188.395 214.735,191.177 202.282,191.177C198.438,191.177 194.603,190.912 191.464,190.616ZM239.938,278.188C231.007,278.188 223.767,270.948 223.767,262.017C223.767,253.086 231.007,245.847 239.938,245.847C248.869,245.847 256.109,253.087 256.109,262.017C256.108,270.948 248.868,278.188 239.938,278.188ZM239.938,53.448C231.007,53.448 223.767,46.208 223.767,37.277C223.767,28.346 231.007,21.107 239.938,21.107C248.869,21.107 256.109,28.347 256.109,37.277C256.108,46.208 248.868,53.448 239.938,53.448Z" style="fill:none;fill-rule:nonzero;stroke:rgb(207,209,209);stroke-width:5.69px;"/>
            </g>
        </g>
    </g>
</svg>
