<?xml version="1.0" encoding="UTF-8" standalone="no"?>
<!DOCTYPE svg PUBLIC "-//W3C//DTD SVG 1.1//EN" "http://www.w3.org/Graphics/SVG/1.1/DTD/svg11.dtd">
<svg width="100%" height="100%" viewBox="0 0 50 39" version="1.1" xmlns="http://www.w3.org/2000/svg" xmlns:xlink="http://www.w3.org/1999/xlink" xml:space="preserve" xmlns:serif="http://www.serif.com/" style="fill-rule:evenodd;clip-rule:evenodd;stroke-linejoin:round;stroke-miterlimit:2;">
    <g transform="matrix(1,0,0,1,-11.7671,-227.954)">
        <g id="Тип-наушников" serif:id="Тип наушников" transform="matrix(0.0956111,0,0,0.0840926,12.2171,228.403)">
            <path d="M464,226.009C464,200.081 466.259,153.12 433.612,99.68C351.857,-34.091 159.019,-32.316 78.386,99.683C47.42,150.375 48,194.017 48,226.009C20.427,233.132 0,258.217 0,287.984L0,367.984C0,403.274 28.71,431.984 64,431.984L96,431.984C96,440.821 103.163,447.984 112,447.984C120.837,447.984 128,440.821 128,431.984L128,223.984C128,215.147 120.837,207.984 112,207.984C103.163,207.984 96,215.147 96,223.984L80,223.984C80,200.115 78.836,169.874 97.633,131.151C119.245,141.134 146.176,137.336 164.218,118.771C214.494,67.045 296.47,67.442 346.507,117.477C358.474,129.471 371.771,136.403 389.332,136.533C398.125,136.591 406.602,134.745 414.369,131.154C433.217,169.985 432,200.969 432,223.983L416,223.983C416,215.146 408.837,207.983 400,207.983C391.163,207.983 384,215.146 384,223.983L384,431.983C384,440.82 391.163,447.983 400,447.983C408.837,447.983 416,440.82 416,431.983L441.203,431.983C444.449,431.885 451.566,432.577 462.945,430.203C491.237,424.299 512,398.126 512,367.983L512,287.983C512,258.216 491.573,233.131 464,226.009ZM96,399.983L64,399.983C46.355,399.983 32,385.628 32,367.983L32,287.983C32,270.338 46.355,255.983 64,255.983L96,255.983L96,399.983ZM370.798,96.539C308.237,32.093 204.465,31.45 141.271,96.468C134.119,103.827 123.735,106.194 114.441,103.377C181.792,12.007 316.533,7.632 390.045,93.96C394.603,99.309 397.472,103.285 397.556,103.386C388.373,106.17 377.981,103.936 370.798,96.539ZM480,367.983C480,379.801 473.555,390.136 464,395.678L462.035,397.765L416,399.983L416,255.983L448,255.983C465.645,255.983 480,270.338 480,287.983L480,367.983Z" style="fill:none;fill-rule:nonzero;stroke:rgb(207,209,209);stroke-width:10px;"/>
        </g>
    </g>
</svg>
