<?xml version="1.0" encoding="UTF-8" standalone="no"?>
<!DOCTYPE svg PUBLIC "-//W3C//DTD SVG 1.1//EN" "http://www.w3.org/Graphics/SVG/1.1/DTD/svg11.dtd">
<svg width="100%" height="100%" viewBox="0 0 22 22" version="1.1" xmlns="http://www.w3.org/2000/svg" xmlns:xlink="http://www.w3.org/1999/xlink" xml:space="preserve" xmlns:serif="http://www.serif.com/" style="fill-rule:evenodd;clip-rule:evenodd;stroke-linejoin:round;stroke-miterlimit:2;">
    <g transform="matrix(1,0,0,1,-3042.95,-3900.28)">
        <g transform="matrix(0.655301,0,0,0.655301,2781.49,2935.02)">
            <g transform="matrix(-0.0658683,0,0,0.0658683,430.852,1473.38)">
                <path d="M467.336,1.3C460.957,-1.342 453.614,0.12 448.733,5.003L255.999,197.737L255.999,17.069C255.997,7.643 248.354,0.004 238.929,0.006C234.405,0.007 230.066,1.804 226.867,5.003L5,226.87C-1.663,233.534 -1.663,244.338 5,251.002L226.867,472.869C230.067,476.07 234.407,477.869 238.933,477.869C241.177,477.876 243.399,477.435 245.47,476.572C251.846,473.928 256.002,467.705 256,460.802L256,280.135L448.734,472.869C451.934,476.07 456.274,477.869 460.8,477.869C463.043,477.876 465.266,477.435 467.336,476.572C473.712,473.928 477.868,467.705 477.866,460.802L477.866,17.069C477.868,10.167 473.712,3.943 467.336,1.3ZM221.866,419.604L41.198,238.936L221.866,58.268L221.866,419.604ZM443.733,419.604L263.065,238.936L443.733,58.268L443.733,419.604Z" style="fill:none;fill-rule:nonzero;stroke:rgb(207,209,209);stroke-width:11.58px;"/>
            </g>
        </g>
    </g>
</svg>
