<?xml version="1.0" encoding="UTF-8" standalone="no"?>
<!DOCTYPE svg PUBLIC "-//W3C//DTD SVG 1.1//EN" "http://www.w3.org/Graphics/SVG/1.1/DTD/svg11.dtd">
<svg width="100%" height="100%" viewBox="0 0 25 24" version="1.1" xmlns="http://www.w3.org/2000/svg" xmlns:xlink="http://www.w3.org/1999/xlink" xml:space="preserve" xmlns:serif="http://www.serif.com/" style="fill-rule:evenodd;clip-rule:evenodd;stroke-linejoin:round;stroke-miterlimit:2;">
    <g transform="matrix(1,0,0,1,-3465.13,-3899.59)">
        <g transform="matrix(0.655301,0,0,0.655301,3206.42,2935.88)">
            <g transform="matrix(0.0712219,0,0,0.0712219,395.167,1470.12)">
                <path d="M416.909,190.79C417.48,185.28 417.776,179.689 417.776,174.03C417.776,85.002 345.346,12.572 256.319,12.572C167.291,12.572 94.861,85.002 94.861,174.03C94.861,179.598 95.144,185.101 95.697,190.525C39.354,215.753 0,272.35 0,337.971C0,426.998 72.43,499.428 161.458,499.428C196.739,499.428 229.407,488.044 256,468.769C282.593,488.044 315.261,499.428 350.543,499.428C439.57,499.428 512,426.998 512,337.971C512,272.584 472.93,216.151 416.909,190.79ZM124.86,174.03C124.86,101.544 183.832,42.572 256.318,42.572C328.803,42.572 387.775,101.544 387.775,174.03C387.775,176.304 387.717,178.565 387.602,180.812C375.698,178.005 363.292,176.514 350.543,176.514C315.261,176.514 282.593,187.898 256,207.173C229.407,187.897 196.739,176.514 161.458,176.514C148.934,176.514 136.739,177.948 125.027,180.659C124.917,178.462 124.86,176.252 124.86,174.03ZM292.915,337.971C292.915,373.376 278.841,405.551 256,429.211C233.159,405.551 219.085,373.376 219.085,337.971C219.085,335.697 219.143,333.435 219.258,331.189C231.163,333.996 243.569,335.488 256.318,335.488C268.842,335.488 281.037,334.054 292.748,331.343C292.858,333.539 292.915,335.749 292.915,337.971ZM256.318,305.488C245.252,305.488 234.504,304.107 224.23,301.52C230.255,280.672 241.314,261.942 255.999,246.731C270.718,261.977 281.795,280.759 287.812,301.665C277.718,304.156 267.171,305.488 256.318,305.488ZM196.102,290.863C164.302,274.407 140.037,245.347 129.963,210.337C140.058,207.845 150.605,206.514 161.458,206.514C187.741,206.514 212.244,214.273 232.806,227.612C216.119,245.403 203.407,266.962 196.102,290.863ZM279.194,227.612C299.757,214.272 324.26,206.514 350.543,206.514C361.608,206.514 372.356,207.895 382.63,210.482C372.471,245.63 348.01,274.768 315.984,291.15C308.693,267.135 295.948,245.474 279.194,227.612ZM30,337.971C30,286.953 59.214,242.631 101.792,220.851C115.372,265.583 147.876,302.163 189.951,321.21C189.38,326.72 189.084,332.311 189.084,337.97C189.084,380.611 205.708,419.438 232.805,448.329C212.243,461.669 187.74,469.427 161.457,469.427C88.972,469.428 30,410.457 30,337.971ZM350.543,469.428C324.26,469.428 299.757,461.669 279.194,448.33C306.291,419.439 322.915,380.612 322.915,337.971C322.915,332.403 322.632,326.9 322.079,321.476C364.356,302.546 397.062,265.953 410.758,221.138C453.036,243.017 482,287.173 482,337.971C482,410.457 423.028,469.428 350.543,469.428Z" style="fill:none;fill-rule:nonzero;stroke:rgb(207,209,209);stroke-width:10.71px;"/>
            </g>
        </g>
    </g>
</svg>
