<?xml version="1.0" encoding="UTF-8" standalone="no"?>
<!DOCTYPE svg PUBLIC "-//W3C//DTD SVG 1.1//EN" "http://www.w3.org/Graphics/SVG/1.1/DTD/svg11.dtd">
<svg width="100%" height="100%" viewBox="0 0 47 36" version="1.1" xmlns="http://www.w3.org/2000/svg" xmlns:xlink="http://www.w3.org/1999/xlink" xml:space="preserve" xmlns:serif="http://www.serif.com/" style="fill-rule:evenodd;clip-rule:evenodd;stroke-linejoin:round;stroke-miterlimit:2;">
    <g transform="matrix(1,0,0,1,-11.9671,-369.739)">
        <g id="Поясничная-подушка" serif:id="Поясничная подушка" transform="matrix(0.0890203,0,0,0.0890203,36.9707,394.982)">
            <g transform="matrix(1,0,0,1,-278.067,-339.766)">
                <path d="M437.688,93.504L74.313,93.504L0,59L0,453.004L74.313,418.504L437.688,418.504L512,453.004L512,59L437.688,93.504ZM95,123.504L417,123.504L417,388.504L95,388.504L95,123.504ZM30,106.004L65,122.254L65,389.75L30,406L30,106.004ZM482,406L447,389.75L447,122.254L482,106.004L482,406Z" style="fill:none;fill-rule:nonzero;stroke:rgb(207,209,209);stroke-width:5.62px;"/>
            </g>
            <g transform="matrix(1,0,0,1,-278.067,-339.766)">
                <rect x="147" y="176.004" width="30.668" height="30.664" style="fill:none;fill-rule:nonzero;stroke:rgb(207,209,209);stroke-width:5.62px;"/>
            </g>
            <g transform="matrix(1,0,0,1,-278.067,-339.766)">
                <rect x="334.332" y="176.004" width="30.668" height="30.664" style="fill:none;fill-rule:nonzero;stroke:rgb(207,209,209);stroke-width:5.62px;"/>
            </g>
            <g transform="matrix(1,0,0,1,-278.067,-339.766)">
                <rect x="147" y="305.336" width="30.668" height="30.668" style="fill:none;fill-rule:nonzero;stroke:rgb(207,209,209);stroke-width:5.62px;"/>
            </g>
            <g transform="matrix(1,0,0,1,-278.067,-339.766)">
                <rect x="334.332" y="305.336" width="30.668" height="30.668" style="fill:none;fill-rule:nonzero;stroke:rgb(207,209,209);stroke-width:5.62px;"/>
            </g>
        </g>
    </g>
</svg>
