<?xml version="1.0" encoding="UTF-8" standalone="no"?>
<!DOCTYPE svg PUBLIC "-//W3C//DTD SVG 1.1//EN" "http://www.w3.org/Graphics/SVG/1.1/DTD/svg11.dtd">
<svg width="100%" height="100%" viewBox="0 0 16 34" version="1.1" xmlns="http://www.w3.org/2000/svg" xmlns:xlink="http://www.w3.org/1999/xlink" xml:space="preserve" xmlns:serif="http://www.serif.com/" style="fill-rule:evenodd;clip-rule:evenodd;stroke-linejoin:round;stroke-miterlimit:2;">
    <g transform="matrix(1,0,0,1,-3471.39,-3752.51)">
        <g transform="matrix(0.655301,0,0,0.655301,3206.42,2911.77)">
            <g id="USB" transform="matrix(0.116315,0,0,0.116315,390.854,1283.37)">
                <path d="M208.034,88.388L208.034,362.198" style="fill:none;fill-rule:nonzero;stroke:rgb(207,209,209);stroke-width:6.56px;"/>
                <path d="M221.688,362.225L221.688,88.388" style="fill:none;fill-rule:nonzero;stroke:rgb(207,209,209);stroke-width:6.56px;"/>
                <path d="M255.795,66.244L227.099,8.847C224.285,3.227 219.826,0 214.859,0C209.893,0.003 205.435,3.227 202.622,8.851L173.931,66.241C171.234,71.632 171.224,77.211 173.907,81.555C176.59,85.899 181.584,88.388 187.61,88.388L242.111,88.388C248.134,88.388 253.128,85.898 255.812,81.555C258.495,77.215 258.488,71.634 255.795,66.244ZM242.111,74.733L187.61,74.733C186.34,74.733 185.681,74.457 185.577,74.457C185.57,74.457 185.563,74.457 185.563,74.459C185.52,74.3 185.531,73.566 186.14,72.35L214.832,14.957C214.842,14.938 214.849,14.921 214.859,14.904C214.869,14.921 214.876,14.936 214.886,14.957L243.579,72.35C244.187,73.563 244.2,74.297 244.253,74.304C244.128,74.416 243.468,74.733 242.111,74.733Z" style="fill:none;fill-rule:nonzero;stroke:rgb(207,209,209);stroke-width:6.56px;"/>
                <path d="M214.861,361.455C196.042,361.455 180.728,376.769 180.728,395.588C180.728,414.407 196.042,429.721 214.861,429.721C233.68,429.721 248.994,414.407 248.994,395.588C248.994,376.769 233.68,361.455 214.861,361.455ZM214.861,416.068C203.568,416.068 194.381,406.881 194.381,395.588C194.381,384.295 203.568,375.108 214.861,375.108C226.154,375.108 235.341,384.295 235.341,395.588C235.341,406.881 226.154,416.068 214.861,416.068Z" style="fill:none;fill-rule:nonzero;stroke:rgb(207,209,209);stroke-width:6.56px;"/>
                <path d="M208.034,272.317L153.421,230.873L153.421,190.009" style="fill:none;fill-rule:nonzero;stroke:rgb(207,209,209);stroke-width:6.56px;"/>
                <path d="M139.767,189.863L139.767,234.264C139.767,236.401 140.767,238.411 142.467,239.702L208.034,289.455" style="fill:none;fill-rule:nonzero;stroke:rgb(207,209,209);stroke-width:6.56px;"/>
                <path d="M276.365,149.828L276.365,189.913L221.688,231.405" style="fill:none;fill-rule:nonzero;stroke:rgb(207,209,209);stroke-width:6.56px;"/>
                <path d="M221.688,248.544L287.319,198.742C289.019,197.452 290.019,195.441 290.019,193.304L290.019,149.828" style="fill:none;fill-rule:nonzero;stroke:rgb(207,209,209);stroke-width:6.56px;"/>
                <path d="M146.594,136.175C131.538,136.175 119.287,148.425 119.287,163.482C119.287,178.538 131.537,190.789 146.594,190.789C161.651,190.789 173.901,178.539 173.901,163.482C173.901,148.425 161.65,136.175 146.594,136.175ZM146.594,177.135C139.064,177.135 132.941,171.012 132.941,163.482C132.941,155.952 139.064,149.829 146.594,149.829C154.124,149.829 160.247,155.953 160.247,163.482C160.247,171.011 154.124,177.135 146.594,177.135Z" style="fill:none;fill-rule:nonzero;stroke:rgb(207,209,209);stroke-width:6.56px;"/>
                <path d="M296.844,95.213L269.411,95.213C261.917,95.213 255.821,101.309 255.821,108.803L255.821,136.238C255.821,143.732 261.917,149.828 269.411,149.828L296.844,149.828C304.338,149.828 310.434,143.73 310.434,136.236L310.434,108.803C310.434,101.309 304.338,95.213 296.844,95.213ZM269.474,136.238L269.474,108.868L296.781,108.803L296.844,136.175L269.474,136.238Z" style="fill:none;fill-rule:nonzero;stroke:rgb(207,209,209);stroke-width:6.56px;"/>
            </g>
        </g>
    </g>
</svg>
