<?xml version="1.0" encoding="UTF-8" standalone="no"?>
<!DOCTYPE svg PUBLIC "-//W3C//DTD SVG 1.1//EN" "http://www.w3.org/Graphics/SVG/1.1/DTD/svg11.dtd">
<svg width="100%" height="100%" viewBox="0 0 36 37" version="1.1" xmlns="http://www.w3.org/2000/svg" xmlns:xlink="http://www.w3.org/1999/xlink" xml:space="preserve" xmlns:serif="http://www.serif.com/" style="fill-rule:evenodd;clip-rule:evenodd;stroke-linejoin:round;stroke-miterlimit:2;">
    <g transform="matrix(1,0,0,1,-183.977,-368.17)">
        <g id="Шейная-подушка" serif:id="Шейная подушка" transform="matrix(0.0786129,0,0,0.0786129,181.711,365.904)">
            <path d="M280,81.277L280,40C280,35.611 276.389,32 272,32L240,32C235.611,32 232,35.611 232,40L232,81.277C118.803,93.487 32.005,190.146 32,304L32,384C32.065,441.028 78.972,487.935 136,488L172.6,488C209.572,487.997 239.994,457.572 239.994,420.6C239.994,411.172 238.016,401.847 234.187,393.231L231.03,386.131C215.797,351.976 207.949,314.985 208,277.587L208,276.926C208,250.594 229.668,228.926 256,228.926C282.332,228.926 304,250.594 304,276.926L304,277.587C304.049,314.985 296.2,351.975 280.966,386.129L277.809,393.229C273.98,401.846 272.001,411.171 272.001,420.6C272.001,457.574 302.426,487.999 339.4,488L376,488C433.028,487.935 479.935,441.028 480,384L480,304C479.995,190.146 393.197,93.487 280,81.277ZM248,48L264,48L264,80.156C261.34,80.063 258.675,80 256,80C253.325,80 250.66,80.063 248,80.156L248,48ZM464,384C463.945,432.255 424.255,471.945 376,472L339.4,472C311.205,471.997 288.006,448.795 288.006,420.6C288.006,413.411 289.514,406.301 292.433,399.731L295.591,392.631C308.105,364.552 315.933,334.611 318.761,304L344,304C348.389,304 352,300.389 352,296C352,291.611 348.389,288 344,288L319.789,288C319.914,284.537 320,281.068 320,277.587L320,276.926C320.009,261.515 314.445,246.61 304.339,234.975L325.657,213.657C327.157,212.157 328,210.121 328,208C328,203.611 324.389,200 320,200C317.879,200 315.843,200.843 314.343,202.343L292.4,224.288C270.549,209.168 241.451,209.168 219.6,224.288L197.655,202.343C196.155,200.843 194.119,200 191.998,200C187.609,200 183.998,203.611 183.998,208C183.998,210.121 184.841,212.157 186.341,213.657L207.659,234.975C197.554,246.61 191.99,261.516 192,276.926L192,277.587C192,281.068 192.086,284.537 192.211,288L168,288C163.611,288 160,291.611 160,296C160,300.389 163.611,304 168,304L193.239,304C196.07,334.61 203.898,364.551 216.414,392.629L219.57,399.729C222.489,406.3 223.998,413.41 223.998,420.6C223.998,448.796 200.796,471.999 172.6,472L136,472C87.745,471.945 48.055,432.255 48,384L48,304C48,189.309 141.309,96 256,96C370.691,96 464,189.309 464,304L464,384Z" style="fill:none;fill-rule:nonzero;stroke:rgb(207,209,209);stroke-width:6.36px;"/>
        </g>
    </g>
</svg>
