<?xml version="1.0" encoding="UTF-8" standalone="no"?>
<!DOCTYPE svg PUBLIC "-//W3C//DTD SVG 1.1//EN" "http://www.w3.org/Graphics/SVG/1.1/DTD/svg11.dtd">
<svg width="100%" height="100%" viewBox="0 0 25 25" version="1.1" xmlns="http://www.w3.org/2000/svg" xmlns:xlink="http://www.w3.org/1999/xlink" xml:space="preserve" xmlns:serif="http://www.serif.com/" style="fill-rule:evenodd;clip-rule:evenodd;stroke-linejoin:round;stroke-miterlimit:2;">
    <g transform="matrix(1,0,0,1,-2615.73,-1362.69)">
        <g transform="matrix(0.655301,0,0,0.655301,2363.28,458.186)">
            <g transform="matrix(0.0711135,0,0,0.0711135,385.619,1380.68)">
                <path d="M497,231C505.284,231 512,224.284 512,216C512,207.716 505.284,201 497,201L431,201L431,151L497,151C505.284,151 512,144.284 512,136C512,127.716 505.284,121 497,121L431,121L431,111C431,94.458 417.542,81 401,81L391,81L391,15C391,6.716 384.284,0 376,0C367.716,0 361,6.716 361,15L361,81L311,81L311,15C311,6.716 304.284,0 296,0C287.716,0 281,6.716 281,15L281,81L231,81L231,15C231,6.716 224.284,0 216,0C207.716,0 201,6.716 201,15L201,81L151,81L151,15C151,6.716 144.284,0 136,0C127.716,0 121,6.716 121,15L121,81L111,81C94.458,81 81,94.458 81,111L81,121L15,121C6.716,121 0,127.716 0,136C0,144.284 6.716,151 15,151L81,151L81,201L15,201C6.716,201 0,207.716 0,216C0,224.284 6.716,231 15,231L81,231L81,281L15,281C6.716,281 0,287.716 0,296C0,304.284 6.716,311 15,311L81,311L81,361L15,361C6.716,361 0,367.716 0,376C0,384.284 6.716,391 15,391L81,391L81,401C81,417.542 94.458,431 111,431L121,431L121,497C121,505.284 127.716,512 136,512C144.284,512 151,505.284 151,497L151,431L201,431L201,497C201,505.284 207.716,512 216,512C224.284,512 231,505.284 231,497L231,431L281,431L281,497C281,505.284 287.716,512 296,512C304.284,512 311,505.284 311,497L311,431L361,431L361,497C361,505.284 367.716,512 376,512C384.284,512 391,505.284 391,497L391,431L401,431C417.542,431 431,417.542 431,401L431,391L497,391C505.284,391 512,384.284 512,376C512,367.716 505.284,361 497,361L431,361L431,311L497,311C505.284,311 512,304.284 512,296C512,287.716 505.284,281 497,281L431,281L431,231L497,231ZM401,401L111,401L111,111L401,111C401.02,409.059 401.1,401 401,401Z" style="fill:none;fill-rule:nonzero;stroke:rgb(207,209,209);stroke-width:10.73px;"/>
            </g>
        </g>
    </g>
</svg>
