<?xml version="1.0" encoding="UTF-8" standalone="no"?>
<!DOCTYPE svg PUBLIC "-//W3C//DTD SVG 1.1//EN" "http://www.w3.org/Graphics/SVG/1.1/DTD/svg11.dtd">
<svg width="100%" height="100%" viewBox="0 0 30 16" version="1.1" xmlns="http://www.w3.org/2000/svg" xmlns:xlink="http://www.w3.org/1999/xlink" xml:space="preserve" xmlns:serif="http://www.serif.com/" style="fill-rule:evenodd;clip-rule:evenodd;stroke-linejoin:round;stroke-miterlimit:2;">
    <g transform="matrix(1,0,0,1,-2614.63,-1420.46)">
        <g transform="matrix(0.655301,0,0,0.655301,2363.28,458.186)">
            <g id="оперативная-память" serif:id="оперативная память" transform="matrix(0.0858884,0,0,0.0858884,383.869,1458.37)">
                <g>
                    <g>
                        <path d="M497,231C505.284,231 512,224.284 512,216L512,136C512,127.716 505.284,121 497,121L15,121C6.716,121 0,127.716 0,136L0,216C0,224.284 6.716,231 15,231C28.785,231 40,242.215 40,256C40,269.785 28.785,281 15,281C6.716,281 0,287.716 0,296L0,376C0,384.284 6.716,391 15,391L126,391C134.284,391 141,384.284 141,376L141,350.999L171,350.999L171,376C171,384.284 177.716,391 186,391L497,391C505.284,391 512,384.284 512,376L512,296C512,287.716 505.284,281 497,281C483.215,281 472,269.785 472,256C472,242.215 483.215,231 497,231ZM482,308.921L482,361L460.167,361L460.167,335.999C460.167,327.715 453.451,320.999 445.167,320.999C436.883,320.999 430.167,327.715 430.167,335.999L430.167,361L408.333,361L408.333,335.999C408.333,327.715 401.617,320.999 393.333,320.999C385.049,320.999 378.333,327.715 378.333,335.999L378.333,361L356.5,361L356.5,335.999C356.5,327.715 349.784,320.999 341.5,320.999C333.216,320.999 326.5,327.715 326.5,335.999L326.5,361L304.667,361L304.667,335.999C304.667,327.715 297.951,320.999 289.667,320.999C281.383,320.999 274.667,327.715 274.667,335.999L274.667,361L252.833,361L252.833,335.999C252.833,327.715 246.117,320.999 237.833,320.999C229.549,320.999 222.833,327.715 222.833,335.999L222.833,361L201,361L201,335.999C201,327.715 194.284,320.999 186,320.999L126,320.999C117.716,320.999 111,327.715 111,335.999L111,361L89,361L89,335.999C89,327.715 82.284,320.999 74,320.999C65.716,320.999 59,327.715 59,335.999L59,361L30,361L30,308.921C53.061,302.376 70,281.129 70,256C70,230.871 53.061,209.624 30,203.079L30,151L482,151L482,203.079C458.939,209.624 442,230.871 442,256C442,281.129 458.939,302.376 482,308.921Z" style="fill:none;fill-rule:nonzero;stroke:rgb(207,209,209);stroke-width:7.35px;"/>
                    </g>
                </g>
                <g>
                    <g>
                        <path d="M407,171L105,171C96.716,171 90,177.716 90,186L90,285.999C90,294.283 96.716,300.999 105,300.999L407,300.999C415.284,300.999 422,294.283 422,285.999L422,186C422,177.716 415.284,171 407,171ZM190.667,270.999L120,270.999L120,201L190.667,201L190.667,270.999ZM291.333,270.999L220.667,270.999L220.667,201L291.333,201L291.333,270.999ZM392,270.999L321.333,270.999L321.333,201L392,201L392,270.999Z" style="fill:none;fill-rule:nonzero;stroke:rgb(207,209,209);stroke-width:7.35px;"/>
                    </g>
                </g>
            </g>
        </g>
    </g>
</svg>
