<?xml version="1.0" encoding="UTF-8" standalone="no"?>
<!DOCTYPE svg PUBLIC "-//W3C//DTD SVG 1.1//EN" "http://www.w3.org/Graphics/SVG/1.1/DTD/svg11.dtd">
<svg width="100%" height="100%" viewBox="0 0 43 64" version="1.1" xmlns="http://www.w3.org/2000/svg" xmlns:xlink="http://www.w3.org/1999/xlink" xml:space="preserve" xmlns:serif="http://www.serif.com/" style="fill-rule:evenodd;clip-rule:evenodd;stroke-linejoin:round;stroke-miterlimit:2;">
    <g transform="matrix(1,0,0,1,-71.202,-354.46)">
        <g id="Механизм-качания" serif:id="Механизм качания" transform="matrix(0.108923,0,0,0.108923,64.4348,362.102)">
            <g transform="matrix(0.957783,0,0,0.957783,10.8151,-99.0366)">
                <path d="M343.254,34.746C340.324,31.82 335.574,31.82 332.645,34.746C329.715,37.676 329.715,42.426 332.645,45.355L333.441,46.152L178.543,46.152L179.34,45.355C182.27,42.426 182.27,37.676 179.34,34.746C176.41,31.82 171.66,31.82 168.73,34.746L155.129,48.348C152.199,51.281 152.199,56.027 155.129,58.957L168.73,72.563C170.195,74.023 172.117,74.758 174.035,74.758C175.953,74.758 177.875,74.023 179.34,72.563C182.27,69.629 182.27,64.883 179.34,61.953L178.543,61.156L333.441,61.156L332.645,61.953C329.715,64.883 329.715,69.633 332.645,72.563C334.109,74.023 336.031,74.758 337.949,74.758C339.867,74.758 341.789,74.023 343.254,72.563L356.855,58.957C359.785,56.027 359.785,51.277 356.855,48.348L343.254,34.746Z" style="fill:none;fill-rule:nonzero;stroke:rgb(207,209,209);stroke-width:4.79px;"/>
            </g>
            <g transform="matrix(1,0,0,1,0.0492733,0)">
                <path d="M416.209,172.355C405.628,168.504 394.011,168.794 383.692,173.047L374.633,59.817C373.326,43.479 365.975,28.359 353.932,17.24C341.889,6.123 326.23,-0 309.841,-0L202.16,-0C185.769,-0 170.111,6.123 158.068,17.24C146.025,28.358 138.673,43.479 137.367,59.816L128.308,173.047C117.99,168.794 106.372,168.504 95.791,172.355C74.47,180.116 62.252,202.638 67.373,224.744L84.211,297.414C90.021,322.488 112.054,340 137.792,340L181,340L181,355C181,379.813 201.187,400 226,400L241,400L241,442L216,442C185.673,442 161,466.673 161,497C161,505.284 167.716,512 176,512C184.284,512 191,505.284 191,497C191,483.215 202.215,472 216,472L241,472L241,497C241,505.284 247.716,512 256,512C264.284,512 271,505.284 271,497L271,472L296,472C309.785,472 321,483.215 321,497C321,505.284 327.716,512 336,512C344.284,512 351,505.284 351,497C351,466.673 326.327,442 296,442L271,442L271,400L286,400C310.813,400 331,379.813 331,355L331,340L374.208,340C399.946,340 421.979,322.488 427.789,297.415L444.627,224.744C449.748,202.638 437.53,180.116 416.209,172.355ZM221,30L291,30L291,55C291,57.757 288.757,60 286,60L226,60C223.243,60 221,57.757 221,55L221,30ZM301,355C301,363.271 294.271,370 286,370L226,370C217.729,370 211,363.271 211,355L211,340L301,340L301,355Z" style="fill:none;fill-rule:nonzero;stroke:rgb(207,209,209);stroke-width:8.26px;"/>
            </g>
        </g>
    </g>
</svg>
