<?xml version="1.0" encoding="UTF-8" standalone="no"?>
<!DOCTYPE svg PUBLIC "-//W3C//DTD SVG 1.1//EN" "http://www.w3.org/Graphics/SVG/1.1/DTD/svg11.dtd">
<svg width="100%" height="100%" viewBox="0 0 37 37" version="1.1" xmlns="http://www.w3.org/2000/svg" xmlns:xlink="http://www.w3.org/1999/xlink" xml:space="preserve" xmlns:serif="http://www.serif.com/" style="fill-rule:evenodd;clip-rule:evenodd;stroke-linejoin:round;stroke-miterlimit:10;">
    <g transform="matrix(1,0,0,1,-9051.39,-5916.03)">
        <g transform="matrix(1,0,0,1,8670.61,4923.35)">
            <g id="Блок-питания" serif:id="Блок питания">
                <path d="M402.456,1004.2L409.222,1004.2C409.845,1004.2 410.35,1003.7 410.35,1003.07L410.35,1000.25C410.35,999.954 410.231,999.667 410.019,999.456L408.328,997.765C408.116,997.553 407.829,997.434 407.53,997.434L404.147,997.434C403.848,997.434 403.561,997.553 403.35,997.765L401.658,999.456C401.447,999.667 401.328,999.954 401.328,1000.25L401.328,1003.07C401.328,1003.7 401.833,1004.2 402.456,1004.2ZM403.584,1000.72L404.614,999.689L407.063,999.689L408.094,1000.72L408.094,1001.95L403.584,1001.95L403.584,1000.72Z" style="fill:none;stroke:rgb(207,209,209);stroke-width:0.5px;"/>
                <path d="M402.456,1013.22L409.222,1013.22C409.845,1013.22 410.35,1012.72 410.35,1012.09L410.35,1009.27C410.35,1008.98 410.231,1008.69 410.019,1008.48L408.328,1006.79C408.116,1006.57 407.829,1006.46 407.53,1006.46L404.147,1006.46C403.848,1006.46 403.561,1006.57 403.35,1006.79L401.658,1008.48C401.447,1008.69 401.328,1008.98 401.328,1009.27L401.328,1012.09C401.328,1012.72 401.833,1013.22 402.456,1013.22ZM403.584,1009.74L404.614,1008.71L407.063,1008.71L408.094,1009.74L408.094,1010.97L403.584,1010.97L403.584,1009.74Z" style="fill:none;stroke:rgb(207,209,209);stroke-width:0.5px;"/>
                <path d="M385.541,1004.19C385.536,1007.95 388.6,1010.97 392.306,1010.97C395.946,1010.97 399.043,1008.05 399.073,1004.21C399.078,1000.44 396.01,997.434 392.307,997.434C388.673,997.434 385.571,1000.34 385.541,1004.19ZM388.297,1006.26C389.634,1006.65 390.784,1006.45 391.973,1005.76C392.417,1006.57 392.505,1007.35 391.719,1008.67C390.226,1008.48 388.961,1007.55 388.297,1006.26ZM394.369,1008.21C394.816,1006.66 394.415,1005.49 393.868,1004.53C394.681,1004.09 395.459,1004 396.778,1004.79C396.583,1006.28 395.655,1007.55 394.369,1008.21ZM390.245,1000.19C389.798,1001.74 390.198,1002.92 390.746,1003.87C389.933,1004.31 389.155,1004.4 387.836,1003.61C388.031,1002.12 388.958,1000.86 390.245,1000.19ZM396.317,1002.14C394.765,1001.69 393.591,1002.09 392.64,1002.64C392.196,1001.83 392.109,1001.05 392.895,999.729C394.388,999.924 395.652,1000.85 396.317,1002.14Z" style="fill:none;stroke:rgb(207,209,209);stroke-width:0.5px;"/>
                <path d="M415.988,1025.63L413.733,1025.63L413.733,1023.37L415.988,1023.37C416.611,1023.37 417.116,1022.87 417.116,1022.24C417.116,1021.62 416.611,1021.12 415.988,1021.12L413.733,1021.12C413.733,1020.49 413.228,1019.99 412.605,1019.99L410.42,1019.99C408.563,1019.99 407.037,1021.5 407.037,1023.37C406.948,1023.37 407.812,1023.37 390.615,1023.37C389.061,1023.37 387.796,1022.11 387.796,1020.55L387.796,1017.73L413.733,1017.73C414.355,1017.73 414.86,1017.23 414.86,1016.6L414.86,994.051C414.86,993.428 414.355,992.924 413.733,992.924L382.158,992.924C381.535,992.924 381.03,993.428 381.03,994.051L381.03,1016.6C381.03,1017.23 381.535,1017.73 382.158,1017.73L385.541,1017.73L385.541,1020.55C385.541,1023.35 387.817,1025.63 390.615,1025.63C404.933,1025.63 407.037,1025.62 407.037,1025.63C407.037,1027.49 408.555,1029.01 410.42,1029.01L412.605,1029.01C413.228,1029.01 413.733,1028.5 413.733,1027.88L415.988,1027.88C416.611,1027.88 417.116,1027.38 417.116,1026.75C417.116,1026.13 416.611,1025.63 415.988,1025.63ZM410.42,1026.75C409.798,1026.75 409.292,1026.25 409.292,1025.63L409.292,1023.37C409.292,1022.75 409.798,1022.24 410.42,1022.24L411.477,1022.24L411.477,1026.75L410.42,1026.75ZM383.286,1015.48L383.286,995.179L412.605,995.179L412.605,1015.48L387.796,1015.48L387.796,1013.22C387.796,1012.6 387.291,1012.09 386.669,1012.09C386.046,1012.09 385.541,1012.6 385.541,1013.22L385.541,1015.48L383.286,1015.48Z" style="fill:none;stroke:rgb(207,209,209);stroke-width:0.5px;"/>
            </g>
        </g>
    </g>
</svg>
