<?xml version="1.0" encoding="UTF-8" standalone="no"?>
<!DOCTYPE svg PUBLIC "-//W3C//DTD SVG 1.1//EN" "http://www.w3.org/Graphics/SVG/1.1/DTD/svg11.dtd">
<svg width="100%" height="100%" viewBox="0 0 35 35" version="1.1" xmlns="http://www.w3.org/2000/svg" xmlns:xlink="http://www.w3.org/1999/xlink" xml:space="preserve" xmlns:serif="http://www.serif.com/" style="fill-rule:evenodd;clip-rule:evenodd;stroke-linejoin:round;stroke-miterlimit:10;">
    <g transform="matrix(1,0,0,1,-9055.17,-5977.11)">
        <g transform="matrix(1,0,0,1,8670.61,4923.35)">
            <g id="Охлаждение">
                <path d="M417.324,1054.8C416.866,1054.4 416.308,1054.14 415.709,1054.05C415.701,1054.04 415.692,1054.04 415.682,1054.04C415.53,1054.02 415.376,1054.01 415.225,1054.01L387.995,1054.01C386.237,1054.01 384.807,1055.44 384.807,1057.2L384.807,1084.43C384.807,1085.38 385.23,1086.28 385.967,1086.89C385.991,1086.91 386.015,1086.92 386.04,1086.94L386.055,1086.96C386.065,1086.96 386.075,1086.97 386.087,1086.98C386.642,1087.4 387.301,1087.62 387.995,1087.62L394.133,1087.62C394.424,1087.62 394.66,1087.38 394.66,1087.09C394.66,1086.8 394.424,1086.56 394.133,1086.56L387.995,1086.56C387.531,1086.56 387.089,1086.41 386.72,1086.14L386.683,1086.11C386.668,1086.1 386.653,1086.09 386.638,1086.07C386.144,1085.67 385.861,1085.07 385.861,1084.43L385.861,1057.2C385.861,1056.02 386.818,1055.06 387.995,1055.06L415.225,1055.06C415.327,1055.06 415.431,1055.07 415.534,1055.09C415.541,1055.09 415.549,1055.09 415.557,1055.09C415.954,1055.15 416.325,1055.32 416.63,1055.59C417.094,1056 417.36,1056.58 417.36,1057.2L417.36,1084.43C417.36,1084.71 417.304,1084.99 417.192,1085.26C416.857,1086.05 416.085,1086.56 415.225,1086.56L395.748,1086.56C395.457,1086.56 395.222,1086.8 395.222,1087.09C395.222,1087.38 395.457,1087.62 395.748,1087.62L415.225,1087.62C416.509,1087.62 417.662,1086.85 418.163,1085.67C418.329,1085.27 418.413,1084.86 418.413,1084.43L418.413,1057.2C418.413,1056.28 418.016,1055.4 417.324,1054.8Z" style="fill:none;stroke:rgb(207,209,209);stroke-width:0.5px;"/>
                <path d="M414.115,1056.07C412.921,1056.07 411.95,1057.04 411.95,1058.23C411.95,1059.43 412.921,1060.4 414.115,1060.4C415.309,1060.4 416.281,1059.43 416.281,1058.23C416.281,1057.04 415.309,1056.07 414.115,1056.07ZM414.115,1059.35C413.502,1059.35 413.003,1058.85 413.003,1058.23C413.003,1057.62 413.502,1057.12 414.115,1057.12C414.728,1057.12 415.227,1057.62 415.227,1058.23C415.227,1058.85 414.729,1059.35 414.115,1059.35Z" style="fill:none;stroke:rgb(207,209,209);stroke-width:0.2px;"/>
                <path d="M411.95,1083.37C411.95,1084.56 412.921,1085.54 414.115,1085.54C415.309,1085.54 416.281,1084.56 416.281,1083.37C416.281,1082.17 415.309,1081.2 414.115,1081.2C412.921,1081.2 411.95,1082.17 411.95,1083.37ZM415.227,1083.37C415.227,1083.98 414.729,1084.48 414.115,1084.48C413.502,1084.48 413.003,1083.98 413.003,1083.37C413.003,1082.76 413.502,1082.26 414.115,1082.26C414.728,1082.26 415.227,1082.76 415.227,1083.37Z" style="fill:none;stroke:rgb(207,209,209);stroke-width:0.2px;"/>
                <path d="M389.206,1060.4C390.4,1060.4 391.372,1059.43 391.372,1058.23C391.372,1057.04 390.4,1056.07 389.206,1056.07C388.012,1056.07 387.041,1057.04 387.041,1058.23C387.041,1059.43 388.012,1060.4 389.206,1060.4ZM389.206,1057.12C389.819,1057.12 390.318,1057.62 390.318,1058.23C390.318,1058.85 389.819,1059.35 389.206,1059.35C388.593,1059.35 388.094,1058.85 388.094,1058.23C388.094,1057.62 388.593,1057.12 389.206,1057.12Z" style="fill:none;stroke:rgb(207,209,209);stroke-width:0.2px;"/>
                <path d="M389.206,1085.53C390.4,1085.53 391.372,1084.56 391.372,1083.37C391.372,1082.17 390.4,1081.2 389.206,1081.2C388.012,1081.2 387.041,1082.17 387.041,1083.37C387.041,1084.56 388.012,1085.53 389.206,1085.53ZM389.206,1082.26C389.819,1082.26 390.318,1082.76 390.318,1083.37C390.318,1083.98 389.819,1084.48 389.206,1084.48C388.593,1084.48 388.094,1083.98 388.094,1083.37C388.094,1082.76 388.593,1082.26 389.206,1082.26Z" style="fill:none;stroke:rgb(207,209,209);stroke-width:0.2px;"/>
                <path d="M409.448,1062.82L409.262,1062.65C407.716,1061.2 405.753,1060.19 403.575,1059.82L403.108,1059.75C403.051,1059.75 402.994,1059.74 402.938,1059.73C402.542,1059.69 402.14,1059.67 401.734,1059.67C398.531,1059.67 395.643,1061.04 393.627,1063.23L393.285,1063.62L392.884,1064.13C392.032,1065.27 391.397,1066.59 391.04,1068.01L390.944,1068.43L390.87,1068.83L390.812,1069.2L390.77,1069.55L390.735,1069.98L390.717,1070.34C390.714,1070.46 390.711,1070.57 390.711,1070.69L390.728,1071.29L390.769,1071.82C390.815,1072.27 390.89,1072.73 390.994,1073.17L391.152,1073.77L391.284,1074.2L391.466,1074.7L391.567,1074.95C392.091,1076.19 392.838,1077.32 393.757,1078.29L394.183,1078.71L394.646,1079.12L394.81,1079.26C396.122,1080.32 397.683,1081.09 399.389,1081.46L399.933,1081.56L400.27,1081.61C400.749,1081.68 401.237,1081.71 401.733,1081.71C402.914,1081.71 404.051,1081.52 405.118,1081.18C405.124,1081.18 405.13,1081.17 405.137,1081.17C405.479,1081.06 405.814,1080.93 406.142,1080.79C406.146,1080.79 406.15,1080.79 406.154,1080.78C406.484,1080.64 406.806,1080.48 407.119,1080.3L407.136,1080.29C410.487,1078.4 412.755,1074.81 412.755,1070.69C412.755,1067.61 411.489,1064.83 409.452,1062.83C409.451,1062.83 409.45,1062.83 409.448,1062.82ZM401.734,1080.66C401.403,1080.66 401.076,1080.64 400.753,1080.61C400.426,1079.79 400.259,1078.93 400.259,1078.04C400.259,1077.63 400.295,1077.23 400.365,1076.83C400.84,1078.3 401.732,1079.61 402.945,1080.58C402.548,1080.63 402.144,1080.66 401.734,1080.66ZM400.107,1074.35C400.084,1074.39 400.061,1074.44 400.039,1074.48C400.037,1074.49 400.035,1074.49 400.032,1074.5C399.493,1075.59 399.206,1076.8 399.206,1078.04C399.206,1078.85 399.327,1079.65 399.568,1080.42C399.567,1080.42 399.567,1080.42 399.566,1080.42C397.845,1080.03 396.242,1079.19 394.942,1077.98L394.674,1077.72C394.773,1075.52 395.907,1073.5 397.743,1072.27C397.869,1072.26 397.995,1072.26 398.12,1072.26L398.408,1072.27L398.721,1072.3L399.1,1072.35L399.397,1072.72C399.408,1072.74 399.42,1072.75 399.432,1072.76C399.754,1073.1 400.153,1073.36 400.602,1073.52L400.276,1074.04L400.107,1074.35ZM406.607,1079.38C406.255,1079.58 405.892,1079.76 405.52,1079.91L405.24,1080.02C405.238,1080.02 405.236,1080.02 405.234,1080.02C404.955,1080.13 404.672,1080.22 404.385,1080.3C404.381,1080.3 404.378,1080.3 404.374,1080.3C402.433,1079.13 401.199,1077.1 401.045,1074.83L401.211,1074.53L401.397,1074.23L401.632,1073.89L401.789,1073.69L402.245,1073.63L402.369,1073.6C402.81,1073.49 403.217,1073.27 403.561,1072.98L403.792,1073.42L404.035,1073.83C404.06,1073.87 404.084,1073.91 404.11,1073.94C404.113,1073.95 404.117,1073.95 404.12,1073.96C404.797,1074.97 405.701,1075.83 406.772,1076.44C407.497,1076.86 408.268,1077.16 409.074,1077.34C408.37,1078.15 407.543,1078.83 406.607,1079.38ZM393.737,1076.63C393.318,1076.07 392.956,1075.46 392.662,1074.82C393.194,1074.16 393.835,1073.62 394.572,1073.19C394.924,1072.99 395.292,1072.82 395.671,1072.68C394.671,1073.79 393.999,1075.15 393.737,1076.63ZM409.894,1076.41C408.977,1076.29 408.105,1076 407.298,1075.53C406.944,1075.33 406.612,1075.09 406.303,1074.83C406.854,1074.95 407.418,1075.01 407.982,1075.01L407.982,1075.01C409.007,1075.01 410.024,1074.81 410.974,1074.43C410.688,1075.13 410.324,1075.79 409.894,1076.41ZM411.097,1067.55C411.703,1069.31 411.801,1071.24 411.371,1073.07C410.334,1073.65 409.165,1073.96 407.982,1073.96L407.982,1073.96C406.923,1073.96 405.866,1073.71 404.914,1073.25L404.736,1072.95L404.572,1072.65L404.398,1072.27L404.299,1072.03C404.299,1072.03 404.3,1072.03 404.3,1072.03C404.503,1071.63 404.618,1071.17 404.618,1070.69C404.618,1070.5 404.6,1070.32 404.568,1070.14L405.06,1070.17L405.68,1070.15C405.683,1070.15 405.686,1070.15 405.689,1070.15C406.911,1070.07 408.107,1069.71 409.175,1069.1C409.9,1068.68 410.544,1068.16 411.097,1067.55ZM392.233,1073.71L392.107,1073.28L392.023,1072.94L391.935,1072.53L391.877,1072.18L391.825,1071.78L391.793,1071.44L391.772,1071.03C391.768,1070.92 391.765,1070.8 391.765,1070.69L391.773,1070.31L391.813,1069.71L391.899,1069.06L392.015,1068.47L392.085,1068.18C393.061,1067.68 394.148,1067.42 395.24,1067.42C396.298,1067.42 397.356,1067.66 398.307,1068.13L398.484,1068.42C398.54,1068.52 398.594,1068.62 398.645,1068.72C398.646,1068.72 398.647,1068.72 398.649,1068.73L398.823,1069.1L398.921,1069.34C398.921,1069.34 398.921,1069.34 398.921,1069.34C398.717,1069.75 398.602,1070.2 398.602,1070.69C398.602,1070.87 398.62,1071.06 398.652,1071.23L398.495,1071.22C398.2,1071.2 397.906,1071.2 397.612,1071.22C397.588,1071.22 397.564,1071.22 397.54,1071.22C397.537,1071.22 397.534,1071.22 397.531,1071.22C396.31,1071.3 395.113,1071.66 394.045,1072.28C393.369,1072.67 392.762,1073.15 392.233,1073.71ZM403.273,1071.71C403.272,1071.72 403.272,1071.72 403.271,1071.72L403.145,1071.9L402.989,1072.07C402.837,1072.22 402.66,1072.35 402.465,1072.45L402.189,1072.56C402.187,1072.56 402.185,1072.56 402.183,1072.56L401.939,1072.62C401.813,1072.64 401.684,1072.64 401.552,1072.64C400.945,1072.62 400.382,1072.32 400.028,1071.84L399.874,1071.59C399.561,1070.98 399.588,1070.25 399.947,1069.66L400.073,1069.48C400.327,1069.16 400.681,1068.92 401.087,1068.81L401.292,1068.76L401.668,1068.74C402.275,1068.75 402.839,1069.06 403.192,1069.54L403.331,1069.76C403.66,1070.37 403.638,1071.12 403.273,1071.71ZM403.114,1067.03C403.136,1066.98 403.159,1066.94 403.181,1066.89C403.184,1066.89 403.185,1066.88 403.188,1066.88C403.727,1065.79 404.014,1064.58 404.014,1063.34C404.014,1062.5 403.887,1061.69 403.636,1060.9C405.467,1061.26 407.182,1062.14 408.554,1063.43C408.526,1065.72 407.383,1067.83 405.478,1069.11L405.178,1069.11L404.734,1069.1L404.12,1069.03L403.824,1068.65C403.813,1068.64 403.801,1068.63 403.789,1068.62C403.467,1068.28 403.068,1068.02 402.619,1067.86L402.945,1067.34L403.114,1067.03ZM410.713,1066.36C410.153,1067.1 409.46,1067.72 408.649,1068.18C408.298,1068.39 407.93,1068.56 407.552,1068.69C408.612,1067.52 409.301,1066.06 409.526,1064.48C409.988,1065.06 410.387,1065.69 410.713,1066.36ZM398.924,1061.12C400.82,1062.31 402.023,1064.31 402.175,1066.55L402.009,1066.85L401.824,1067.15L401.589,1067.48L401.432,1067.69L400.976,1067.75L400.852,1067.78C400.411,1067.89 400.004,1068.1 399.66,1068.4L399.369,1067.85L399.111,1067.43C399.108,1067.43 399.104,1067.42 399.1,1067.42C398.424,1066.4 397.52,1065.55 396.449,1064.93C395.766,1064.54 395.041,1064.25 394.284,1064.07C395.524,1062.68 397.14,1061.65 398.924,1061.12ZM393.551,1065C394.386,1065.13 395.183,1065.42 395.922,1065.85C396.276,1066.05 396.609,1066.28 396.918,1066.54C396.367,1066.42 395.804,1066.36 395.24,1066.36C394.32,1066.36 393.404,1066.53 392.539,1066.84C392.812,1066.19 393.153,1065.57 393.551,1065ZM401.734,1060.72C401.977,1060.72 402.219,1060.73 402.459,1060.75C402.792,1061.57 402.961,1062.44 402.961,1063.34C402.961,1063.75 402.925,1064.15 402.855,1064.55C402.384,1063.09 401.505,1061.8 400.309,1060.82C400.775,1060.76 401.25,1060.72 401.734,1060.72Z" style="fill:none;stroke:rgb(207,209,209);stroke-width:0.5px;"/>
            </g>
        </g>
    </g>
</svg>
