<?xml version="1.0" encoding="UTF-8" standalone="no"?>
<!DOCTYPE svg PUBLIC "-//W3C//DTD SVG 1.1//EN" "http://www.w3.org/Graphics/SVG/1.1/DTD/svg11.dtd">
<svg width="100%" height="100%" viewBox="0 0 37 37" version="1.1" xmlns="http://www.w3.org/2000/svg" xmlns:xlink="http://www.w3.org/1999/xlink" xml:space="preserve" xmlns:serif="http://www.serif.com/" style="fill-rule:evenodd;clip-rule:evenodd;stroke-linejoin:round;stroke-miterlimit:10;">
    <g transform="matrix(1,0,0,1,-9051.4,-5671.66)">
        <g transform="matrix(1,0,0,1,8670.61,4923.35)">
            <g id="мать">
                <g>
                    <g>
                        <g>
                            <g>
                                <path d="M416.058,748.557L382.087,748.557C381.504,748.557 381.03,749.03 381.03,749.614L381.03,783.585C381.03,784.168 381.504,784.642 382.087,784.642L416.058,784.642C416.642,784.642 417.116,784.168 417.116,783.585L417.116,749.614C417.116,749.03 416.642,748.557 416.058,748.557ZM415.001,782.527L383.145,782.527L383.145,750.671L415.001,750.671L415.001,782.527Z" style="fill:none;stroke:rgb(207,209,209);stroke-width:0.49px;"/>
                            </g>
                        </g>
                    </g>
                </g>
                <g>
                    <g>
                        <g>
                            <g>
                                <path d="M396.255,771.945L387.086,771.945C386.488,771.945 386.003,772.429 386.003,773.028L386.003,779.308C386.003,779.906 386.488,780.391 387.086,780.391L396.255,780.391C396.853,780.391 397.338,779.906 397.338,779.308L397.338,773.028C397.338,772.429 396.853,771.945 396.255,771.945ZM395.172,778.225L392.754,778.225L392.754,774.111L395.172,774.111L395.172,778.225ZM390.587,778.225L388.169,778.225L388.169,774.111L390.587,774.111L390.587,778.225Z" style="fill:none;stroke:rgb(207,209,209);stroke-width:0.49px;"/>
                            </g>
                        </g>
                    </g>
                </g>
                <g>
                    <g>
                        <g>
                            <g>
                                <path d="M387.086,752.807C386.488,752.807 386.003,753.292 386.003,753.89L386.003,767.682C386.003,768.28 386.488,768.765 387.086,768.765C387.684,768.765 388.169,768.28 388.169,767.682L388.169,753.89C388.169,753.292 387.684,752.807 387.086,752.807Z" style="fill:none;stroke:rgb(207,209,209);stroke-width:0.49px;"/>
                            </g>
                        </g>
                    </g>
                </g>
                <g>
                    <g>
                        <g>
                            <g>
                                <path d="M391.67,752.807C391.072,752.807 390.587,753.292 390.587,753.89L390.587,767.682C390.587,768.28 391.072,768.765 391.67,768.765C392.269,768.765 392.754,768.28 392.754,767.682L392.754,753.89C392.754,753.292 392.269,752.807 391.67,752.807Z" style="fill:none;stroke:rgb(207,209,209);stroke-width:0.49px;"/>
                            </g>
                        </g>
                    </g>
                </g>
                <g>
                    <g>
                        <g>
                            <g>
                                <path d="M412.504,761.254L409.976,761.254L409.976,760.028L412.504,760.028C413.102,760.028 413.587,759.543 413.587,758.945C413.587,758.347 413.102,757.862 412.504,757.862L409.976,757.862L409.976,757.501C409.976,756.903 409.491,756.418 408.893,756.418L408.532,756.418L408.532,753.89C408.532,753.292 408.047,752.807 407.449,752.807C406.851,752.807 406.366,753.292 406.366,753.89L406.366,756.418L405.14,756.418L405.14,753.89C405.14,753.292 404.655,752.807 404.057,752.807C403.459,752.807 402.974,753.292 402.974,753.89L402.974,756.418L402.613,756.418C402.015,756.418 401.53,756.903 401.53,757.501L401.53,757.862L399.002,757.862C398.404,757.862 397.919,758.347 397.919,758.945C397.919,759.543 398.404,760.028 399.002,760.028L401.53,760.028L401.53,761.254L399.002,761.254C398.404,761.254 397.919,761.739 397.919,762.337C397.919,762.935 398.404,763.42 399.002,763.42L401.53,763.42L401.53,763.781C401.53,764.379 402.015,764.864 402.613,764.864L402.974,764.864L402.974,767.392C402.974,767.99 403.459,768.475 404.057,768.475C404.655,768.475 405.14,767.99 405.14,767.392L405.14,764.864L406.366,764.864L406.366,767.392C406.366,767.99 406.851,768.475 407.449,768.475C408.047,768.475 408.532,767.99 408.532,767.392L408.532,764.864L408.893,764.864C409.491,764.864 409.976,764.379 409.976,763.781L409.976,763.42L412.504,763.42C413.102,763.42 413.587,762.935 413.587,762.337C413.587,761.739 413.102,761.254 412.504,761.254ZM407.81,762.698L403.696,762.698L403.696,758.584L407.81,758.584L407.81,762.698Z" style="fill:none;stroke:rgb(207,209,209);stroke-width:0.49px;"/>
                            </g>
                        </g>
                    </g>
                </g>
                <g>
                    <g>
                        <g>
                            <g>
                                <path d="M408.893,771.945L402.613,771.945C402.015,771.945 401.53,772.429 401.53,773.028C401.53,773.626 402.015,774.111 402.613,774.111L408.893,774.111C409.491,774.111 409.976,773.626 409.976,773.028C409.976,772.429 409.491,771.945 408.893,771.945Z" style="fill:none;stroke:rgb(207,209,209);stroke-width:0.49px;"/>
                            </g>
                        </g>
                    </g>
                </g>
                <g>
                    <g>
                        <g>
                            <g>
                                <path d="M408.893,776.529L402.613,776.529C402.015,776.529 401.53,777.014 401.53,777.612C401.53,778.21 402.015,778.695 402.613,778.695L408.893,778.695C409.491,778.695 409.976,778.21 409.976,777.612C409.976,777.014 409.491,776.529 408.893,776.529Z" style="fill:none;stroke:rgb(207,209,209);stroke-width:0.49px;"/>
                            </g>
                        </g>
                    </g>
                </g>
            </g>
        </g>
    </g>
</svg>
