<?xml version="1.0" encoding="UTF-8" standalone="no"?>
<!DOCTYPE svg PUBLIC "-//W3C//DTD SVG 1.1//EN" "http://www.w3.org/Graphics/SVG/1.1/DTD/svg11.dtd">
<svg width="100%" height="100%" viewBox="0 0 38 34" version="1.1" xmlns="http://www.w3.org/2000/svg" xmlns:xlink="http://www.w3.org/1999/xlink" xml:space="preserve" xmlns:serif="http://www.serif.com/" style="fill-rule:evenodd;clip-rule:evenodd;stroke-linejoin:round;stroke-miterlimit:10;">
    <g transform="matrix(1,0,0,1,-9051.76,-6035.72)">
        <g transform="matrix(1,0,0,1,8670.61,4923.35)">
            <g id="Звуковая-карта" serif:id="Звуковая карта">
                <path d="M409.176,1124.94C408.577,1124.94 408.091,1125.43 408.091,1126.03L408.091,1132.54C408.091,1133.13 408.577,1133.62 409.176,1133.62C409.775,1133.62 410.261,1133.13 410.261,1132.54L410.261,1126.03C410.261,1125.43 409.775,1124.94 409.176,1124.94Z" style="fill:none;stroke:rgb(207,209,209);stroke-width:0.5px;"/>
                <path d="M417.329,1119.16L387.249,1119.16L387.249,1113.7C387.249,1113.1 386.763,1112.62 386.164,1112.62L382.476,1112.62C381.877,1112.62 381.392,1113.1 381.392,1113.7C381.392,1114.3 381.877,1114.78 382.476,1114.78L385.079,1114.78L385.079,1144.86C385.079,1145.46 385.565,1145.95 386.164,1145.95C386.763,1145.95 387.249,1145.46 387.249,1144.86L387.249,1139.4L417.329,1139.4C417.928,1139.4 418.413,1138.92 418.413,1138.32L418.413,1120.24C418.413,1119.64 417.928,1119.16 417.329,1119.16ZM416.244,1137.24L387.249,1137.24L387.249,1121.33L416.244,1121.33L416.244,1137.24Z" style="fill:none;stroke:rgb(207,209,209);stroke-width:0.5px;"/>
                <path d="M396.486,1125.31L390.701,1125.31C390.102,1125.31 389.617,1125.79 389.617,1126.39L389.617,1132.17C389.617,1132.77 390.102,1133.26 390.701,1133.26L396.486,1133.26C397.085,1133.26 397.57,1132.77 397.57,1132.17L397.57,1126.39C397.57,1125.79 397.085,1125.31 396.486,1125.31ZM395.401,1131.09L391.786,1131.09L391.786,1127.47L395.401,1127.47L395.401,1131.09Z" style="fill:none;stroke:rgb(207,209,209);stroke-width:0.5px;"/>
                <path d="M402.849,1125.67C400.856,1125.67 399.234,1127.29 399.234,1129.28C399.234,1131.28 400.856,1132.9 402.849,1132.9C404.843,1132.9 406.464,1131.28 406.464,1129.28C406.464,1127.29 404.843,1125.67 402.849,1125.67ZM402.849,1130.73C402.052,1130.73 401.403,1130.08 401.403,1129.28C401.403,1128.48 402.052,1127.84 402.849,1127.84C403.646,1127.84 404.295,1128.48 404.295,1129.28C404.295,1130.08 403.646,1130.73 402.849,1130.73Z" style="fill:none;stroke:rgb(207,209,209);stroke-width:0.5px;"/>
                <path d="M412.791,1124.94C412.192,1124.94 411.707,1125.43 411.707,1126.03L411.707,1132.54C411.707,1133.13 412.192,1133.62 412.791,1133.62C413.39,1133.62 413.876,1133.13 413.876,1132.54L413.876,1126.03C413.876,1125.43 413.39,1124.94 412.791,1124.94Z" style="fill:none;stroke:rgb(207,209,209);stroke-width:0.5px;"/>
            </g>
        </g>
    </g>
</svg>
