<?xml version="1.0" encoding="UTF-8" standalone="no"?>
<!DOCTYPE svg PUBLIC "-//W3C//DTD SVG 1.1//EN" "http://www.w3.org/Graphics/SVG/1.1/DTD/svg11.dtd">
<svg width="100%" height="100%" viewBox="0 0 37 31" version="1.1" xmlns="http://www.w3.org/2000/svg" xmlns:xlink="http://www.w3.org/1999/xlink" xml:space="preserve" xmlns:serif="http://www.serif.com/" style="fill-rule:evenodd;clip-rule:evenodd;stroke-linejoin:round;stroke-miterlimit:10;">
    <g transform="matrix(1,0,0,1,-9052.83,-6135.83)">
        <g transform="matrix(1,0,0,1,8670.61,4923.35)">
            <g id="WIFI">
                <path d="M407.355,1232.09C405.521,1230.28 402.893,1229.15 400.495,1229.15L400.391,1229.15C397.993,1229.15 395.364,1230.28 393.531,1232.09C392.978,1232.64 392.973,1233.53 393.521,1234.09C393.797,1234.37 394.16,1234.5 394.523,1234.5C394.881,1234.5 395.24,1234.37 395.515,1234.1C396.82,1232.8 398.734,1231.97 400.391,1231.97L400.495,1231.97C402.151,1231.97 404.066,1232.8 405.371,1234.1C405.924,1234.64 406.817,1234.64 407.364,1234.09C407.912,1233.53 407.908,1232.64 407.355,1232.09Z" style="fill:none;stroke:rgb(207,209,209);stroke-width:0.5px;"/>
                <path d="M400.438,1237.75C401.721,1237.75 402.763,1238.79 402.763,1240.07C402.763,1241.36 401.721,1242.4 400.438,1242.4C399.154,1242.4 398.112,1241.36 398.112,1240.07C398.112,1238.79 399.154,1237.75 400.438,1237.75Z" style="fill:none;stroke:rgb(207,209,209);stroke-width:0.5px;"/>
                <path d="M418.172,1220.43C413.54,1215.46 407.267,1212.73 400.508,1212.73C393.75,1212.73 387.476,1215.46 382.844,1220.43C382.313,1221 382.344,1221.9 382.914,1222.43C383.484,1222.96 384.375,1222.93 384.906,1222.36C389,1217.96 394.54,1215.55 400.508,1215.55C406.476,1215.55 412.016,1217.96 416.11,1222.36C416.388,1222.65 416.764,1222.81 417.141,1222.81C417.486,1222.81 417.831,1222.68 418.102,1222.43C418.672,1221.9 418.703,1221 418.172,1220.43Z" style="fill:none;stroke:rgb(207,209,209);stroke-width:0.5px;"/>
                <path d="M412.996,1226.26C409.572,1222.81 405.137,1220.9 400.508,1220.9C395.878,1220.9 391.443,1222.81 388.019,1226.26C387.471,1226.81 387.474,1227.7 388.027,1228.25C388.58,1228.8 389.472,1228.79 390.02,1228.24C392.91,1225.33 396.635,1223.73 400.508,1223.73C404.38,1223.72 408.104,1225.33 410.995,1228.24C411.271,1228.52 411.633,1228.66 411.996,1228.66C412.355,1228.66 412.714,1228.52 412.989,1228.25C413.542,1227.7 413.545,1226.81 412.996,1226.26Z" style="fill:none;stroke:rgb(207,209,209);stroke-width:0.5px;"/>
            </g>
        </g>
    </g>
</svg>
