<?xml version="1.0" encoding="UTF-8" standalone="no"?>
<!DOCTYPE svg PUBLIC "-//W3C//DTD SVG 1.1//EN" "http://www.w3.org/Graphics/SVG/1.1/DTD/svg11.dtd">
<svg width="100%" height="100%" viewBox="0 0 22 24" version="1.1" xmlns="http://www.w3.org/2000/svg" xmlns:xlink="http://www.w3.org/1999/xlink" xml:space="preserve" xmlns:serif="http://www.serif.com/" style="fill-rule:evenodd;clip-rule:evenodd;stroke-linejoin:round;stroke-miterlimit:10;">
    <g transform="matrix(1,0,0,1,-10068.2,-6125.84)">
        <g transform="matrix(1,0,0,1,8670.61,4923.35)">
            <g>
                <path d="M1411.56,1210.55C1411.02,1210.55 1410.58,1210.99 1410.58,1211.53L1410.58,1220.32C1410.58,1220.86 1411.02,1221.3 1411.56,1221.3C1412.1,1221.3 1412.53,1220.86 1412.53,1220.32L1412.53,1211.53C1412.53,1210.99 1412.1,1210.55 1411.56,1210.55Z" style="fill:none;stroke:rgb(255,47,0);stroke-width:0.5px;"/>
                <path d="M1418.39,1206.65L1413.51,1206.65L1413.51,1203.72C1413.51,1203.18 1413.07,1202.74 1412.53,1202.74L1404.72,1202.74C1404.18,1202.74 1403.74,1203.18 1403.74,1203.72L1403.74,1206.65L1398.86,1206.65C1398.32,1206.65 1397.88,1207.08 1397.88,1207.62C1397.88,1208.16 1398.32,1208.6 1398.86,1208.6L1399.83,1208.6L1399.83,1223.25C1399.83,1224.87 1401.15,1226.18 1402.77,1226.18L1414.49,1226.18C1416.1,1226.18 1417.42,1224.87 1417.42,1223.25L1417.42,1208.6L1418.39,1208.6C1418.93,1208.6 1419.37,1208.16 1419.37,1207.62C1419.37,1207.08 1418.93,1206.65 1418.39,1206.65ZM1415.46,1223.25C1415.46,1223.79 1415.03,1224.23 1414.49,1224.23L1402.77,1224.23C1402.23,1224.23 1401.79,1223.79 1401.79,1223.25L1401.79,1208.6L1415.46,1208.6L1415.46,1223.25ZM1405.69,1204.69L1411.56,1204.69L1411.56,1206.65L1405.69,1206.65L1405.69,1204.69Z" style="fill:none;stroke:rgb(255,47,0);stroke-width:0.5px;"/>
                <path d="M1405.69,1210.55C1405.15,1210.55 1404.72,1210.99 1404.72,1211.53L1404.72,1220.32C1404.72,1220.86 1405.15,1221.3 1405.69,1221.3C1406.24,1221.3 1406.67,1220.86 1406.67,1220.32L1406.67,1211.53C1406.67,1210.99 1406.24,1210.55 1405.69,1210.55Z" style="fill:none;stroke:rgb(255,47,0);stroke-width:0.5px;"/>
            </g>
        </g>
    </g>
</svg>
