<?xml version="1.0" encoding="UTF-8" standalone="no"?>
<!DOCTYPE svg PUBLIC "-//W3C//DTD SVG 1.1//EN" "http://www.w3.org/Graphics/SVG/1.1/DTD/svg11.dtd">
<svg width="100%" height="100%" viewBox="0 0 45 18" version="1.1" xmlns="http://www.w3.org/2000/svg" xmlns:xlink="http://www.w3.org/1999/xlink" xml:space="preserve" xmlns:serif="http://www.serif.com/" style="fill-rule:evenodd;clip-rule:evenodd;stroke-linejoin:round;stroke-miterlimit:10;">
    <g transform="matrix(1,0,0,1,-9048.99,-6094.05)">
        <g transform="matrix(1,0,0,1,8670.61,4923.35)">
            <g id="DVD">
                <path d="M385.919,1180.43C387.127,1180.43 388.107,1179.45 388.107,1178.24C388.107,1177.04 387.127,1176.06 385.919,1176.06C384.71,1176.06 383.73,1177.04 383.73,1178.24C383.73,1179.45 384.71,1180.43 385.919,1180.43ZM385.919,1177.51C386.322,1177.51 386.648,1177.84 386.648,1178.24C386.648,1178.65 386.322,1178.97 385.919,1178.97C385.516,1178.97 385.189,1178.65 385.189,1178.24C385.189,1177.84 385.516,1177.51 385.919,1177.51Z" style="fill:none;stroke:rgb(207,209,209);stroke-width:0.5px;"/>
                <path d="M397.59,1180.43L416.556,1180.43C416.959,1180.43 417.286,1180.11 417.286,1179.7L417.286,1176.78C417.286,1176.38 416.959,1176.06 416.556,1176.06L397.59,1176.06C397.187,1176.06 396.861,1176.38 396.861,1176.78L396.861,1179.7C396.861,1180.11 397.187,1180.43 397.59,1180.43ZM398.32,1177.51L415.827,1177.51L415.827,1178.97L398.32,1178.97L398.32,1177.51Z" style="fill:none;stroke:rgb(207,209,209);stroke-width:0.5px;"/>
                <path d="M421.662,1170.95L379.354,1170.95C378.951,1170.95 378.624,1171.28 378.624,1171.68L378.624,1184.81C378.624,1185.21 378.951,1185.54 379.354,1185.54L383.001,1185.54L383.001,1187.73L390.296,1187.73L390.296,1185.54L410.721,1185.54L410.721,1187.73L418.015,1187.73L418.015,1185.54L421.662,1185.54C422.065,1185.54 422.392,1185.21 422.392,1184.81L422.392,1171.68C422.392,1171.28 422.065,1170.95 421.662,1170.95ZM388.837,1186.27L384.46,1186.27L384.46,1185.54L388.837,1185.54L388.837,1186.27ZM416.556,1186.27L412.179,1186.27L412.179,1185.54L416.556,1185.54L416.556,1186.27ZM420.933,1184.08L380.083,1184.08L380.083,1172.41L420.933,1172.41L420.933,1184.08Z" style="fill:none;stroke:rgb(207,209,209);stroke-width:0.5px;"/>
                <rect x="389.566" y="1177.51" width="1.459" height="1.459" style="fill:none;stroke:rgb(207,209,209);stroke-width:0.2px;"/>
                <rect x="391.754" y="1177.51" width="1.459" height="1.459" style="fill:none;stroke:rgb(207,209,209);stroke-width:0.2px;"/>
                <rect x="393.943" y="1177.51" width="1.459" height="1.459" style="fill:none;stroke:rgb(207,209,209);stroke-width:0.2px;"/>
            </g>
        </g>
    </g>
</svg>
