<?xml version="1.0" encoding="UTF-8" standalone="no"?>
<!DOCTYPE svg PUBLIC "-//W3C//DTD SVG 1.1//EN" "http://www.w3.org/Graphics/SVG/1.1/DTD/svg11.dtd">
<svg width="100%" height="100%" viewBox="0 0 37 37" version="1.1" xmlns="http://www.w3.org/2000/svg" xmlns:xlink="http://www.w3.org/1999/xlink" xml:space="preserve" xmlns:serif="http://www.serif.com/" style="fill-rule:evenodd;clip-rule:evenodd;stroke-linejoin:round;stroke-miterlimit:10;">
    <g transform="matrix(1,0,0,1,-9051.39,-5854.94)">
        <g transform="matrix(1,0,0,1,8670.61,4923.35)">
            <g>
                <path d="M408.132,946.017C408.05,946.017 407.945,946.017 407.865,946.022C407.777,946.028 407.589,946.127 407.589,946.337L407.589,953.485C407.589,953.633 407.825,953.71 407.939,953.711C407.979,953.712 408.029,953.712 408.064,953.712C409.268,953.712 410.326,952.697 410.326,949.652C410.326,947.392 409.643,946.017 408.132,946.017Z" style="fill:none;stroke:rgb(207,209,209);stroke-width:0.5px;"/>
                <path d="M398.743,946.017C398.66,946.017 398.559,946.017 398.479,946.022C398.391,946.028 398.207,946.127 398.207,946.337L398.207,953.485C398.207,953.633 398.439,953.71 398.553,953.711C398.593,953.712 398.641,953.712 398.676,953.712C399.88,953.712 400.937,952.697 400.937,949.652C400.937,947.392 400.253,946.017 398.743,946.017Z" style="fill:none;stroke:rgb(207,209,209);stroke-width:0.5px;"/>
                <path d="M417.116,934.928C417.116,933.221 415.5,931.838 413.507,931.838L384.639,931.838C382.646,931.838 381.03,933.221 381.03,934.928L381.03,964.834C381.03,966.54 382.646,967.923 384.639,967.923L413.507,967.923C415.5,967.923 417.116,966.54 417.116,964.834L417.116,934.928ZM385.61,966.217C384.321,966.217 383.276,965.322 383.276,964.218C383.276,963.114 384.321,962.22 385.61,962.22C386.899,962.22 387.944,963.115 387.944,964.218C387.944,965.322 386.899,966.217 385.61,966.217ZM412.632,966.217C411.343,966.217 410.298,965.322 410.298,964.218C410.298,963.114 411.343,962.22 412.632,962.22C413.921,962.22 414.966,963.115 414.966,964.218C414.966,965.322 413.921,966.217 412.632,966.217ZM401.745,954.4C400.884,955.12 399.603,955.464 397.806,955.464C397.251,955.464 396.702,955.431 396.249,955.394C396.062,955.379 395.753,955.235 395.753,955.037L395.753,945.1C395.753,944.706 396.163,944.435 396.405,944.405C396.95,944.337 397.599,944.298 398.287,944.298C399.912,944.298 401.039,944.625 401.861,945.28C402.971,946.132 403.543,947.589 403.543,949.733C403.543,951.96 402.873,953.548 401.745,954.4ZM405.635,955.394C405.448,955.379 405.135,955.235 405.135,955.037L405.135,945.1C405.135,944.706 405.548,944.435 405.791,944.405C406.336,944.337 406.986,944.298 407.675,944.298C409.3,944.298 410.428,944.625 411.25,945.28C412.359,946.132 412.932,947.589 412.932,949.733C412.932,951.96 412.263,953.548 411.135,954.4C410.274,955.12 408.994,955.464 407.197,955.464C406.642,955.464 406.088,955.431 405.635,955.394ZM393.444,955.135C393.444,955.271 393.392,955.442 393.233,955.442L391.305,955.442C391.147,955.442 390.99,955.271 390.99,955.135L390.99,951.012C390.99,950.876 390.887,950.746 390.728,950.746L388.686,950.746C388.527,950.746 388.392,950.876 388.392,951.012L388.392,955.135C388.392,955.271 388.267,955.442 388.108,955.442L386.18,955.442C386.022,955.442 385.793,955.271 385.793,955.135L385.793,944.594C385.793,944.458 386.022,944.32 386.18,944.32L388.108,944.32C388.267,944.32 388.392,944.458 388.392,944.594L388.392,948.52C388.392,948.656 388.527,948.769 388.686,948.769L390.728,948.769C390.887,948.769 390.99,948.656 390.99,948.52L390.99,944.594C390.99,944.458 391.147,944.32 391.305,944.32L393.233,944.32C393.392,944.32 393.444,944.458 393.444,944.594L393.444,955.135ZM385.61,934.447C386.899,934.447 387.944,935.341 387.944,936.445C387.944,937.549 386.899,938.443 385.61,938.443C384.321,938.443 383.276,937.549 383.276,936.445C383.276,935.341 384.321,934.447 385.61,934.447ZM412.632,938.443C411.343,938.443 410.298,937.549 410.298,936.445C410.298,935.341 411.343,934.447 412.632,934.447C413.921,934.447 414.966,935.341 414.966,936.445C414.966,937.549 413.921,938.443 412.632,938.443Z" style="fill:none;stroke:rgb(207,209,209);stroke-width:0.5px;"/>
            </g>
        </g>
    </g>
</svg>
