<?xml version="1.0" encoding="UTF-8" standalone="no"?>
<!DOCTYPE svg PUBLIC "-//W3C//DTD SVG 1.1//EN" "http://www.w3.org/Graphics/SVG/1.1/DTD/svg11.dtd">
<svg width="100%" height="100%" viewBox="0 0 16 16" version="1.1" xmlns="http://www.w3.org/2000/svg" xmlns:xlink="http://www.w3.org/1999/xlink" xml:space="preserve" xmlns:serif="http://www.serif.com/" style="fill-rule:evenodd;clip-rule:evenodd;stroke-linejoin:round;stroke-miterlimit:10;">
    <g transform="matrix(1,0,0,1,-9357.7,-6136.92)">
        <g transform="matrix(1,0,0,1,8660.63,4926.3)">
            <g>
                <path d="M704.608,1210.62C700.45,1210.62 697.068,1214.01 697.068,1218.16C697.068,1222.32 700.45,1225.7 704.608,1225.7C708.765,1225.7 712.147,1222.32 712.147,1218.16C712.147,1214.01 708.765,1210.62 704.608,1210.62ZM704.608,1224.33C701.206,1224.33 698.439,1221.56 698.439,1218.16C698.439,1214.76 701.206,1212 704.608,1212C708.009,1212 710.776,1214.76 710.776,1218.16C710.776,1221.56 708.009,1224.33 704.608,1224.33Z" style="fill:rgb(181,181,181);"/>
                <path d="M704.608,1216.56C704.229,1216.56 703.922,1216.87 703.922,1217.25L703.922,1221.82C703.922,1222.2 704.229,1222.5 704.608,1222.5C704.986,1222.5 705.293,1222.2 705.293,1221.82L705.293,1217.25C705.293,1216.87 704.986,1216.56 704.608,1216.56Z" style="fill:none;stroke:rgb(181,181,181);stroke-width:0.5px;"/>
                <path d="M704.608,1213.82C704.427,1213.82 704.251,1213.9 704.123,1214.02C703.995,1214.15 703.922,1214.33 703.922,1214.51C703.922,1214.69 703.995,1214.87 704.123,1214.99C704.25,1215.12 704.427,1215.19 704.608,1215.19C704.788,1215.19 704.964,1215.12 705.092,1214.99C705.22,1214.87 705.293,1214.69 705.293,1214.51C705.293,1214.33 705.22,1214.15 705.092,1214.02C704.964,1213.9 704.788,1213.82 704.608,1213.82Z" style="fill:rgb(176,176,176);"/>
            </g>
        </g>
    </g>
</svg>
