<?xml version="1.0" encoding="UTF-8" standalone="no"?>
<!DOCTYPE svg PUBLIC "-//W3C//DTD SVG 1.1//EN" "http://www.w3.org/Graphics/SVG/1.1/DTD/svg11.dtd">
<svg width="100%" height="100%" viewBox="0 0 37 37" version="1.1" xmlns="http://www.w3.org/2000/svg" xmlns:xlink="http://www.w3.org/1999/xlink" xml:space="preserve" xmlns:serif="http://www.serif.com/" style="fill-rule:evenodd;clip-rule:evenodd;stroke-linejoin:round;stroke-miterlimit:10;">
    <g transform="matrix(1,0,0,1,-9051.39,-5565.08)">
        <g transform="matrix(1,0,0,1,8670.61,4923.35)">
            <path d="M416.058,658.26C416.642,658.26 417.116,657.786 417.116,657.202C417.116,656.618 416.642,656.145 416.058,656.145L411.407,656.145L411.407,652.621L416.058,652.621C416.642,652.621 417.116,652.148 417.116,651.564C417.116,650.98 416.642,650.507 416.058,650.507L411.407,650.507L411.407,649.802C411.407,648.636 410.458,647.688 409.292,647.688L408.587,647.688L408.587,643.036C408.587,642.452 408.114,641.979 407.53,641.979C406.947,641.979 406.473,642.452 406.473,643.036L406.473,647.688L402.949,647.688L402.949,643.036C402.949,642.452 402.476,641.979 401.892,641.979C401.308,641.979 400.835,642.452 400.835,643.036L400.835,647.688L397.311,647.688L397.311,643.036C397.311,642.452 396.838,641.979 396.254,641.979C395.67,641.979 395.197,642.452 395.197,643.036L395.197,647.688L391.673,647.688L391.673,643.036C391.673,642.452 391.199,641.979 390.615,641.979C390.031,641.979 389.558,642.452 389.558,643.036L389.558,647.688L388.853,647.688C387.687,647.688 386.739,648.636 386.739,649.802L386.739,650.507L382.087,650.507C381.504,650.507 381.03,650.98 381.03,651.564C381.03,652.148 381.504,652.621 382.087,652.621L386.739,652.621L386.739,656.145L382.087,656.145C381.504,656.145 381.03,656.618 381.03,657.202C381.03,657.786 381.504,658.26 382.087,658.26L386.739,658.26L386.739,661.784L382.087,661.784C381.504,661.784 381.03,662.257 381.03,662.841C381.03,663.425 381.504,663.898 382.087,663.898L386.739,663.898L386.739,667.422L382.087,667.422C381.504,667.422 381.03,667.895 381.03,668.479C381.03,669.063 381.504,669.536 382.087,669.536L386.739,669.536L386.739,670.241C386.739,671.407 387.687,672.355 388.853,672.355L389.558,672.355L389.558,677.007C389.558,677.591 390.031,678.064 390.615,678.064C391.199,678.064 391.673,677.591 391.673,677.007L391.673,672.355L395.197,672.355L395.197,677.007C395.197,677.591 395.67,678.064 396.254,678.064C396.838,678.064 397.311,677.591 397.311,677.007L397.311,672.355L400.835,672.355L400.835,677.007C400.835,677.591 401.308,678.064 401.892,678.064C402.476,678.064 402.949,677.591 402.949,677.007L402.949,672.355L406.473,672.355L406.473,677.007C406.473,677.591 406.947,678.064 407.53,678.064C408.114,678.064 408.587,677.591 408.587,677.007L408.587,672.355L409.292,672.355C410.458,672.355 411.407,671.407 411.407,670.241L411.407,669.536L416.058,669.536C416.642,669.536 417.116,669.063 417.116,668.479C417.116,667.895 416.642,667.422 416.058,667.422L411.407,667.422L411.407,663.898L416.058,663.898C416.642,663.898 417.116,663.425 417.116,662.841C417.116,662.257 416.642,661.784 416.058,661.784L411.407,661.784L411.407,658.26L416.058,658.26ZM409.292,670.241L388.853,670.241L388.853,649.802L409.292,649.802C409.294,670.809 409.299,670.241 409.292,670.241Z" style="fill:none;stroke:rgb(207,209,209);stroke-width:0.5px;"/>
        </g>
    </g>
</svg>
