<?xml version="1.0" encoding="UTF-8" standalone="no"?>
<!DOCTYPE svg PUBLIC "-//W3C//DTD SVG 1.1//EN" "http://www.w3.org/Graphics/SVG/1.1/DTD/svg11.dtd">
<svg width="100%" height="100%" viewBox="0 0 40 21" version="1.1" xmlns="http://www.w3.org/2000/svg" xmlns:xlink="http://www.w3.org/1999/xlink" xml:space="preserve" xmlns:serif="http://www.serif.com/" style="fill-rule:evenodd;clip-rule:evenodd;stroke-linejoin:round;stroke-miterlimit:10;">
    <g transform="matrix(1,0,0,1,-9050.05,-5626.21)">
        <g transform="matrix(1,0,0,1,8670.61,4923.35)">
            <g id="оперативная-память" serif:id="оперативная память">
                <g>
                    <g>
                        <g>
                            <g>
                                <path d="M417.364,711.413C417.993,711.413 418.503,710.903 418.503,710.274L418.503,704.203C418.503,703.574 417.993,703.064 417.364,703.064L380.782,703.064C380.153,703.064 379.643,703.574 379.643,704.203L379.643,710.274C379.643,710.903 380.153,711.413 380.782,711.413C381.828,711.413 382.679,712.264 382.679,713.31C382.679,714.357 381.828,715.208 380.782,715.208C380.153,715.208 379.643,715.717 379.643,716.346L379.643,722.418C379.643,723.047 380.153,723.556 380.782,723.556L389.206,723.556C389.835,723.556 390.345,723.047 390.345,722.418L390.345,720.52L392.622,720.52L392.622,722.418C392.622,723.047 393.131,723.556 393.76,723.556L417.364,723.556C417.993,723.556 418.503,723.047 418.503,722.418L418.503,716.346C418.503,715.717 417.993,715.208 417.364,715.208C416.318,715.208 415.467,714.357 415.467,713.31C415.467,712.264 416.318,711.413 417.364,711.413ZM416.226,717.327L416.226,721.28L414.569,721.28L414.569,719.382C414.569,718.753 414.059,718.244 413.43,718.244C412.801,718.244 412.292,718.753 412.292,719.382L412.292,721.28L410.634,721.28L410.634,719.382C410.634,718.753 410.125,718.244 409.496,718.244C408.867,718.244 408.358,718.753 408.358,719.382L408.358,721.28L406.701,721.28L406.701,719.382C406.701,718.753 406.191,718.244 405.562,718.244C404.933,718.244 404.424,718.753 404.424,719.382L404.424,721.28L402.767,721.28L402.767,719.382C402.767,718.753 402.257,718.244 401.628,718.244C400.999,718.244 400.49,718.753 400.49,719.382L400.49,721.28L398.833,721.28L398.833,719.382C398.833,718.753 398.323,718.244 397.694,718.244C397.065,718.244 396.556,718.753 396.556,719.382L396.556,721.28L394.899,721.28L394.899,719.382C394.899,718.753 394.389,718.244 393.76,718.244L389.206,718.244C388.577,718.244 388.068,718.753 388.068,719.382L388.068,721.28L386.398,721.28L386.398,719.382C386.398,718.753 385.888,718.244 385.26,718.244C384.631,718.244 384.121,718.753 384.121,719.382L384.121,721.28L381.92,721.28L381.92,717.327C383.67,716.83 384.956,715.218 384.956,713.31C384.956,711.403 383.67,709.791 381.92,709.294L381.92,705.341L416.226,705.341L416.226,709.294C414.475,709.791 413.19,711.403 413.19,713.31C413.19,715.218 414.475,716.83 416.226,717.327Z" style="fill:none;stroke:rgb(207,209,209);stroke-width:0.41px;"/>
                            </g>
                        </g>
                    </g>
                </g>
                <g>
                    <g>
                        <g>
                            <g>
                                <path d="M410.533,706.859L387.612,706.859C386.984,706.859 386.474,707.369 386.474,707.998L386.474,715.587C386.474,716.216 386.984,716.726 387.612,716.726L410.533,716.726C411.162,716.726 411.672,716.216 411.672,715.587L411.672,707.998C411.672,707.369 411.162,706.859 410.533,706.859ZM401.755,714.449L396.391,714.449L396.391,709.136L401.755,709.136L401.755,714.449ZM409.395,714.449L404.031,714.449L404.031,709.136L409.395,709.136L409.395,714.449ZM394.114,714.449L388.751,714.449L388.751,709.136L394.114,709.136L394.114,714.449Z" style="fill:none;stroke:rgb(207,209,209);stroke-width:0.41px;"/>
                            </g>
                        </g>
                    </g>
                </g>
            </g>
        </g>
    </g>
</svg>
