<?xml version="1.0" encoding="UTF-8" standalone="no"?>
<!DOCTYPE svg PUBLIC "-//W3C//DTD SVG 1.1//EN" "http://www.w3.org/Graphics/SVG/1.1/DTD/svg11.dtd">
<svg width="100%" height="100%" viewBox="0 0 37 37" version="1.1" xmlns="http://www.w3.org/2000/svg" xmlns:xlink="http://www.w3.org/1999/xlink" xml:space="preserve" xmlns:serif="http://www.serif.com/" style="fill-rule:evenodd;clip-rule:evenodd;stroke-linejoin:round;stroke-miterlimit:10;">
    <g transform="matrix(1,0,0,1,-9051.39,-5732.74)">
        <g transform="matrix(1,0,0,1,8670.61,4923.35)">
            <g id="ssd">
                <path d="M415.001,809.642L383.145,809.642C381.979,809.642 381.03,810.59 381.03,811.756L381.03,843.613C381.03,844.779 381.979,845.727 383.145,845.727L415.001,845.727C416.167,845.727 417.116,844.779 417.116,843.613L417.116,811.756C417.116,810.59 416.167,809.642 415.001,809.642ZM415.001,843.613L383.145,843.613L383.145,811.756L415.001,811.756C415.002,844.296 415.008,843.613 415.001,843.613Z" style="fill:none;stroke:rgb(207,209,209);stroke-width:0.5px;"/>
                <path d="M412.253,827.636C412.253,824.672 410.563,822.68 408.047,822.68L405.839,822.68C405.255,822.68 404.781,823.155 404.782,823.74C404.79,828.124 404.784,827.797 404.798,831.538C404.8,832.121 405.273,832.591 405.855,832.591C406.067,832.591 407.597,832.583 408.13,832.574C410.519,832.532 412.253,830.455 412.253,827.636ZM408.093,830.46C407.819,830.465 407.348,830.469 406.908,830.471C406.901,828.176 406.903,827.843 406.898,824.795L408.047,824.795C409.987,824.795 410.138,826.969 410.138,827.636C410.138,829.024 409.506,830.435 408.093,830.46Z" style="fill:none;stroke:rgb(207,209,209);stroke-width:0.5px;"/>
                <path d="M386.875,816.317C387.444,816.198 387.815,815.661 387.705,815.074C387.573,814.441 386.947,814.094 386.361,814.269C385.81,814.449 385.535,814.967 385.632,815.487C385.75,816.059 386.291,816.426 386.875,816.317Z" style="fill:none;stroke:rgb(207,209,209);stroke-width:0.5px;"/>
                <path d="M411.784,816.292C412.345,816.108 412.609,815.584 412.514,815.074C412.381,814.44 411.756,814.094 411.17,814.269C410.567,814.465 410.309,815.06 410.466,815.587C410.633,816.133 411.208,816.463 411.784,816.292Z" style="fill:none;stroke:rgb(207,209,209);stroke-width:0.5px;"/>
                <path d="M411.17,839.077C410.567,839.274 410.309,839.869 410.466,840.396C410.633,840.942 411.208,841.272 411.785,841.1C412.338,840.919 412.611,840.4 412.514,839.882C412.381,839.249 411.756,838.903 411.17,839.077Z" style="fill:none;stroke:rgb(207,209,209);stroke-width:0.5px;"/>
                <path d="M386.361,839.077C385.754,839.275 385.502,839.873 385.657,840.396C385.856,841.005 386.453,841.256 386.976,841.1C387.537,840.916 387.801,840.392 387.705,839.882C387.574,839.254 386.952,838.901 386.361,839.077Z" style="fill:none;stroke:rgb(207,209,209);stroke-width:0.5px;"/>
                <path d="M391.096,826.826C390.118,826.465 389.207,826.073 388.918,825.946C388.601,825.684 388.684,825.076 389.347,824.876C390.462,824.54 391.501,825.369 391.512,825.378C391.511,825.377 391.512,825.377 391.512,825.377C392.192,825.949 393.248,825.47 393.248,824.568C393.248,824.228 393.088,823.927 392.839,823.734C392.604,823.545 390.849,822.215 388.738,822.852C386.315,823.581 385.932,826.528 387.815,827.756C388.099,827.941 390.026,828.685 390.364,828.81C390.629,828.908 391.486,829.271 391.383,829.845C391.307,830.272 390.781,830.715 390.032,830.715C389.248,830.715 388.495,830.399 388.016,829.871C387.624,829.438 386.955,829.405 386.522,829.797C386.09,830.189 386.057,830.858 386.449,831.291C387.335,832.268 388.641,832.829 390.032,832.829C393.659,832.829 395.111,828.307 391.096,826.826Z" style="fill:none;stroke:rgb(207,209,209);stroke-width:0.5px;"/>
                <path d="M400.532,825.378C400.531,825.378 400.53,825.377 400.527,825.375C400.525,825.38 400.53,825.377 400.532,825.378Z" style="fill:none;stroke:rgb(207,209,209);stroke-width:0.5px;"/>
                <path d="M400.117,826.826C399.139,826.465 398.228,826.073 397.939,825.946C397.622,825.684 397.706,825.076 398.369,824.876C399.483,824.54 400.522,825.369 400.533,825.378C400.533,825.377 400.533,825.377 400.533,825.377C401.213,825.949 402.269,825.47 402.269,824.568C402.269,824.228 402.109,823.927 401.86,823.734C401.626,823.545 399.871,822.215 397.759,822.852C395.337,823.581 394.954,826.528 396.836,827.756C397.121,827.941 399.047,828.685 399.385,828.81C399.65,828.908 400.507,829.271 400.405,829.845C400.328,830.272 399.802,830.715 399.053,830.715C398.27,830.715 397.516,830.399 397.037,829.871C396.645,829.438 395.977,829.405 395.544,829.797C395.111,830.189 395.078,830.858 395.47,831.291C396.356,832.268 397.662,832.829 399.053,832.829C402.681,832.829 404.133,828.307 400.117,826.826Z" style="fill:none;stroke:rgb(207,209,209);stroke-width:0.5px;"/>
            </g>
        </g>
    </g>
</svg>
