<?xml version="1.0" encoding="UTF-8" standalone="no"?>
<!DOCTYPE svg PUBLIC "-//W3C//DTD SVG 1.1//EN" "http://www.w3.org/Graphics/SVG/1.1/DTD/svg11.dtd">
<svg width="100%" height="100%" viewBox="0 0 37 37" version="1.1" xmlns="http://www.w3.org/2000/svg" xmlns:xlink="http://www.w3.org/1999/xlink" xml:space="preserve" xmlns:serif="http://www.serif.com/" style="fill-rule:evenodd;clip-rule:evenodd;stroke-linejoin:round;stroke-miterlimit:10;">
    <g transform="matrix(1,0,0,1,-9051.39,-5504)">
        <g transform="matrix(1,0,0,1,8670.61,4923.35)">
            <g id="видеокарта">
                <path d="M403.302,606.337C408.56,606.337 412.816,602.081 412.816,596.822C412.816,591.563 408.561,587.307 403.302,587.307C398.043,587.307 393.787,591.563 393.787,596.822C393.787,602.08 398.043,606.337 403.302,606.337ZM403.302,602.108C403.302,601.55 403.662,600.611 403.99,599.918C404.069,599.901 404.148,599.881 404.225,599.857C404.531,600.597 404.981,601.491 405.544,602.055C405.971,602.481 406.587,602.843 407.182,603.126C406.205,603.73 405.101,604.096 403.941,604.195C403.627,603.514 403.302,602.638 403.302,602.108ZM401.599,599.498C401.667,599.541 401.737,599.583 401.808,599.622C401.502,600.36 401.187,601.311 401.187,602.108C401.187,602.711 401.368,603.403 401.588,604.023C400.471,603.76 399.431,603.238 398.542,602.488C398.791,601.814 399.182,600.942 399.564,600.56C399.958,600.165 400.877,599.755 401.599,599.498ZM408.967,601.583C408.264,601.324 407.414,600.935 407.039,600.56C406.645,600.165 406.235,599.246 405.977,598.525C406.021,598.456 406.063,598.387 406.101,598.315C406.84,598.622 407.791,598.936 408.587,598.936C409.191,598.936 409.882,598.756 410.503,598.535C410.239,599.653 409.717,600.693 408.967,601.583ZM400.205,597.51C400.223,597.589 400.243,597.668 400.266,597.746C399.527,598.051 398.632,598.501 398.069,599.064C397.642,599.491 397.281,600.107 396.998,600.702C396.394,599.726 396.028,598.622 395.929,597.463C396.582,597.163 397.475,596.822 398.016,596.822C398.573,596.822 399.513,597.182 400.205,597.51ZM402.554,596.074C402.754,595.875 403.019,595.765 403.302,595.765C403.584,595.765 403.849,595.875 404.049,596.074C404.249,596.274 404.359,596.539 404.359,596.822C404.359,597.104 404.249,597.37 404.049,597.569C403.849,597.769 403.584,597.879 403.302,597.879C403.019,597.879 402.754,597.769 402.554,597.569C402.354,597.37 402.244,597.104 402.244,596.822C402.244,596.539 402.354,596.274 402.554,596.074ZM406.398,596.134C406.38,596.054 406.361,595.976 406.337,595.898C407.076,595.593 407.971,595.143 408.534,594.579C408.961,594.153 409.322,593.536 409.605,592.941C410.209,593.918 410.575,595.022 410.674,596.181C410.021,596.481 409.128,596.822 408.587,596.822C408.03,596.822 407.09,596.462 406.398,596.134ZM397.636,592.061C398.339,592.32 399.189,592.709 399.564,593.084C399.958,593.478 400.368,594.397 400.626,595.119C400.582,595.187 400.54,595.257 400.502,595.329C399.763,595.022 398.812,594.707 398.016,594.707C397.413,594.707 396.721,594.888 396.1,595.108C396.364,593.991 396.886,592.951 397.636,592.061ZM407.039,593.084C406.645,593.478 405.726,593.888 405.005,594.146C404.936,594.102 404.866,594.06 404.795,594.022C405.102,593.284 405.416,592.333 405.416,591.536C405.416,590.933 405.236,590.241 405.015,589.62C406.133,589.884 407.172,590.406 408.062,591.156C407.812,591.83 407.421,592.702 407.039,593.084ZM403.302,591.536C403.302,592.094 402.942,593.033 402.614,593.726C402.534,593.743 402.455,593.763 402.378,593.786C402.072,593.047 401.622,592.152 401.059,591.589C400.632,591.163 400.016,590.801 399.421,590.518C400.398,589.914 401.502,589.548 402.662,589.449C402.976,590.13 403.302,591.006 403.302,591.536Z" style="fill:none;stroke:rgb(207,209,209);stroke-width:0.5px;"/>
                <rect x="389.558" y="587.307" width="2.114" height="2.114" style="fill:none;stroke:rgb(207,209,209);stroke-width:0.5px;"/>
                <rect x="389.558" y="591.536" width="2.114" height="14.801" style="fill:none;stroke:rgb(207,209,209);stroke-width:0.5px;"/>
                <path d="M387.373,580.894L384.202,580.894C382.453,580.894 381.03,582.316 381.03,584.065L381.03,613.807C381.03,615.556 382.453,616.979 384.202,616.979L387.373,616.979L387.373,610.565L389.558,610.565L389.558,614.864L406.473,614.864L406.473,611.622C406.473,611.04 406.947,610.565 407.53,610.565C408.113,610.565 408.587,611.04 408.587,611.622L408.587,614.864L414.931,614.864L414.931,610.565L417.116,610.565L417.116,583.008L387.373,583.008L387.373,580.894ZM385.259,614.864L384.202,614.864C383.619,614.864 383.145,614.39 383.145,613.807L383.145,584.065C383.145,583.482 383.619,583.008 384.202,583.008L385.259,583.008L385.259,614.864ZM412.816,612.75L410.702,612.75L410.702,610.565L412.816,610.565L412.816,612.75ZM391.673,610.565L404.359,610.565L404.359,612.75L391.673,612.75L391.673,610.565ZM415.001,585.122L415.001,608.451L387.373,608.451L387.373,585.122L415.001,585.122Z" style="fill:none;stroke:rgb(207,209,209);stroke-width:0.5px;"/>
            </g>
        </g>
    </g>
</svg>
