<?xml version="1.0" encoding="UTF-8" standalone="no"?>
<!DOCTYPE svg PUBLIC "-//W3C//DTD SVG 1.1//EN" "http://www.w3.org/Graphics/SVG/1.1/DTD/svg11.dtd">
<svg width="100%" height="100%" viewBox="0 0 80 80" version="1.1" xmlns="http://www.w3.org/2000/svg" xmlns:xlink="http://www.w3.org/1999/xlink" xml:space="preserve" xmlns:serif="http://www.serif.com/" style="fill-rule:evenodd;clip-rule:evenodd;stroke-linecap:round;stroke-linejoin:round;stroke-miterlimit:1.5;">
    <g transform="matrix(1,0,0,1,-8545.44,-2773.09)">
        <g transform="matrix(0.609375,0,0,0.0911916,7999.2,2523.29)">
            <g id="значки" transform="matrix(1.00134,0,0,1,0,0)">
                <g transform="matrix(1.63884,0,0,10.9659,-9.53711,-317.774)">
                    <circle cx="591.601" cy="318.317" r="37.357" style="fill:rgb(183,19,19);stroke:rgb(183,19,19);stroke-width:4.37px;"/>
                </g>
                <g id="_001-opened-white-box" serif:id="001-opened-white-box" transform="matrix(0.213144,0,0,1.42621,958.029,3172.86)">
                    <g transform="matrix(1,0,0,1,-233.241,-233.241)">
                        <clipPath id="_clip1">
                            <rect x="0" y="0" width="466.482" height="466.482"/>
                        </clipPath>
                        <g clip-path="url(#_clip1)">
                            <g>
                                <path d="M233.824,148.642L126.673,119.94C122.308,118.753 117.878,121.362 116.715,125.687C115.553,130.02 118.129,134.482 122.462,135.644L229.613,164.346C230.32,164.533 231.027,164.622 231.718,164.622C235.311,164.622 238.595,162.224 239.562,158.599C240.741,154.259 238.164,149.796 233.824,148.642Z" style="fill:rgb(1,0,2);fill-rule:nonzero;"/>
                                <path d="M257.795,160.591C258.096,160.168 258.348,159.705 258.73,159.347C258.356,159.713 258.104,160.168 257.795,160.591Z" style="fill:rgb(1,0,2);fill-rule:nonzero;"/>
                                <path d="M256.933,161.867C256.746,162.282 256.697,162.745 256.583,163.2C256.697,162.753 256.746,162.29 256.933,161.867Z" style="fill:rgb(1,0,2);fill-rule:nonzero;"/>
                                <path d="M261.42,157.665C260.835,157.884 260.355,158.25 259.851,158.592C260.355,158.258 260.835,157.892 261.42,157.665Z" style="fill:rgb(1,0,2);fill-rule:nonzero;"/>
                                <path d="M256.616,398.588C255.169,394.337 257.437,389.72 261.688,388.273L272.442,384.607L272.442,170.996L266.98,172.89C262.721,174.369 258.104,172.118 256.64,167.875C256.307,166.908 256.209,165.924 256.242,164.957C256.242,165.046 256.193,165.128 256.193,165.217L256.193,385.51L86.729,342.265L86.729,121.355L82.762,122.656L70.472,133.711L70.472,348.574C70.472,352.289 72.992,355.524 76.593,356.451L262.315,403.841C262.982,404.012 263.656,404.093 264.323,404.093C260.924,404.099 257.762,401.969 256.616,398.588Z" style="fill:rgb(1,0,2);fill-rule:nonzero;"/>
                                <path d="M264.306,404.099C265.208,404.099 266.094,403.953 266.94,403.66L266.932,403.66C266.062,403.961 265.176,404.099 264.306,404.099Z" style="fill:rgb(1,0,2);fill-rule:nonzero;"/>
                                <path d="M74.032,108.918C74.585,108.536 75.137,108.146 75.772,107.91C75.121,108.145 74.585,108.528 74.032,108.918Z" style="fill:rgb(1,0,2);fill-rule:nonzero;"/>
                                <path d="M414.823,111.429C414.725,111.258 414.555,111.161 414.449,111.006C415.246,112.193 415.806,113.55 415.888,115.054C416.075,118.663 413.848,121.971 410.434,123.15L404.061,125.361L446.435,199.364L330.245,239.609L297.771,192.78C295.21,189.106 290.138,188.171 286.456,190.74C282.766,193.292 281.855,198.365 284.408,202.055L320.393,253.948C321.946,256.175 324.465,257.443 327.075,257.443C327.961,257.443 328.863,257.305 329.733,256.996L395.144,234.334L395.144,222.913C395.144,218.418 398.786,214.784 403.273,214.784C407.76,214.784 411.402,218.417 411.402,222.913L411.402,228.701L461.019,211.517C463.303,210.72 465.124,208.956 465.969,206.681C466.814,204.421 466.611,201.893 465.408,199.788L414.823,111.429Z" style="fill:rgb(1,0,2);fill-rule:nonzero;"/>
                                <path d="M412.384,108.845C412.66,109.04 412.888,109.276 413.132,109.495C412.88,109.275 412.652,109.031 412.384,108.845Z" style="fill:rgb(1,0,2);fill-rule:nonzero;"/>
                                <path d="M409.775,107.617C410.019,107.682 410.23,107.82 410.466,107.902C410.222,107.82 410.019,107.682 409.775,107.617Z" style="fill:rgb(1,0,2);fill-rule:nonzero;"/>
                                <path d="M395.151,342.761L272.434,384.607L272.434,395.963C272.434,398.475 271.272,400.848 269.288,402.385C268.573,402.938 267.776,403.36 266.939,403.653L405.897,356.263C409.189,355.141 411.4,352.044 411.4,348.573L411.4,228.7L395.143,234.333L395.143,342.76L395.151,342.76L395.151,342.761Z" style="fill:rgb(1,0,2);fill-rule:nonzero;"/>
                                <path d="M272.434,395.97L272.434,384.614L261.68,388.28C257.429,389.727 255.161,394.344 256.608,398.595C257.762,401.977 260.916,404.106 264.298,404.106C265.168,404.106 266.054,403.968 266.924,403.667L266.932,403.667C267.769,403.383 268.566,402.96 269.281,402.399C271.272,400.847 272.434,398.474 272.434,395.97Z" style="fill:rgb(1,0,2);fill-rule:nonzero;"/>
                                <path d="M403.28,214.784C398.793,214.784 395.151,218.417 395.151,222.913L395.151,234.334L411.408,228.701L411.408,222.913C411.409,218.418 407.767,214.784 403.28,214.784Z" style="fill:rgb(1,0,2);fill-rule:nonzero;"/>
                                <path d="M413.132,109.503C413.62,109.942 414.067,110.438 414.449,111.007C414.067,110.438 413.636,109.95 413.132,109.503Z" style="fill:rgb(1,0,2);fill-rule:nonzero;"/>
                                <path d="M74.032,108.918C73.747,109.113 73.406,109.202 73.154,109.43L2.696,172.808C-0.206,175.409 -0.848,179.725 1.176,183.058C2.688,185.553 5.354,186.976 8.134,186.976C9.077,186.976 10.036,186.805 10.971,186.472L54.061,170.426C58.272,168.857 60.409,164.183 58.841,159.973C57.272,155.754 52.59,153.641 48.388,155.185L45.34,156.323L70.474,133.717L70.474,115.468C70.455,112.706 71.927,110.381 74.032,108.918Z" style="fill:rgb(1,0,2);fill-rule:nonzero;"/>
                                <path d="M410.466,107.902C411.141,108.138 411.791,108.43 412.384,108.845C411.799,108.438 411.148,108.145 410.466,107.902Z" style="fill:rgb(1,0,2);fill-rule:nonzero;"/>
                                <path d="M86.713,115.469L86.713,121.362L216.006,78.931L378.577,116.989L261.64,157.543C261.559,157.567 261.502,157.641 261.421,157.673C262.323,157.332 263.282,157.096 264.299,157.096C268.786,157.096 272.428,160.729 272.428,165.225L272.428,171.004L404.054,125.362L400.705,119.518C398.478,115.624 399.827,110.65 403.721,108.423C405.631,107.342 407.793,107.131 409.769,107.626C409.712,107.61 409.671,107.577 409.615,107.561L217.485,62.585C216.03,62.252 214.51,62.317 213.096,62.772L76.048,107.747C75.942,107.78 75.869,107.869 75.763,107.91C76.649,107.577 77.584,107.341 78.584,107.341C83.079,107.341 86.713,110.974 86.713,115.469Z" style="fill:rgb(1,0,2);fill-rule:nonzero;"/>
                                <path d="M258.73,159.347C259.055,159.038 259.478,158.843 259.852,158.591C259.477,158.843 259.055,159.038 258.73,159.347Z" style="fill:rgb(1,0,2);fill-rule:nonzero;"/>
                                <path d="M256.226,164.956C256.242,164.338 256.429,163.777 256.584,163.2C256.429,163.786 256.25,164.346 256.226,164.956Z" style="fill:rgb(1,0,2);fill-rule:nonzero;"/>
                                <path d="M257.795,160.591C257.494,161.014 257.145,161.396 256.933,161.867C257.153,161.396 257.502,161.014 257.795,160.591Z" style="fill:rgb(1,0,2);fill-rule:nonzero;"/>
                                <path d="M86.713,121.354L86.713,115.461C86.713,110.966 83.071,107.332 78.584,107.332C77.584,107.332 76.649,107.568 75.763,107.901C75.129,108.137 74.576,108.527 74.023,108.909C71.918,110.38 70.455,112.697 70.455,115.461L70.455,133.71L82.745,122.655L86.713,121.354Z" style="fill:rgb(1,0,2);fill-rule:nonzero;"/>
                                <path d="M264.306,157.088C263.282,157.088 262.323,157.324 261.428,157.665C260.843,157.893 260.355,158.25 259.859,158.592C259.485,158.844 259.071,159.039 258.737,159.348C258.355,159.714 258.103,160.169 257.802,160.592C257.501,161.015 257.16,161.397 256.94,161.868C256.753,162.291 256.704,162.754 256.59,163.201C256.436,163.778 256.257,164.339 256.232,164.957C256.199,165.924 256.289,166.908 256.63,167.875C258.101,172.118 262.718,174.37 266.97,172.89L272.432,170.996L272.432,165.217C272.434,160.721 268.793,157.088 264.306,157.088Z" style="fill:rgb(1,0,2);fill-rule:nonzero;"/>
                                <path d="M403.727,108.414C399.833,110.641 398.484,115.616 400.711,119.51L404.06,125.354L410.433,123.143C413.847,121.956 416.074,118.656 415.887,115.047C415.806,113.543 415.245,112.194 414.448,110.999C414.066,110.43 413.627,109.934 413.131,109.495C412.887,109.267 412.651,109.032 412.383,108.845C411.79,108.439 411.139,108.138 410.465,107.902C410.229,107.821 410.026,107.683 409.774,107.617C407.799,107.113 405.637,107.324 403.727,108.414Z" style="fill:rgb(1,0,2);fill-rule:nonzero;"/>
                            </g>
                        </g>
                    </g>
                </g>
            </g>
        </g>
    </g>
</svg>
