<svg xmlns="http://www.w3.org/2000/svg" width="25" height="25" viewBox="0 0 25 25"><g><g><g><path fill="#cfd1d1" d="M24.46 12.916c0 3.313-.014 3.729-.073 5.03-.06 1.298-.265 2.185-.567 2.96a6.236 6.236 0 0 1-3.568 3.568c-.776.302-1.662.508-2.96.567-1.302.06-1.717.074-5.03.074s-3.728-.014-5.03-.074c-1.298-.059-2.185-.265-2.96-.567a5.975 5.975 0 0 1-2.161-1.407 5.978 5.978 0 0 1-1.407-2.16c-.302-.776-.508-1.663-.567-2.961-.06-1.301-.074-1.717-.074-5.03s.014-3.728.074-5.03c.059-1.297.265-2.184.566-2.96a5.983 5.983 0 0 1 1.408-2.16c.609-.621 1.346-1.102 2.16-1.408.776-.301 1.663-.507 2.961-.567C8.533.732 8.95.718 12.262.718s3.728.014 5.03.073c1.298.06 2.184.265 2.96.567a5.985 5.985 0 0 1 2.16 1.407 5.98 5.98 0 0 1 1.408 2.16c.301.777.508 1.664.567 2.962.06 1.3.073 1.716.073 5.03zm-2.198 0c0-3.257-.012-3.643-.07-4.929-.055-1.19-.254-1.835-.421-2.265a3.779 3.779 0 0 0-.912-1.403 3.78 3.78 0 0 0-1.403-.912c-.43-.167-1.076-.366-2.265-.42-1.286-.059-1.672-.071-4.93-.071-3.256 0-3.642.012-4.928.07-1.19.055-1.836.254-2.266.421-.53.195-1.009.507-1.402.912a3.786 3.786 0 0 0-.913 1.403c-.167.43-.365 1.076-.42 2.265-.059 1.286-.07 1.672-.07 4.93 0 3.257.011 3.643.07 4.929.054 1.19.253 1.835.42 2.265a3.78 3.78 0 0 0 .913 1.402 3.78 3.78 0 0 0 1.402.913c.43.167 1.076.366 2.265.42 1.287.059 1.672.071 4.93.071 3.257 0 3.643-.012 4.929-.071 1.19-.054 1.835-.253 2.265-.42a4.04 4.04 0 0 0 2.315-2.315c.167-.43.366-1.076.42-2.265.059-1.287.071-1.672.071-4.93z"/></g><g><path fill="#cfd1d1" d="M20.237 6.405a1.464 1.464 0 1 1-2.927 0 1.464 1.464 0 0 1 2.927 0z"/></g><g><path fill="#cfd1d1" d="M18.526 12.916a6.264 6.264 0 1 1-12.528 0 6.264 6.264 0 0 1 12.528 0zm-2.198 0a4.066 4.066 0 1 0-8.132 0 4.066 4.066 0 0 0 8.132 0z"/></g></g></g></svg>