<svg xmlns="http://www.w3.org/2000/svg" width="32" height="19" viewBox="0 0 32 19"><g><g><path fill="#cfd1d1" d="M26.486 11.004c-.501-.633-.358-.915 0-1.48.006-.007 4.144-5.724 4.57-7.662l.002-.002c.212-.706 0-1.226-1.024-1.226h-3.39c-.862 0-1.26.446-1.473.944 0 0-1.726 4.131-4.167 6.809-.788.774-1.152 1.022-1.582 1.022-.212 0-.541-.248-.541-.955V1.86c0-.847-.242-1.226-.956-1.226h-5.33c-.541 0-.863.396-.863.764 0 .803 1.221.988 1.348 3.248v4.905c0 1.075-.195 1.272-.628 1.272-1.152 0-3.949-4.147-5.606-8.894-.334-.921-.661-1.293-1.53-1.293H1.924C.957.636.762 1.08.762 1.58c0 .88 1.152 5.26 5.358 11.048 2.803 3.95 6.75 6.09 10.341 6.09 2.159 0 2.422-.475 2.422-1.293 0-3.775-.195-4.131.886-4.131.501 0 1.364.248 3.38 2.153 2.302 2.26 2.68 3.27 3.97 3.27h3.39c.965 0 1.455-.474 1.173-1.412-.644-1.973-5-6.03-5.196-6.301z"/></g></g></svg>