<svg xmlns="http://www.w3.org/2000/svg" width="75" height="63" viewBox="0 0 75 63"><g><g><g><path fill="#b71313" d="M74.722 23.622v14.819c-.008 6.135-4.979 11.107-11.114 11.114h-1.235v12.348a1.235 1.235 0 0 1-2.108.874L47.043 49.555h-6.898c-6.135-.007-11.106-4.979-11.114-11.114v-1.235h-3.193L15.086 47.958a1.235 1.235 0 0 1-2.108-.873v-9.88h-1.235C5.608 37.2.637 32.228.63 26.093V11.274C.637 5.139 5.608.167 11.743.16h23.463C41.34.167 46.312 5.139 46.32 11.274v1.235h17.288c6.135.007 11.106 4.978 11.114 11.113zm-45.69 11.114V23.622c.007-6.135 4.978-11.106 11.113-11.113h3.705v-1.235a8.654 8.654 0 0 0-8.644-8.644H11.743A8.654 8.654 0 0 0 3.1 11.274v14.818a8.654 8.654 0 0 0 8.644 8.644h2.47c.682 0 1.235.553 1.235 1.235v8.133l9.006-9.006c.231-.231.546-.362.873-.362zm43.22-11.114a8.654 8.654 0 0 0-8.644-8.644H40.145a8.654 8.654 0 0 0-8.644 8.644v14.819a8.654 8.654 0 0 0 8.644 8.644h7.41c.327 0 .641.13.873.362l11.475 11.475V48.32c0-.682.553-1.235 1.235-1.235h2.47a8.654 8.654 0 0 0 8.644-8.644z"/></g><g><path fill="#cfd1d1" d="M66.078 22.387H37.676a1.235 1.235 0 0 0 0 2.47h28.402a1.235 1.235 0 0 0 0-2.47z"/></g><g><path fill="#cfd1d1" d="M66.078 29.797H37.676a1.235 1.235 0 0 0 0 2.47h28.402a1.235 1.235 0 0 0 0-2.47z"/></g><g><path fill="#cfd1d1" d="M66.078 37.206H37.676a1.235 1.235 0 0 0 0 2.47h28.402a1.235 1.235 0 0 0 0-2.47z"/></g><g><path fill="#cfd1d1" d="M8.039 12.509H33.97a1.235 1.235 0 0 0 0-2.47H8.039a1.235 1.235 0 0 0 0 2.47z"/></g><g><path fill="#cfd1d1" d="M26.562 17.448H8.039a1.235 1.235 0 0 0 0 2.47h18.523a1.235 1.235 0 0 0 0-2.47z"/></g><g><path fill="#cfd1d1" d="M25.327 24.857H8.039a1.235 1.235 0 0 0 0 2.47h17.288a1.235 1.235 0 0 0 0-2.47z"/></g></g></g></svg>