<?xml version="1.0" encoding="UTF-8" standalone="no"?>
<!DOCTYPE svg PUBLIC "-//W3C//DTD SVG 1.1//EN" "http://www.w3.org/Graphics/SVG/1.1/DTD/svg11.dtd">
<svg width="100%" height="100%" viewBox="0 0 18 15" version="1.1" xmlns="http://www.w3.org/2000/svg" xmlns:xlink="http://www.w3.org/1999/xlink" xml:space="preserve" xmlns:serif="http://www.serif.com/" style="fill-rule:evenodd;clip-rule:evenodd;stroke-linejoin:round;stroke-miterlimit:2;">
    <g transform="matrix(1,0,0,1,-6921.7,-2959.64)">
        <g transform="matrix(1.91517,0,0,2.04863,8725.24,2218.97)">
            <g id="ЗНАЧОК" transform="matrix(0.0326605,0,0,0.0305328,-945.05,361.22)">
                <path d="M381.795,18.982C381.416,19.445 378.435,22.323 373.552,27.204L172.033,228.725L119.373,180.217C114.491,175.336 111.236,173.652 110.375,173.801C109.656,173.926 114.492,175.335 119.373,180.217L172.033,228.725C172.124,228.692 172.351,228.909 172.033,228.725C171.707,228.538 172.065,229.31 172.033,228.725L373.552,27.204C378.435,22.322 383.238,17.22 381.795,18.982Z" style="fill:none;fill-rule:nonzero;stroke:rgb(183,19,19);stroke-width:15.99px;"/>
            </g>
        </g>
    </g>
</svg>
