<svg xmlns="http://www.w3.org/2000/svg" width="24" height="24" viewBox="0 0 24 24"><g><g><path fill="none" stroke="#cfd1d1" stroke-linejoin="round" stroke-miterlimit="20" d="M4.826 1.048c-1.572 0-3.143 1.703-3.397 2.054l-.101.1v0l-.05.15c-2.18 4.959 5.17 12.422 6.082 13.324.71.701 6.692 6.361 11.507 6.361.76 0 1.42-.15 2.028-.4l.152-.05v0l.101-.101c.457-.35 2.738-2.354 1.927-4.157-.304-.702-2.788-3.306-5.931-3.807l-.203-.05v0l-.203.05c-.152.05-1.216.25-2.737 1.252-.507-.25-1.52-.952-3.194-2.554-1.622-1.603-2.332-2.605-2.585-3.106.963-1.502 1.217-2.554 1.267-2.655l.05-.2v0l-.05-.2c-.507-3.106-3.193-5.51-3.903-5.86-.203-.1-.456-.151-.76-.151z"/></g></g></svg>