<svg xmlns="http://www.w3.org/2000/svg" width="34" height="21" viewBox="0 0 34 21"><g><g><path fill="none" stroke="#cfd1d1" stroke-linejoin="round" stroke-miterlimit="20" d="M27.662 12.151c-.52-.655-.37-.947 0-1.533.006-.006 4.29-5.927 4.732-7.935l.003-.001c.22-.732 0-1.27-1.06-1.27h-3.51c-.894 0-1.306.462-1.527.978 0 0-1.787 4.278-4.316 7.051-.816.802-1.193 1.059-1.638 1.059-.22 0-.56-.257-.56-.99V2.683c0-.878-.25-1.27-.99-1.27h-5.52c-.56 0-.894.41-.894.79 0 .833 1.264 1.024 1.396 3.365v5.08c0 1.113-.202 1.317-.65 1.317-1.194 0-4.09-4.295-5.806-9.211-.347-.954-.685-1.34-1.585-1.34H2.225c-1.002 0-1.204.462-1.204.979 0 .912 1.193 5.448 5.549 11.441 2.903 4.09 6.99 6.307 10.71 6.307 2.235 0 2.508-.492 2.508-1.339 0-3.909-.202-4.278.917-4.278.52 0 1.413.257 3.5 2.23 2.385 2.34 2.777 3.387 4.112 3.387h3.51c1 0 1.508-.492 1.216-1.463-.667-2.043-5.178-6.245-5.381-6.526z"/></g></g></svg>