<svg xmlns="http://www.w3.org/2000/svg" width="27" height="27" viewBox="0 0 27 27"><g><g><g><path fill="none" stroke="#cfd1d1" stroke-linejoin="round" stroke-miterlimit="20" stroke-width=".94" d="M13.59.86C6.683.86 1.073 6.375 1.073 13.128c0 2.141.586 4.2 1.674 6.094L.905 25.73v0l6.74-1.77c1.968 1.029 4.02 1.605 5.945 1.605 6.824 0 12.601-5.682 12.601-12.435S20.54.859 13.591.859z"/></g><g><path fill="none" stroke="#cfd1d1" stroke-linejoin="round" stroke-miterlimit="20" d="M19.87 15.394L17.232 14.2c-.376-.165-.753-.041-1.004.247l-1.005 1.276c-.754-.288-2.847-1.194-4.06-3.417l.92-1.07a.818.818 0 0 0 .126-.865l-1.13-2.636c-.126-.288-.377-.494-.712-.494L9.57 7.2c-.335 0-.711.082-.963.33-.376.329-1.088 1.029-1.297 1.976-.294 1.358.167 2.964 1.34 4.53.71.987 2.888 3.91 7.074 5.064a4.3 4.3 0 0 0 1.214.164c.712 0 1.382-.206 1.968-.535.67-.412 1.13-1.112 1.298-1.853l.125-.576c.084-.371-.125-.741-.46-.906z"/></g></g></g></svg>