<?xml version="1.0" encoding="UTF-8" standalone="no"?>
<!DOCTYPE svg PUBLIC "-//W3C//DTD SVG 1.1//EN" "http://www.w3.org/Graphics/SVG/1.1/DTD/svg11.dtd">
<svg width="100%" height="100%" viewBox="0 0 72 72" version="1.1" xmlns="http://www.w3.org/2000/svg" xmlns:xlink="http://www.w3.org/1999/xlink" xml:space="preserve" xmlns:serif="http://www.serif.com/" style="fill-rule:evenodd;clip-rule:evenodd;stroke-linejoin:round;stroke-miterlimit:2;">
    <g transform="matrix(1,0,0,1,-8650.36,-555.273)">
        <g transform="matrix(1,0,0,1.03209,8043.85,156.507)">
            <g transform="matrix(1,0,0,1,-42.3405,34.8756)">
                <g transform="matrix(0.149645,0,0,0.144993,646.117,350.114)">
                    <path d="M315.108,148.084C315.104,115.661 288.423,88.984 256,88.984C223.574,88.984 196.892,115.666 196.892,148.092C196.892,180.518 223.574,207.2 256,207.2C288.414,207.161 315.073,180.498 315.108,148.084ZM210.892,148.084C210.896,123.342 231.258,102.984 256,102.984C280.746,102.984 301.108,123.346 301.108,148.092C301.108,172.838 280.746,193.2 256,193.2C231.262,193.172 210.916,172.822 210.892,148.084Z" style="fill:rgb(183,19,19);fill-rule:nonzero;"/>
                </g>
                <g transform="matrix(0.149645,0,0,0.144993,646.117,348.849)">
                    <path d="M493.312,484.276L436.248,334.676C435.214,331.971 432.604,330.173 429.708,330.172L321.708,330.172C322.368,329.096 323.024,328.052 323.684,326.972C365.24,258.172 386.152,197.988 385.852,148.116C385.852,148.109 385.852,148.101 385.852,148.094C385.852,76.857 327.233,18.238 255.996,18.238C184.767,18.238 126.152,76.843 126.14,148.072C125.84,197.988 146.752,258.18 188.308,326.972C188.968,328.064 189.624,329.108 190.284,330.172L82.284,330.172C79.388,330.173 76.778,331.971 75.744,334.676L18.688,484.276C18.381,485.075 18.224,485.924 18.224,486.78C18.224,490.616 21.381,493.772 25.216,493.772C25.22,493.772 25.224,493.772 25.228,493.772L486.772,493.772C486.776,493.772 486.78,493.772 486.784,493.772C490.619,493.772 493.776,490.616 493.776,486.78C493.776,485.924 493.619,485.075 493.312,484.276ZM140.144,148.084C140.155,84.535 192.451,32.248 256,32.248C319.557,32.248 371.856,84.547 371.856,148.104C371.856,148.111 371.856,148.117 371.856,148.124C372.456,247.556 279.496,370.192 256,399.6C232.504,370.204 139.54,247.6 140.144,148.084ZM250.668,415.2C251.997,416.763 253.948,417.665 256,417.665C258.052,417.665 260.003,416.763 261.332,415.2C279.917,392.559 297.148,368.839 312.932,344.164L424.88,344.164L433.84,367.664L215.076,445.468L137.1,344.152L199.06,344.152C214.847,368.832 232.079,392.556 250.668,415.2ZM214.832,460.4L214.872,460.4L345.38,414L396,479.772L160.4,479.772L214.832,460.4ZM87.112,344.152L119.432,344.152L201.2,450.4L118.628,479.768L35.388,479.768L87.112,344.152ZM413.684,479.772L359.248,409.044L438.848,380.736L476.62,479.772L413.684,479.772Z" style="fill:rgb(216,216,216);fill-rule:nonzero;"/>
                </g>
            </g>
        </g>
    </g>
</svg>
