<?xml version="1.0" encoding="UTF-8" standalone="no"?>
<!DOCTYPE svg PUBLIC "-//W3C//DTD SVG 1.1//EN" "http://www.w3.org/Graphics/SVG/1.1/DTD/svg11.dtd">
<svg width="100%" height="100%" viewBox="0 0 24 28" version="1.1" xmlns="http://www.w3.org/2000/svg" xmlns:xlink="http://www.w3.org/1999/xlink" xml:space="preserve" xmlns:serif="http://www.serif.com/" style="fill-rule:evenodd;clip-rule:evenodd;stroke-linejoin:round;stroke-miterlimit:2;">
    <g transform="matrix(1,0,0,1,-9066.18,-519.974)">
        <g transform="matrix(1,0,0,1.03209,8043.85,156.507)">
            <g id="Перевод-онлайг" serif:id="Перевод онлайг" transform="matrix(0.0520751,0,0,0.0504562,1020.54,352.587)">
                <path d="M339.831,512L96,512C66.603,512 42.667,488.064 42.667,458.667L42.667,53.333C42.667,23.936 66.603,0 96,0L330.667,0C360.064,0 384,23.936 384,53.333L384,138.667C384,144.555 384,118.639 384,112.751L384,53.333L382.466,40.615C382.466,22.972 348.309,0 330.667,0L82.13,1.831C64.487,1.831 42.667,35.691 42.667,53.333L42.667,458.667C42.667,476.309 78.357,512 96,512L339.831,512C404.307,520.32 375.664,373.063 384,373.333L383.236,471.649C383.236,501.046 369.228,512 339.831,512Z" style="fill:none;fill-rule:nonzero;stroke:rgb(216,216,216);stroke-width:16.61px;"/>
                <path d="M320,0C325.888,0 100.779,0 106.667,0L128,0C145.643,0 160,14.357 160,32C160,37.888 164.779,42.667 170.667,42.667L256,42.667C261.888,42.667 266.667,37.888 266.667,32C266.667,14.357 281.024,0 298.667,0L320,0Z" style="fill:none;fill-rule:nonzero;stroke:rgb(216,216,216);stroke-width:16.61px;"/>
                <path d="M309.333,256C306.603,256 303.872,254.955 301.781,252.885L259.115,210.219C254.955,206.059 254.955,199.296 259.115,195.136L301.781,152.469C305.941,148.309 312.704,148.309 316.864,152.469C321.024,156.629 321.024,163.392 316.864,167.552L281.749,202.667L316.864,237.781C321.024,241.941 321.024,248.704 316.864,252.864C314.795,254.955 312.064,256 309.333,256Z" style="fill-rule:nonzero;stroke:rgb(183,19,19);stroke-width:16.61px;"/>
                <path d="M458.667,213.333L272,213.333C266.112,213.333 261.333,208.555 261.333,202.667C261.333,196.779 266.091,192 272,192L458.667,192C464.555,192 469.333,196.779 469.333,202.667C469.333,208.555 464.555,213.333 458.667,213.333Z" style="fill:none;fill-rule:nonzero;stroke:rgb(183,19,19);stroke-width:16.61px;"/>
                <path d="M416,362.667C413.269,362.667 410.539,361.621 408.448,359.552C404.288,355.392 404.288,348.629 408.448,344.469L443.563,309.355L408.448,274.24C404.288,270.08 404.288,263.317 408.448,259.157C412.608,254.997 419.371,254.997 423.531,259.157L466.197,301.824C470.357,305.984 470.357,312.747 466.197,316.907L423.531,359.573C421.461,361.621 418.731,362.667 416,362.667Z" style="fill-rule:nonzero;stroke:rgb(183,19,19);stroke-width:16.61px;"/>
                <path d="M453.333,320L266.667,320C260.779,320 256,315.221 256,309.333C256,303.445 260.779,298.667 266.667,298.667L453.333,298.667C459.221,298.667 464,303.445 464,309.333C464,315.221 459.243,320 453.333,320Z" style="fill-rule:nonzero;stroke:rgb(183,19,19);stroke-width:16.61px;"/>
            </g>
        </g>
    </g>
</svg>
