<?xml version="1.0" encoding="UTF-8" standalone="no"?>
<!DOCTYPE svg PUBLIC "-//W3C//DTD SVG 1.1//EN" "http://www.w3.org/Graphics/SVG/1.1/DTD/svg11.dtd">
<svg width="100%" height="100%" viewBox="0 0 36 24" version="1.1" xmlns="http://www.w3.org/2000/svg" xmlns:xlink="http://www.w3.org/1999/xlink" xml:space="preserve" xmlns:serif="http://www.serif.com/" style="fill-rule:evenodd;clip-rule:evenodd;stroke-linejoin:round;stroke-miterlimit:2;">
    <g transform="matrix(1,0,0,1,-9057.72,-469.452)">
        <g transform="matrix(1,0,0,1.03209,8043.85,156.507)">
            <g id="оплата-картой" serif:id="оплата картой" transform="matrix(0.0694513,0,0,0.0672922,1013.87,297.474)">
                <path d="M458.667,85.333L53.333,85.333C23.936,85.333 0,109.269 0,138.667L0,373.334C0,402.731 23.936,426.667 53.333,426.667L458.666,426.667C488.063,426.667 511.999,402.731 511.999,373.334L511.999,138.667C512,109.269 488.064,85.333 458.667,85.333ZM490.667,373.333C490.667,390.976 476.31,405.333 458.667,405.333L53.333,405.333C35.69,405.333 21.333,390.976 21.333,373.333L21.333,138.667C21.333,121.024 35.69,106.667 53.333,106.667L458.666,106.667C476.309,106.667 490.666,121.024 490.666,138.667L490.666,373.333L490.667,373.333Z" style="fill:rgb(216,216,216);fill-rule:nonzero;"/>
                <path d="M501.333,149.333L10.667,149.333C4.779,149.333 0,154.112 0,160L0,224C0,229.888 4.779,234.667 10.667,234.667L501.334,234.667C507.222,234.667 512.001,229.888 512.001,224L512.001,160C512,154.112 507.221,149.333 501.333,149.333ZM490.667,213.333L21.333,213.333L21.333,170.666L490.666,170.666L490.666,213.333L490.667,213.333Z" style="fill:rgb(216,216,216);fill-rule:nonzero;"/>
                <path d="M202.667,298.667L74.667,298.667C68.779,298.667 64,303.446 64,309.334C64,315.222 68.779,320 74.667,320L202.667,320C208.555,320 213.334,315.221 213.334,309.333C213.334,303.445 208.555,298.667 202.667,298.667Z" style="fill:rgb(183,19,19);fill-rule:nonzero;"/>
                <path d="M202.667,341.333L74.667,341.333C68.779,341.333 64,346.112 64,352C64,357.888 68.779,362.667 74.667,362.667L202.667,362.667C208.555,362.667 213.334,357.888 213.334,352C213.333,346.112 208.555,341.333 202.667,341.333Z" style="fill:rgb(183,19,19);fill-rule:nonzero;"/>
                <path d="M416,277.333L394.667,277.333C377.024,277.333 362.667,291.69 362.667,309.333L362.667,330.666C362.667,348.309 377.024,362.666 394.667,362.666L416,362.666C433.643,362.666 448,348.309 448,330.666L448,309.333C448,291.691 433.643,277.333 416,277.333ZM426.667,330.667C426.667,336.555 421.888,341.334 416,341.334L394.667,341.334C388.779,341.334 384,336.555 384,330.667L384,309.334C384,303.446 388.779,298.667 394.667,298.667L416,298.667C421.888,298.667 426.667,303.446 426.667,309.334L426.667,330.667Z" style="fill:rgb(183,19,19);fill-rule:nonzero;"/>
            </g>
        </g>
    </g>
</svg>
