<?xml version="1.0" encoding="UTF-8" standalone="no"?>
<!DOCTYPE svg PUBLIC "-//W3C//DTD SVG 1.1//EN" "http://www.w3.org/Graphics/SVG/1.1/DTD/svg11.dtd">
<svg width="100%" height="100%" viewBox="0 0 26 30" version="1.1" xmlns="http://www.w3.org/2000/svg" xmlns:xlink="http://www.w3.org/1999/xlink" xml:space="preserve" xmlns:serif="http://www.serif.com/" style="fill-rule:evenodd;clip-rule:evenodd;stroke-linejoin:round;stroke-miterlimit:2;">
    <g transform="matrix(1,0,0,1,-7633.08,-563.807)">
        <g transform="matrix(1,0,0,1.03209,6612.39,156.507)">
            <g id="безнал">
                <g transform="matrix(0.0568487,0,0,0.0550814,1019.1,394.857)">
                    <path d="M229.333,174.933C229.333,236.69 279.577,286.933 341.333,286.933C403.09,286.933 453.333,236.69 453.333,174.933C453.333,113.177 403.09,62.933 341.333,62.933C279.577,62.933 229.333,113.177 229.333,174.933ZM436.267,174.933C436.267,227.28 393.68,269.867 341.333,269.867C288.987,269.867 246.4,227.28 246.4,174.933C246.4,122.587 288.987,80 341.333,80C393.68,80 436.267,122.587 436.267,174.933ZM341.333,117.333C346.046,117.333 349.867,121.154 349.867,125.867L349.867,129.468C359.798,132.991 366.933,142.476 366.933,153.6C366.933,158.313 363.113,162.133 358.4,162.133C353.687,162.133 349.867,158.313 349.867,153.6C349.867,148.895 346.038,145.067 341.333,145.067C336.628,145.067 332.8,148.895 332.8,153.6L332.8,157.053C332.8,160.805 335.206,164.078 338.788,165.198L348.969,168.379C359.714,171.738 366.933,181.557 366.933,192.814L366.933,196.267C366.933,208.554 358.23,218.844 346.667,221.305L346.667,224C346.667,228.713 342.846,232.533 338.133,232.533C333.421,232.533 329.6,228.713 329.6,224L329.6,219.008C321.372,214.746 315.733,206.155 315.733,196.267C315.733,191.554 319.554,187.733 324.267,187.733C328.979,187.733 332.8,191.554 332.8,196.267C332.8,200.972 336.628,204.8 341.333,204.8C346.038,204.8 349.867,200.972 349.867,196.267L349.867,192.814C349.867,189.061 347.46,185.789 343.878,184.669L333.698,181.488C322.953,178.129 315.733,168.309 315.733,157.053L315.733,153.6C315.733,142.476 322.868,132.991 332.8,129.468L332.8,125.867C332.8,121.154 336.621,117.333 341.333,117.333ZM480,343.467L480,452.267C480,485.204 453.203,512 420.267,512L91.733,512C58.797,512 32,485.204 32,452.267L32,34.133C32,15.312 47.312,0 66.133,0L343.467,0C362.288,0 377.6,15.312 377.6,34.133C377.6,38.846 373.779,42.667 369.067,42.667C364.354,42.667 360.533,38.846 360.533,34.133C360.533,24.723 352.877,17.067 343.467,17.067L66.133,17.067C56.723,17.067 49.067,24.723 49.067,34.133L49.067,452.267C49.067,475.793 68.207,494.933 91.733,494.933L378.519,494.933C367.431,484.083 360.533,468.969 360.533,452.267L360.533,318.933C360.533,314.221 364.354,310.4 369.067,310.4C373.779,310.4 377.6,314.221 377.6,318.933L377.6,452.267C377.6,475.793 396.74,494.933 420.267,494.933C443.793,494.933 462.933,475.793 462.933,452.267L462.933,343.467C462.933,334.057 455.277,326.4 445.867,326.4L409.6,326.4C404.887,326.4 401.067,322.579 401.067,317.867C401.067,313.154 404.887,309.333 409.6,309.333L445.867,309.333C464.688,309.333 480,324.645 480,343.467ZM106.667,229.333C106.667,224.621 110.487,220.8 115.2,220.8L187.733,220.8C192.446,220.8 196.267,224.621 196.267,229.333C196.267,234.046 192.446,237.867 187.733,237.867L115.2,237.867C110.487,237.867 106.667,234.046 106.667,229.333ZM106.667,133.333C106.667,128.621 110.487,124.8 115.2,124.8L187.733,124.8C192.446,124.8 196.267,128.621 196.267,133.333C196.267,138.046 192.446,141.867 187.733,141.867L115.2,141.867C110.487,141.867 106.667,138.046 106.667,133.333ZM302.933,325.333C302.933,330.046 299.113,333.867 294.4,333.867L115.2,333.867C110.487,333.867 106.667,330.046 106.667,325.333C106.667,320.621 110.487,316.8 115.2,316.8L294.4,316.8C299.113,316.8 302.933,320.621 302.933,325.333ZM302.933,414.933C302.933,419.646 299.113,423.467 294.4,423.467L115.2,423.467C110.487,423.467 106.667,419.646 106.667,414.933C106.667,410.221 110.487,406.4 115.2,406.4L294.4,406.4C299.113,406.4 302.933,410.221 302.933,414.933Z" style="fill:rgb(216,216,216);fill-rule:nonzero;stroke:rgb(216,216,216);stroke-width:7.94px;"/>
                </g>
                <g transform="matrix(0.850493,0,0,0.824053,-5468.44,-68.4478)">
                    <circle cx="7650.78" cy="573.919" r="6.597" style="fill:none;stroke:rgb(183,19,19);stroke-width:2.94px;stroke-linecap:round;stroke-miterlimit:1.5;"/>
                </g>
            </g>
        </g>
    </g>
</svg>
