<?xml version="1.0" encoding="UTF-8" standalone="no"?>
<!DOCTYPE svg PUBLIC "-//W3C//DTD SVG 1.1//EN" "http://www.w3.org/Graphics/SVG/1.1/DTD/svg11.dtd">
<svg width="100%" height="100%" viewBox="0 0 22 30" version="1.1" xmlns="http://www.w3.org/2000/svg" xmlns:xlink="http://www.w3.org/1999/xlink" xml:space="preserve" xmlns:serif="http://www.serif.com/" style="fill-rule:evenodd;clip-rule:evenodd;stroke-linejoin:round;stroke-miterlimit:2;">
    <g transform="matrix(1,0,0,1,-2601.54,-3883.45)">
        <g transform="matrix(0.655301,0,0,0.655301,2345.56,2930.08)">
            <g transform="matrix(0.0956249,0,0,0.0956249,384.987,1455.24)">
                <path d="M361.816,219.457C361.624,219.452 361.431,219.448 361.239,219.446C352.777,219.524 344.626,222.648 338.279,228.246C333.646,212.946 319.702,202.358 303.719,202.006C295.768,202.126 288.094,204.948 281.959,210.006C278.812,192.734 264.064,179.984 246.519,179.366C239.029,179.383 231.741,181.793 225.719,186.246L225.719,166.886C269.276,145.325 287.106,92.536 265.545,48.98C243.984,5.423 191.195,-12.407 147.639,9.154C104.082,30.715 86.252,83.504 107.813,127.06C116.367,144.34 130.359,158.332 147.639,166.886L147.639,251.446L129.399,226.886C116.763,210.2 93.013,206.873 76.279,219.446C60.638,232.838 58.509,256.252 71.479,272.246L141.959,410.806C164.119,454.406 199.479,460.486 213.959,461.046C226.439,461.606 239.239,461.766 251.479,461.766C290.039,461.766 323.479,459.766 323.479,459.766L324.279,459.766C382.119,459.766 398.279,397.606 398.759,364.486L398.759,258.486C399.335,237.507 382.795,220.033 361.816,219.457ZM147.319,109.834L147.319,148.085C126.909,134.837 114.571,112.177 114.519,87.845C114.321,48.081 146.395,15.685 186.159,15.487C225.923,15.289 258.319,47.363 258.517,87.127C258.64,111.776 246.145,134.775 225.399,148.086L225.399,109.846C225.402,88.285 207.926,70.803 186.365,70.8C164.803,70.797 147.322,88.273 147.319,109.834ZM322.199,443.766C321.639,443.766 265.159,447.286 214.199,445.046C202.839,444.566 174.199,439.526 156.119,403.526L85.399,264.246C85.152,263.764 84.858,263.308 84.519,262.886C76.557,253.772 77.451,239.939 86.519,231.926C96.24,224.93 109.777,227.032 116.919,236.646L148.919,280.726L149.399,281.126C150.103,281.878 150.911,282.525 151.799,283.046L153.159,283.526L157.799,283.526L159.239,282.886L160.039,282.886L160.439,282.486C160.857,282.13 161.233,281.727 161.559,281.286C161.864,280.913 162.132,280.511 162.359,280.086C162.56,279.648 162.72,279.193 162.839,278.726C162.892,278.194 162.892,277.658 162.839,277.126L162.839,109.846C162.839,97.121 173.154,86.806 185.879,86.806C198.604,86.806 208.919,97.121 208.919,109.846L208.919,251.446C208.919,255.864 212.501,259.446 216.919,259.446C221.337,259.446 224.919,255.864 224.919,251.446L224.919,218.406C223.684,206.941 231.978,196.645 243.444,195.411C254.909,194.176 265.205,202.47 266.439,213.936C266.599,215.422 266.599,216.921 266.439,218.407L266.439,275.927C266.439,280.345 270.021,283.927 274.439,283.927C278.857,283.927 282.439,280.345 282.439,275.927L282.439,241.047C281.204,229.582 289.498,219.286 300.964,218.052C312.429,216.817 322.725,225.111 323.959,236.577C324.119,238.063 324.119,239.562 323.959,241.048L323.959,305.048C323.959,309.466 327.541,313.048 331.959,313.048C336.377,313.048 339.959,309.466 339.959,305.048L339.959,258.488C338.724,247.023 347.018,236.727 358.484,235.493C369.949,234.258 380.245,242.552 381.479,254.018C381.639,255.504 381.639,257.003 381.479,258.489L381.959,364.329C381.959,367.606 380.039,444.326 322.199,443.766Z" style="fill:none;fill-rule:nonzero;stroke:rgb(207,209,209);stroke-width:7.98px;"/>
            </g>
        </g>
    </g>
</svg>
