<?xml version="1.0" encoding="UTF-8" standalone="no"?>
<!DOCTYPE svg PUBLIC "-//W3C//DTD SVG 1.1//EN" "http://www.w3.org/Graphics/SVG/1.1/DTD/svg11.dtd">
<svg width="100%" height="100%" viewBox="0 0 31 39" version="1.1" xmlns="http://www.w3.org/2000/svg" xmlns:xlink="http://www.w3.org/1999/xlink" xml:space="preserve" xmlns:serif="http://www.serif.com/" style="fill-rule:evenodd;clip-rule:evenodd;stroke-linejoin:round;stroke-miterlimit:2;">
    <g transform="matrix(1,0,0,1,-233.332,-462.915)">
        <g id="цвет-кромки-стола" serif:id="цвет кромки стола" transform="matrix(0.0737727,0,0,0.0737727,229.845,463.165)">
            <path d="M450.014,207.237L422.344,176.633C427.722,167.546 429.642,156.954 427.729,146.463C425.626,134.928 419.156,124.901 409.512,118.231L369.589,90.62C369.84,84.174 368.655,77.7 366.033,71.599C361.402,60.827 352.854,52.502 341.96,48.159L253.671,12.957C242.97,8.69 231.311,8.806 220.841,13.103C212.876,5.021 201.811,-0 189.594,-0L94.546,-0C70.34,-0 50.647,19.693 50.647,43.899L50.647,420.577C50.647,470.989 91.659,512 142.069,512C165.011,512 186.003,503.504 202.071,489.497C202.302,489.333 202.527,489.158 202.743,488.965L373.905,334.927C376.991,332.149 377.241,327.396 374.465,324.309C371.686,321.221 366.929,320.972 363.847,323.75L356.795,330.096L333.884,304.757L369.854,252.747L402.555,288.913L387.677,302.304C384.591,305.082 384.341,309.836 387.118,312.922C388.602,314.572 390.651,315.411 392.708,315.411C394.501,315.411 396.299,314.775 397.737,313.482L446.894,269.241C455.592,261.377 460.706,250.596 461.295,238.885C461.884,227.175 457.879,215.934 450.014,207.237ZM412.936,149.16C414.318,156.743 412.664,164.413 408.278,170.754L387.863,200.273L341.386,168.13L365.992,106.416L400.958,130.599C407.3,134.984 411.553,141.575 412.936,149.16ZM341.474,267.349L310.396,245.855L335.672,182.461L379.31,212.64L341.474,267.349ZM295.085,334.425L279.405,323.581L304.682,260.186L332.92,279.716L295.085,334.425ZM306.657,214.634L284.868,205.946C281.012,204.409 276.638,206.287 275.1,210.145C273.562,214.002 275.443,218.375 279.299,219.914L301.087,228.601L275.26,293.377L233.493,276.724L233.493,201.65L249.406,207.995C250.319,208.359 251.261,208.531 252.188,208.531C255.174,208.531 258,206.739 259.174,203.795C260.712,199.938 258.832,195.565 254.975,194.026L233.493,185.462L233.493,110.388L332.484,149.857L306.657,214.634ZM218.456,167.71L133.292,167.71C129.14,167.71 125.774,171.076 125.774,175.228C125.774,179.381 129.14,182.747 133.292,182.747L218.456,182.747L218.456,252.482L65.684,252.482L65.684,182.747L101.251,182.747C105.403,182.747 108.769,179.381 108.769,175.228C108.769,171.076 105.403,167.71 101.251,167.71L65.684,167.71L65.684,97.975L218.455,97.975L218.455,167.71L218.456,167.71ZM65.684,267.519L218.455,267.519L218.455,337.255L65.684,337.255L65.684,267.519ZM233.493,292.911L269.691,307.345L233.493,398.133L233.493,292.911ZM280.343,382.177L288.68,391.397L249.712,426.466L280.343,382.177ZM247.852,402.721L273.692,337.911L286.533,346.791L247.852,402.721ZM248.103,26.925L336.392,62.127C343.553,64.982 349.173,70.455 352.217,77.538C354.311,82.407 355.014,87.636 354.321,92.756C354.309,92.815 354.303,92.875 354.292,92.934C353.972,95.201 353.38,97.445 352.51,99.626L338.052,135.889L233.493,94.199L233.493,43.899C233.493,37.506 232.108,31.432 229.64,25.947C235.672,24.242 242.117,24.538 248.103,26.925ZM94.546,15.037L189.594,15.037C205.508,15.037 218.456,27.984 218.456,43.899L218.456,82.939L65.684,82.939L65.684,43.899C65.684,27.984 78.631,15.037 94.546,15.037ZM65.684,420.577L65.684,352.291L218.455,352.291L218.455,420.577C218.455,462.697 184.188,496.963 142.069,496.963C99.95,496.963 65.684,462.696 65.684,420.577ZM345.618,340.156L299.857,381.337L289.128,369.471L325.098,317.461L345.618,340.156ZM446.277,238.129C445.89,245.829 442.528,252.916 436.821,258.076L413.733,278.855L378.64,240.043L413.641,189.432L438.859,217.321C444.031,223.04 446.665,230.429 446.277,238.129Z" style="fill:none;fill-rule:nonzero;stroke:rgb(207,209,209);stroke-width:6.78px;"/>
            <path d="M140.366,384.798C120.486,384.798 104.312,400.972 104.312,420.852C104.312,440.733 120.486,456.906 140.366,456.906C160.247,456.906 176.42,440.733 176.42,420.852C176.42,400.972 160.247,384.798 140.366,384.798ZM140.366,441.871C128.777,441.871 119.349,432.442 119.349,420.853C119.349,409.264 128.777,399.836 140.366,399.836C151.956,399.836 161.384,409.264 161.384,420.853C161.384,432.442 151.956,441.871 140.366,441.871Z" style="fill:none;fill-rule:nonzero;stroke:rgb(207,209,209);stroke-width:6.78px;"/>
        </g>
    </g>
</svg>
