<?xml version="1.0" encoding="UTF-8" standalone="no"?>
<!DOCTYPE svg PUBLIC "-//W3C//DTD SVG 1.1//EN" "http://www.w3.org/Graphics/SVG/1.1/DTD/svg11.dtd">
<svg width="100%" height="100%" viewBox="0 0 28 38" version="1.1" xmlns="http://www.w3.org/2000/svg" xmlns:xlink="http://www.w3.org/1999/xlink" xml:space="preserve" xmlns:serif="http://www.serif.com/" style="fill-rule:evenodd;clip-rule:evenodd;stroke-linejoin:round;stroke-miterlimit:2;">
    <g transform="matrix(1,0,0,1,-271.611,-462.915)">
        <g id="Вырез-под-провода" serif:id="Вырез под провода" transform="matrix(0.0730542,0,0,0.0730542,266.599,463.165)">
            <path d="M439.984,32L439.984,8C439.984,3.576 436.408,0 431.984,0L351.984,0C347.56,0 343.984,3.576 343.984,8L343.984,120C343.984,120.088 344.032,120.16 344.032,120.24C344.048,120.768 344.224,121.288 344.352,121.816C344.48,122.328 344.544,122.864 344.768,123.328C344.8,123.408 344.792,123.496 344.832,123.568L360.848,155.568C361.224,156.328 361.72,156.976 362.28,157.552C362.4,157.672 362.544,157.744 362.672,157.864C363.24,158.376 363.864,158.8 364.544,159.128C364.776,159.24 365.008,159.336 365.256,159.432C366.128,159.752 367.048,159.976 367.992,159.984L368.008,159.984L368.008,237.88C339.12,209.552 299.6,192 256.032,192C212.432,192 172.888,209.576 144,237.952L144,160L144.032,160C144.976,159.992 145.888,159.768 146.768,159.448C147.016,159.352 147.248,159.256 147.48,159.144C148.16,158.808 148.784,158.392 149.352,157.88C149.48,157.76 149.624,157.688 149.744,157.568C150.296,156.992 150.8,156.344 151.176,155.584L167.176,123.584C167.216,123.504 167.208,123.416 167.24,123.352C167.464,122.864 167.528,122.336 167.656,121.824C167.784,121.296 167.96,120.784 167.976,120.256C167.976,120.168 168.024,120.096 168.024,120.016L168.024,8C168.024,3.576 164.448,-0 160.024,-0L80.024,-0C75.6,-0 72.024,3.576 72.024,8L72.024,120C72.024,120.088 72.072,120.16 72.072,120.24C72.088,120.768 72.264,121.28 72.392,121.808C72.52,122.328 72.584,122.856 72.808,123.328C72.84,123.408 72.832,123.496 72.872,123.568L88.872,155.568C89.248,156.328 89.744,156.976 90.304,157.552C90.424,157.672 90.568,157.744 90.696,157.864C91.264,158.376 91.888,158.8 92.568,159.128C92.8,159.24 93.032,159.336 93.28,159.432C94.144,159.768 95.056,159.992 96,160L96.032,160L96.032,352C96.032,440.224 167.808,512 256.032,512C344.256,512 416.032,440.224 416.032,352L416.032,159.992C416.968,159.984 417.864,159.768 418.736,159.448C418.984,159.352 419.216,159.256 419.448,159.144C420.128,158.808 420.752,158.392 421.32,157.88C421.448,157.76 421.592,157.688 421.712,157.568C422.264,156.992 422.768,156.344 423.144,155.584L439.144,123.584C439.184,123.504 439.176,123.416 439.208,123.352C439.432,122.864 439.496,122.336 439.624,121.824C439.752,121.296 439.928,120.784 439.944,120.256C439.944,120.168 439.992,120.096 439.992,120.016L439.992,32L439.984,32ZM411.04,144L372.944,144L364.936,128L419.04,128L411.04,144ZM383.984,56L383.984,40L399.984,40L399.984,56L383.984,56ZM375.984,72L383.984,72L383.984,88C383.984,92.424 387.56,96 391.984,96C396.408,96 399.984,92.424 399.984,88L399.984,72L407.984,72C412.408,72 415.984,68.424 415.984,64L415.984,40L423.984,40L423.984,112L359.984,112L359.984,40L367.984,40L367.984,64C367.984,68.424 371.56,72 375.984,72ZM359.984,16L368,16C368,20.424 371.576,24 376,24C380.424,24 384,20.424 384,16L399.984,16C399.984,20.424 403.56,24 407.984,24C412.408,24 415.984,20.424 415.984,16L423.984,16L423.984,24L359.984,24L359.984,16ZM100.96,144L92.96,128L147.072,128L139.072,144L100.96,144ZM112.016,56L112.016,40L128.016,40L128.016,56L112.016,56ZM104.016,72L112.016,72L112.016,88C112.016,92.424 115.592,96 120.016,96C124.44,96 128.016,92.424 128.016,88L128.016,72L136.016,72C140.44,72 144.016,68.424 144.016,64L144.016,40L152.016,40L152.016,112L88.016,112L88.016,40L96.016,40L96.016,64C96.016,68.424 99.592,72 104.016,72ZM88.016,16L96.016,16C96.016,20.424 99.592,24 104.016,24C108.44,24 112.016,20.424 112.016,16L128.016,16C128.016,20.424 131.592,24 136.016,24C140.44,24 144.016,20.424 144.016,16L152.016,16L152.016,24L88.016,24L88.016,16ZM112.032,160L128,160L128,256.448C121.864,264.64 116.52,273.424 112.032,282.72L112.032,160ZM256.032,496C176.632,496 112.032,431.4 112.032,352C112.032,272.6 176.632,208 256.032,208C335.432,208 400.032,272.6 400.032,352C400.032,431.4 335.432,496 256.032,496ZM384,256.36L384,160L400.032,160L400.032,282.72C395.52,273.392 390.16,264.576 384,256.36Z" style="fill:none;fill-rule:nonzero;stroke:rgb(207,209,209);stroke-width:6.84px;"/>
            <path d="M256.032,224C185.456,224 128.032,281.424 128.032,352C128.032,422.576 185.456,480 256.032,480C326.608,480 384.032,422.576 384.032,352C384.032,281.424 326.608,224 256.032,224ZM256.032,464C194.272,464 144.032,413.76 144.032,352C144.032,290.24 194.272,240 256.032,240C317.792,240 368.032,290.24 368.032,352C368.032,413.76 317.792,464 256.032,464Z" style="fill:none;fill-rule:nonzero;stroke:rgb(207,209,209);stroke-width:6.84px;"/>
        </g>
    </g>
</svg>
