<?xml version="1.0" encoding="UTF-8" standalone="no"?>
<!DOCTYPE svg PUBLIC "-//W3C//DTD SVG 1.1//EN" "http://www.w3.org/Graphics/SVG/1.1/DTD/svg11.dtd">
<svg width="100%" height="100%" viewBox="0 0 51 37" version="1.1" xmlns="http://www.w3.org/2000/svg" xmlns:xlink="http://www.w3.org/1999/xlink" xml:space="preserve" xmlns:serif="http://www.serif.com/" style="fill-rule:evenodd;clip-rule:evenodd;stroke-linejoin:round;stroke-miterlimit:2;">
    <g transform="matrix(1,0,0,1,-65.9645,-462.289)">
        <g id="Основание-стола" serif:id="Основание стола">
            <g id="Основание-стола1" serif:id="Основание стола" transform="matrix(0.105048,0,0,0.105048,66.0748,455.788)">
                <path d="M16,184L16,400C16,404.418 19.582,408 24,408L72,408C76.418,408 80,404.418 80,400L80,216L400,216L400,400C400,404.418 403.582,408 408,408L456,408C460.418,408 464,404.418 464,400L464,184M448,392L416,392L416,208C416,203.582 412.418,200 408,200L72,200C67.582,200 64,203.582 64,208L64,392L32,392L32,184L448,184L448,392Z" style="fill:none;fill-rule:nonzero;stroke:rgb(207,209,209);stroke-width:4.76px;"/>
            </g>
            <g id="Слой1">
                <g transform="matrix(1,0,0,1,0.00889558,-0.961693)">
                    <path d="M69.896,463.351L112.782,463.351L116.498,468.857L116.498,474.137C116.498,474.137 116.608,475.285 114.886,475.093C112.629,475.132 67.638,475.055 67.638,475.055C67.638,475.055 65.927,475.285 66.075,474.022C66.032,472.607 66.075,469.049 66.075,469.049L69.896,463.351Z" style="fill:none;stroke:rgb(207,209,209);stroke-width:0.2px;stroke-linecap:round;stroke-miterlimit:1.5;stroke-dasharray:0.4,1,0,0;"/>
                </g>
                <path d="M70.787,464.966L68.632,468.263L113.913,468.23L111.791,464.998L70.787,464.966Z" style="fill:none;stroke:rgb(207,209,209);stroke-width:0.2px;stroke-linecap:round;stroke-miterlimit:1.5;stroke-dasharray:0.4,1,0,0;"/>
                <path d="M67.816,470.091L114.794,470.058L114.827,473.29L67.816,473.388L67.816,470.091Z" style="fill:none;stroke:rgb(207,209,209);stroke-width:0.2px;stroke-linecap:round;stroke-miterlimit:1.5;stroke-dasharray:0.4,1,0,0;"/>
            </g>
        </g>
    </g>
</svg>
