<?xml version="1.0" encoding="UTF-8" standalone="no"?>
<!DOCTYPE svg PUBLIC "-//W3C//DTD SVG 1.1//EN" "http://www.w3.org/Graphics/SVG/1.1/DTD/svg11.dtd">
<svg width="100%" height="100%" viewBox="0 0 25 25" version="1.1" xmlns="http://www.w3.org/2000/svg" xmlns:xlink="http://www.w3.org/1999/xlink" xml:space="preserve" xmlns:serif="http://www.serif.com/" style="fill-rule:evenodd;clip-rule:evenodd;stroke-linejoin:round;stroke-miterlimit:2;">
    <g transform="matrix(1,0,0,1,-2618.54,-1629.34)">
        <g transform="matrix(0.655301,0,0,0.655301,2363.28,458.186)">
            <g transform="matrix(0.071821,0,0,0.071821,389.904,1787.57)">
                <path d="M304,160L400,160C408.836,160 416,152.837 416,144L416,104C416,99.757 414.314,95.687 411.314,92.687L387.314,68.687C384.314,65.686 380.244,64 376,64L328,64C323.756,64 319.687,65.686 316.686,68.687L292.686,92.687C289.686,95.688 288,99.757 288,104L288,144C288,152.837 295.164,160 304,160ZM320,110.627L334.627,96L369.372,96L384,110.627L384,128L320,128L320,110.627Z" style="fill:none;fill-rule:nonzero;stroke:rgb(207,209,209);stroke-width:10.62px;"/>
                <path d="M304,288L400,288C408.836,288 416,280.837 416,272L416,232C416,227.757 414.314,223.687 411.314,220.687L387.314,196.687C384.314,193.686 380.244,192 376,192L328,192C323.756,192 319.687,193.686 316.686,196.687L292.686,220.687C289.686,223.688 288,227.757 288,232L288,272C288,280.837 295.164,288 304,288ZM320,238.627L334.627,224L369.372,224L384,238.627L384,256L320,256L320,238.627Z" style="fill:none;fill-rule:nonzero;stroke:rgb(207,209,209);stroke-width:10.62px;"/>
                <path d="M64.002,159.855C63.935,213.256 107.402,256.001 159.986,256.001C211.632,256.001 255.572,214.652 255.998,160.145C256.066,106.694 212.541,64 160,64C108.436,64 64.428,105.284 64.002,159.855ZM103.102,189.246C122.083,194.715 138.389,191.865 155.268,182.153C161.567,193.686 162.81,204.724 151.655,223.439C130.474,220.666 112.526,207.506 103.102,189.246ZM189.257,216.892C195.599,194.879 189.918,178.225 182.153,164.731C193.686,158.432 204.724,157.191 223.438,168.344C220.667,189.522 207.511,207.466 189.257,216.892ZM216.892,130.743C194.879,124.401 178.225,130.082 164.731,137.847C158.432,126.314 157.19,115.277 168.344,96.562C189.522,99.333 207.466,112.489 216.892,130.743ZM130.743,103.108C124.401,125.121 130.082,141.775 137.847,155.268C126.314,161.567 115.276,162.808 96.562,151.655C99.333,130.478 112.489,112.534 130.743,103.108Z" style="fill:none;fill-rule:nonzero;stroke:rgb(207,209,209);stroke-width:10.62px;"/>
                <path d="M496,464L464,464L464,432L496,432C504.836,432 512,424.837 512,416C512,407.163 504.836,400 496,400L464,400C464,391.163 456.836,384 448,384L417,384C390.651,384 369,405.394 369,432.05C367.732,431.972 380,432 136,432C113.944,432 96,414.056 96,392L96,352L464,352C472.836,352 480,344.837 480,336L480,16C480,7.163 472.836,0 464,0L16,0C7.164,0 0,7.163 0,16L0,336C0,344.837 7.164,352 16,352L64,352L64,392C64,431.701 96.299,464 136,464C339.15,464 369,463.897 369,464C369,490.468 390.533,512 417,512L448,512C456.836,512 464,504.837 464,496L496,496C504.836,496 512,488.837 512,480C512,471.163 504.836,464 496,464ZM32,320L32,32L448,32L448,320L96,320L96,288C96,279.163 88.836,272 80,272C71.164,272 64,279.163 64,288L64,320L32,320ZM417,480C408.178,480 401,472.822 401,464L401,432C401,423.178 408.178,416 417,416L432,416L432,480L417,480Z" style="fill:none;fill-rule:nonzero;stroke:rgb(207,209,209);stroke-width:10.62px;"/>
            </g>
        </g>
    </g>
</svg>
