<?xml version="1.0" encoding="UTF-8" standalone="no"?>
<!DOCTYPE svg PUBLIC "-//W3C//DTD SVG 1.1//EN" "http://www.w3.org/Graphics/SVG/1.1/DTD/svg11.dtd">
<svg width="100%" height="100%" viewBox="0 0 27 20" version="1.1" xmlns="http://www.w3.org/2000/svg" xmlns:xlink="http://www.w3.org/1999/xlink" xml:space="preserve" xmlns:serif="http://www.serif.com/" style="fill-rule:evenodd;clip-rule:evenodd;stroke-linejoin:round;stroke-miterlimit:2;">
    <g transform="matrix(1,0,0,1,-3040.32,-3843.69)">
        <g transform="matrix(0.655301,0,0,0.655301,2781.49,2935.02)">
            <g transform="matrix(0.0772011,0,0,0.0772011,395.35,1381.38)">
                <path d="M429.796,236.535L83.234,236.535C54.448,236.535 31.029,213.116 31.029,184.33C31.029,155.544 54.448,132.125 83.234,132.125L304.546,132.125C303.53,127.282 302.989,122.266 302.989,117.125C302.989,111.984 303.53,106.969 304.546,102.126L83.234,102.126C37.906,102.126 1.03,139.003 1.03,184.33C1.03,229.657 37.907,266.534 83.234,266.534L429.797,266.534C458.583,266.534 482.002,289.953 482.002,318.739L482.002,325.817C482.002,354.603 458.583,378.022 429.797,378.022L206.893,378.022C208.178,383.436 208.879,389.074 208.879,394.876C208.879,399.365 208.45,403.754 207.67,408.022L429.796,408.022C475.124,408.022 512,371.145 512,325.818L512,318.74C512,273.411 475.124,236.535 429.796,236.535Z" style="fill:none;fill-rule:nonzero;stroke:rgb(207,209,209);stroke-width:9.88px;"/>
                <path d="M42.884,438.873L135.88,438.873C160.141,438.873 179.879,419.135 179.879,394.874C179.879,370.613 160.141,350.875 135.88,350.875L42.884,350.875L42.884,381.787L0,381.787L0,411.786L42.884,411.786L42.884,438.873Z" style="fill:none;fill-rule:nonzero;stroke:rgb(207,209,209);stroke-width:9.88px;"/>
                <path d="M468.984,73.127L375.988,73.127C351.727,73.127 331.989,92.865 331.989,117.126C331.989,141.387 351.727,161.125 375.988,161.125L468.984,161.125L468.984,130.213L511.868,130.213L511.868,100.214L468.984,100.214L468.984,73.127Z" style="fill:none;fill-rule:nonzero;stroke:rgb(207,209,209);stroke-width:9.88px;"/>
            </g>
        </g>
    </g>
</svg>
