<?xml version="1.0" encoding="UTF-8" standalone="no"?>
<!DOCTYPE svg PUBLIC "-//W3C//DTD SVG 1.1//EN" "http://www.w3.org/Graphics/SVG/1.1/DTD/svg11.dtd">
<svg width="100%" height="100%" viewBox="0 0 28 28" version="1.1" xmlns="http://www.w3.org/2000/svg" xmlns:xlink="http://www.w3.org/1999/xlink" xml:space="preserve" xmlns:serif="http://www.serif.com/" style="fill-rule:evenodd;clip-rule:evenodd;stroke-linejoin:round;stroke-miterlimit:2;">
    <g transform="matrix(1,0,0,1,-3039.9,-3778.46)">
        <g transform="matrix(0.655301,0,0,0.655301,2781.49,2935.02)">
            <g transform="matrix(0.0965037,0,0,0.0965037,394.718,1287.5)">
                <path d="M256.522,127.96C253.043,126.139 249.133,125.18 245.199,125.18C240.224,125.18 235.428,126.676 231.34,129.504L194.249,155.125L161.214,155.125C147.769,155.125 136.828,166.066 136.828,179.511L136.828,238.021C136.828,251.466 147.769,262.407 161.214,262.407L196.118,262.407L229.087,291.442C233.55,295.36 239.28,297.522 245.214,297.522C248.604,297.522 252.042,296.79 255.155,295.4C263.966,291.433 269.599,282.703 269.599,273.144L269.599,149.558C269.6,140.462 264.593,132.187 256.522,127.96ZM253.343,273.145C253.343,276.348 251.473,279.233 248.547,280.55C247.474,281.03 246.336,281.265 245.214,281.265C243.263,281.265 241.345,280.574 239.833,279.241L202.255,246.15L161.206,246.15C156.711,246.15 153.077,242.517 153.077,238.021L153.077,179.511C153.077,175.024 156.71,171.382 161.206,171.382L199.313,171.382L240.59,142.867C241.964,141.916 243.573,141.436 245.191,141.436C246.483,141.436 247.784,141.745 248.971,142.363C251.653,143.769 253.336,146.541 253.336,149.565L253.336,273.144L253.343,273.144L253.343,273.145Z" style="fill:none;fill-rule:nonzero;stroke:rgb(207,209,209);stroke-width:7.91px;"/>
                <path d="M211.343,422.686C94.812,422.686 0,327.882 0,211.343C0,94.812 94.812,0 211.343,0C327.882,0 422.686,94.812 422.686,211.343C422.686,327.882 327.882,422.686 211.343,422.686ZM211.343,16.257C103.778,16.257 16.257,103.777 16.257,211.343C16.257,318.909 103.777,406.429 211.343,406.429C318.909,406.429 406.429,318.909 406.429,211.343C406.429,103.777 318.908,16.257 211.343,16.257Z" style="fill:none;fill-rule:nonzero;stroke:rgb(207,209,209);stroke-width:7.91px;"/>
                <path d="M374.597,203.214L342.083,203.214L342.083,170.7L325.826,170.7L325.826,203.214L293.311,203.214L293.311,219.472L325.826,219.472L325.826,251.986L342.083,251.986L342.083,219.472L374.597,219.472L374.597,203.214Z" style="fill:none;fill-rule:nonzero;stroke:rgb(207,209,209);stroke-width:7.91px;"/>
                <g transform="matrix(1,0,0,1,-256.281,0.008)">
                    <path d="M374.597,203.214L293.311,203.214L293.311,219.472L374.597,219.472L374.597,203.214Z" style="fill:none;fill-rule:nonzero;stroke:rgb(207,209,209);stroke-width:7.91px;"/>
                </g>
            </g>
        </g>
    </g>
</svg>
