<?xml version="1.0" encoding="UTF-8" standalone="no"?>
<!DOCTYPE svg PUBLIC "-//W3C//DTD SVG 1.1//EN" "http://www.w3.org/Graphics/SVG/1.1/DTD/svg11.dtd">
<svg width="100%" height="100%" viewBox="0 0 26 26" version="1.1" xmlns="http://www.w3.org/2000/svg" xmlns:xlink="http://www.w3.org/1999/xlink" xml:space="preserve" xmlns:serif="http://www.serif.com/" style="fill-rule:evenodd;clip-rule:evenodd;stroke-linejoin:round;stroke-miterlimit:2;">
    <g transform="matrix(1,0,0,1,-2616.53,-1465.19)">
        <g transform="matrix(0.655301,0,0,0.655301,2363.28,458.186)">
            <g id="мать" transform="matrix(0.0742895,0,0,0.0742895,386.838,1537.07)">
                <g>
                    <g>
                        <path d="M497,0L15,0C6.716,0 0,6.716 0,15L0,497C0,505.284 6.716,512 15,512L497,512C505.284,512 512,505.284 512,497L512,15C512,6.716 505.284,0 497,0ZM482,482L30,482L30,30L482,30L482,482Z" style="fill:none;fill-rule:nonzero;stroke:rgb(207,209,209);stroke-width:10.04px;"/>
                    </g>
                </g>
                <g>
                    <g>
                        <path d="M216.974,330.026L90,330.026C81.716,330.026 75,336.742 75,345.026L75,432C75,440.284 81.716,447 90,447L216.974,447C225.258,447 231.974,440.284 231.974,432L231.974,345.026C231.974,336.742 225.258,330.026 216.974,330.026ZM138.487,417L105,417L105,360.026L138.487,360.026L138.487,417ZM201.974,417L168.487,417L168.487,360.026L201.974,360.026L201.974,417Z" style="fill:none;fill-rule:nonzero;stroke:rgb(207,209,209);stroke-width:10.04px;"/>
                    </g>
                </g>
                <g>
                    <g>
                        <path d="M90,65C81.716,65 75,71.716 75,80L75,271C75,279.284 81.716,286 90,286C98.284,286 105,279.284 105,271L105,80C105,71.716 98.284,65 90,65Z" style="fill:none;fill-rule:nonzero;stroke:rgb(207,209,209);stroke-width:10.04px;"/>
                    </g>
                </g>
                <g>
                    <g>
                        <path d="M153.487,65C145.203,65 138.487,71.716 138.487,80L138.487,271C138.487,279.284 145.203,286 153.487,286C161.771,286 168.487,279.284 168.487,271L168.487,80C168.487,71.716 161.771,65 153.487,65Z" style="fill:none;fill-rule:nonzero;stroke:rgb(207,209,209);stroke-width:10.04px;"/>
                    </g>
                </g>
                <g>
                    <g>
                        <path d="M442,181.974L407,181.974L407,165L442,165C450.284,165 457,158.284 457,150C457,141.716 450.284,135 442,135L407,135L407,130C407,121.716 400.284,115 392,115L387,115L387,80C387,71.716 380.284,65 372,65C363.716,65 357,71.716 357,80L357,115L340.026,115L340.026,80C340.026,71.716 333.31,65 325.026,65C316.742,65 310.026,71.716 310.026,80L310.026,115L305.026,115C296.742,115 290.026,121.716 290.026,130L290.026,135L255.026,135C246.742,135 240.026,141.716 240.026,150C240.026,158.284 246.742,165 255.026,165L290.026,165L290.026,181.974L255.026,181.974C246.742,181.974 240.026,188.69 240.026,196.974C240.026,205.258 246.742,211.974 255.026,211.974L290.026,211.974L290.026,216.974C290.026,225.258 296.742,231.974 305.026,231.974L310.026,231.974L310.026,266.974C310.026,275.258 316.742,281.974 325.026,281.974C333.31,281.974 340.026,275.258 340.026,266.974L340.026,231.974L357,231.974L357,266.974C357,275.258 363.716,281.974 372,281.974C380.284,281.974 387,275.258 387,266.974L387,231.974L392,231.974C400.284,231.974 407,225.258 407,216.974L407,211.974L442,211.974C450.284,211.974 457,205.258 457,196.974C457,188.69 450.284,181.974 442,181.974ZM377,201.974L320.026,201.974L320.026,145L377,145L377,201.974Z" style="fill:none;fill-rule:nonzero;stroke:rgb(207,209,209);stroke-width:10.04px;"/>
                    </g>
                </g>
                <g>
                    <g>
                        <path d="M392,330.026L305.026,330.026C296.742,330.026 290.026,336.742 290.026,345.026C290.026,353.31 296.742,360.026 305.026,360.026L392,360.026C400.284,360.026 407,353.31 407,345.026C407,336.742 400.284,330.026 392,330.026Z" style="fill:none;fill-rule:nonzero;stroke:rgb(207,209,209);stroke-width:10.04px;"/>
                    </g>
                </g>
                <g>
                    <g>
                        <path d="M392,393.513L305.026,393.513C296.742,393.513 290.026,400.229 290.026,408.513C290.026,416.797 296.742,423.513 305.026,423.513L392,423.513C400.284,423.513 407,416.797 407,408.513C407,400.229 400.284,393.513 392,393.513Z" style="fill:none;fill-rule:nonzero;stroke:rgb(207,209,209);stroke-width:10.04px;"/>
                    </g>
                </g>
            </g>
        </g>
    </g>
</svg>
