<?xml version="1.0" encoding="UTF-8" standalone="no"?>
<!DOCTYPE svg PUBLIC "-//W3C//DTD SVG 1.1//EN" "http://www.w3.org/Graphics/SVG/1.1/DTD/svg11.dtd">
<svg width="100%" height="100%" viewBox="0 0 36 36" version="1.1" xmlns="http://www.w3.org/2000/svg" xmlns:xlink="http://www.w3.org/1999/xlink" xml:space="preserve" xmlns:serif="http://www.serif.com/" style="fill-rule:evenodd;clip-rule:evenodd;stroke-linejoin:round;stroke-miterlimit:2;">
    <g transform="matrix(1,0,0,1,-75.0973,-296.582)">
        <g transform="matrix(0.0917617,0,0,0.0917617,11.4837,291.69)">
            <g id="Материиал" transform="matrix(0.743081,0,0,0.743081,695.972,56.0369)">
                <g>
                    <path d="M502.737,0L9.265,0C4.148,0 0.001,4.148 0.001,9.264L0.001,148.439C0.001,153.555 4.149,157.703 9.265,157.703C14.381,157.703 18.529,153.555 18.529,148.439L18.529,100.574L68.771,150.816L18.529,201.058L18.529,178.703C18.529,173.587 14.381,169.439 9.265,169.439C4.149,169.439 0.001,173.587 0.001,178.703L0.001,502.737C0.001,507.853 4.149,512.001 9.265,512.001L502.736,512.001C507.852,512.001 512,507.853 512,502.737L512,9.264C512.001,4.148 507.853,0 502.737,0ZM478.601,18.528L430.128,67L381.65,18.528L478.601,18.528ZM338.945,18.528L290.474,67L241.991,18.528L338.945,18.528ZM305.042,107.777C308.66,111.395 314.526,111.395 318.142,107.777C321.76,104.159 321.76,98.294 318.142,94.676L303.572,80.106L360.295,23.383L487.735,150.816L431.008,207.543L339.139,115.674C335.521,112.056 329.655,112.056 326.039,115.674C322.421,119.292 322.421,125.157 326.039,128.775L348.081,150.817L291.356,207.544L163.919,80.106L220.642,23.383L305.042,107.777ZM278.255,220.644L150.817,348.082L94.092,291.357L221.529,163.919L278.255,220.644ZM199.293,18.528L150.821,67L102.341,18.528L199.293,18.528ZM18.529,18.528L59.639,18.528L18.529,59.638L18.529,18.528ZM24.269,80.101L80.988,23.382L208.427,150.816L151.7,207.542L24.269,80.101ZM18.529,227.252C18.55,227.232 18.572,227.215 18.592,227.195L81.872,163.916L138.595,220.644L18.529,340.716L18.529,227.252ZM18.529,381.652L68.774,431.897L18.529,482.131L18.529,381.652ZM33.392,493.472L81.877,444.998L130.351,493.472L33.392,493.472ZM24.269,361.187L80.992,304.458L208.427,431.893L151.7,488.619L24.269,361.187ZM173.052,493.472L221.529,444.995L270.006,493.472L173.052,493.472ZM163.918,361.182L220.645,304.457L348.082,431.894L291.357,488.621L163.918,361.182ZM312.706,493.472L361.183,444.995L409.66,493.472L312.706,493.472ZM303.573,361.182L322.393,342.363C326.011,338.745 326.011,332.88 322.393,329.262C318.775,325.644 312.909,325.644 309.292,329.262L290.472,348.082L233.745,291.355L361.182,163.918L417.909,220.645L327.82,310.734C324.202,314.352 324.202,320.217 327.82,323.835C331.438,327.453 337.304,327.453 340.921,323.835L360.299,304.457L487.734,431.896L431.01,488.62L303.573,361.182ZM493.471,493.472L452.36,493.472L493.471,452.361L493.471,493.472ZM493.471,411.426L443.23,361.186L493.471,310.933L493.471,411.426ZM493.397,284.804L430.13,348.086L373.4,291.357L493.471,171.285L493.471,284.737L493.472,284.737C493.448,284.759 493.422,284.78 493.397,284.804ZM493.473,130.343L443.231,80.101L493.473,29.859L493.473,130.343Z" style="fill:none;fill-rule:nonzero;stroke:rgb(207,209,209);stroke-width:7.33px;"/>
                </g>
            </g>
        </g>
    </g>
</svg>
