<?xml version="1.0" encoding="UTF-8" standalone="no"?>
<!DOCTYPE svg PUBLIC "-//W3C//DTD SVG 1.1//EN" "http://www.w3.org/Graphics/SVG/1.1/DTD/svg11.dtd">
<svg width="100%" height="100%" viewBox="0 0 38 38" version="1.1" xmlns="http://www.w3.org/2000/svg" xmlns:xlink="http://www.w3.org/1999/xlink" xml:space="preserve" xmlns:serif="http://www.serif.com/" style="fill-rule:evenodd;clip-rule:evenodd;stroke-linejoin:round;stroke-miterlimit:2;">
    <g transform="matrix(1,0,0,1,-61.3618,-13.2265)">
        <g id="Тип-матрицы" serif:id="Тип матрицы" transform="matrix(0.0578207,0,0,0.0578207,60.3975,12.2623)">
            <path d="M618.336,213C641.898,213 661,193.895 661,170.332L661,63.664C661,40.102 641.898,21 618.336,21L511.668,21C488.105,21 469,40.102 469,63.664L469,85L437,85L437,63.664C437,40.102 417.898,21 394.336,21L287.664,21C264.102,21 245,40.102 245,63.664L245,85L213,85L213,63.664C213,40.102 193.895,21 170.332,21L63.664,21C40.102,21 21,40.102 21,63.664L21,170.332C21,193.895 40.102,213 63.664,213L85,213L85,245L63.664,245C40.102,245 21,264.102 21,287.664L21,394.336C21,417.898 40.102,437 63.664,437L85,437L85,469L63.664,469C40.102,469 21,488.105 21,511.668L21,618.336C21,641.898 40.102,661 63.664,661L170.332,661C193.895,661 213,641.898 213,618.336L213,597L245,597L245,618.336C245,641.898 264.102,661 287.664,661L394.336,661C417.898,661 437,641.898 437,618.336L437,597L469,597L469,618.336C469,641.898 488.105,661 511.668,661L618.336,661C641.898,661 661,641.898 661,618.336L661,511.668C661,488.105 641.898,469 618.336,469L597,469L597,437L618.336,437C641.898,437 661,417.898 661,394.336L661,287.664C661,264.102 641.898,245 618.336,245L597,245L597,213L618.336,213ZM490.332,63.664C490.332,51.883 499.887,42.332 511.668,42.332L618.336,42.332C630.117,42.332 639.668,51.883 639.668,63.664L639.668,170.332C639.668,182.113 630.117,191.668 618.336,191.668L511.668,191.668C499.887,191.668 490.332,182.113 490.332,170.332L490.332,63.664ZM511.668,245C488.105,245 469,264.102 469,287.664L469,394.336C469,417.898 488.105,437 511.668,437L533,437L533,469L511.668,469C488.105,469 469,488.105 469,511.668L469,533L437,533L437,511.668C437,488.105 417.898,469 394.336,469L287.664,469C264.102,469 245,488.105 245,511.668L245,533L213,533L213,511.668C213,488.105 193.895,469 170.332,469L149,469L149,437L170.332,437C193.895,437 213,417.898 213,394.336L213,287.664C213,264.102 193.895,245 170.332,245L149,245L149,213L170.332,213C193.895,213 213,193.895 213,170.332L213,149L245,149L245,170.332C245,193.895 264.102,213 287.664,213L394.336,213C417.898,213 437,193.895 437,170.332L437,149L469,149L469,170.332C469,193.895 488.105,213 511.668,213L533,213L533,245L511.668,245ZM469,106.332L469,127.664L437,127.664L437,106.332L469,106.332ZM266.332,63.664C266.332,51.883 275.883,42.332 287.664,42.332L394.336,42.332C406.117,42.332 415.668,51.883 415.668,63.664L415.668,170.332C415.668,182.113 406.117,191.668 394.336,191.668L287.664,191.668C275.883,191.668 266.332,182.113 266.332,170.332L266.332,63.664ZM245,106.332L245,127.664L213,127.664L213,106.332L245,106.332ZM42.332,170.332L42.332,63.664C42.332,51.883 51.883,42.332 63.664,42.332L170.332,42.332C182.113,42.332 191.668,51.883 191.668,63.664L191.668,170.332C191.668,182.113 182.113,191.668 170.332,191.668L63.664,191.668C51.883,191.668 42.332,182.113 42.332,170.332ZM106.332,213L127.664,213L127.664,245L106.332,245L106.332,213ZM42.332,394.336L42.332,287.664C42.332,275.883 51.883,266.332 63.664,266.332L170.332,266.332C182.113,266.332 191.668,275.883 191.668,287.664L191.668,394.336C191.668,406.117 182.113,415.668 170.332,415.668L63.664,415.668C51.883,415.668 42.332,406.117 42.332,394.336ZM106.332,437L127.664,437L127.664,469L106.332,469L106.332,437ZM191.668,618.336C191.668,630.117 182.113,639.668 170.332,639.668L63.664,639.668C51.883,639.668 42.332,630.117 42.332,618.336L42.332,511.668C42.332,499.887 51.883,490.332 63.664,490.332L170.332,490.332C182.113,490.332 191.668,499.887 191.668,511.668L191.668,618.336ZM213,575.668L213,554.336L245,554.336L245,575.668L213,575.668ZM415.668,618.336C415.668,630.117 406.117,639.668 394.336,639.668L287.664,639.668C275.883,639.668 266.332,630.117 266.332,618.336L266.332,511.668C266.332,499.887 275.883,490.332 287.664,490.332L394.336,490.332C406.117,490.332 415.668,499.887 415.668,511.668L415.668,618.336ZM437,575.668L437,554.336L469,554.336L469,575.668L437,575.668ZM639.668,511.668L639.668,618.336C639.668,630.117 630.117,639.668 618.336,639.668L511.668,639.668C499.887,639.668 490.332,630.117 490.332,618.336L490.332,511.668C490.332,499.887 499.887,490.332 511.668,490.332L618.336,490.332C630.117,490.332 639.668,499.887 639.668,511.668ZM575.668,469L554.336,469L554.336,437L575.668,437L575.668,469ZM639.668,287.664L639.668,394.336C639.668,406.117 630.117,415.668 618.336,415.668L511.668,415.668C499.887,415.668 490.332,406.117 490.332,394.336L490.332,287.664C490.332,275.883 499.887,266.332 511.668,266.332L618.336,266.332C630.117,266.332 639.668,275.883 639.668,287.664ZM575.668,245L554.336,245L554.336,213L575.668,213L575.668,245Z" style="fill:none;fill-rule:nonzero;stroke:rgb(207,209,209);stroke-width:8.65px;"/>
            <path d="M394.336,245L287.664,245C264.102,245 245,264.102 245,287.664L245,394.336C245,417.898 264.102,437 287.664,437L394.336,437C417.898,437 437,417.898 437,394.336L437,287.664C437,264.102 417.898,245 394.336,245ZM415.668,394.336C415.668,406.117 406.117,415.668 394.336,415.668L287.664,415.668C275.883,415.668 266.332,406.117 266.332,394.336L266.332,287.664C266.332,275.883 275.883,266.332 287.664,266.332L394.336,266.332C406.117,266.332 415.668,275.883 415.668,287.664L415.668,394.336Z" style="fill:none;fill-rule:nonzero;stroke:rgb(207,209,209);stroke-width:8.65px;"/>
            <path d="M117,74.336C117,68.441 112.227,63.664 106.332,63.664L74.336,63.664C68.441,63.664 63.664,68.441 63.664,74.336L63.664,106.332C63.664,112.227 68.441,117 74.336,117C80.223,117 85,112.227 85,106.332L85,85L106.332,85C112.227,85 117,80.223 117,74.336Z" style="fill:none;fill-rule:nonzero;stroke:rgb(207,209,209);stroke-width:8.65px;"/>
            <path d="M565,607.664C565,613.559 569.773,618.336 575.668,618.336L607.664,618.336C613.559,618.336 618.336,613.559 618.336,607.664L618.336,575.668C618.336,569.773 613.559,565 607.664,565C601.777,565 597,569.773 597,575.668L597,597L575.668,597C569.773,597 565,601.777 565,607.664Z" style="fill:none;fill-rule:nonzero;stroke:rgb(207,209,209);stroke-width:8.65px;"/>
        </g>
    </g>
</svg>
