<?xml version="1.0" encoding="UTF-8" standalone="no"?>
<!DOCTYPE svg PUBLIC "-//W3C//DTD SVG 1.1//EN" "http://www.w3.org/Graphics/SVG/1.1/DTD/svg11.dtd">
<svg width="100%" height="100%" viewBox="0 0 26 39" version="1.1" xmlns="http://www.w3.org/2000/svg" xmlns:xlink="http://www.w3.org/1999/xlink" xml:space="preserve" xmlns:serif="http://www.serif.com/" style="fill-rule:evenodd;clip-rule:evenodd;stroke-linejoin:round;stroke-miterlimit:2;">
    <g transform="matrix(1,0,0,1,-73.1263,-227.954)">
        <g id="Микрофон" transform="matrix(0.102326,0,0,0.102326,67.0274,228.404)">
            <g>
                <g>
                    <path d="M184,0C144.304,0 112,33.584 112,74.856L112,184C112,225.28 144.304,258.856 184,258.856C223.696,258.856 256,225.28 256,184L256,74.856C256,33.584 223.696,0 184,0ZM184,242.856C155.712,242.856 132.312,220.672 128.576,192L239.416,192C235.688,220.68 212.288,242.856 184,242.856ZM240,176L128,176L128,74.856C128,42.4 153.12,16 184,16C214.88,16 240,42.4 240,74.856L240,176Z" style="fill:none;fill-rule:nonzero;stroke:rgb(207,209,209);stroke-width:8.8px;"/>
                </g>
            </g>
            <g>
                <g>
                    <path d="M296,144C291.584,144 288,147.584 288,152L288,184C288,241.344 241.344,288 184,288C126.656,288 80,241.344 80,184L80,152C80,147.584 76.416,144 72,144C67.584,144 64,147.584 64,152L64,184C64,247.464 113.56,299.448 176,303.592L176,352L136,352C131.584,352 128,355.584 128,360C128,364.416 131.584,368 136,368L232,368C236.416,368 240,364.416 240,360C240,355.584 236.416,352 232,352L192,352L192,303.592C254.44,299.448 304,247.464 304,184L304,152C304,147.584 300.416,144 296,144Z" style="fill:none;fill-rule:nonzero;stroke:rgb(207,209,209);stroke-width:8.8px;"/>
                </g>
            </g>
        </g>
    </g>
</svg>
