<?xml version="1.0" encoding="UTF-8" standalone="no"?>
<!DOCTYPE svg PUBLIC "-//W3C//DTD SVG 1.1//EN" "http://www.w3.org/Graphics/SVG/1.1/DTD/svg11.dtd">
<svg width="100%" height="100%" viewBox="0 0 71 71" version="1.1" xmlns="http://www.w3.org/2000/svg" xmlns:xlink="http://www.w3.org/1999/xlink" xml:space="preserve" xmlns:serif="http://www.serif.com/" style="fill-rule:evenodd;clip-rule:evenodd;stroke-linecap:round;stroke-linejoin:round;stroke-miterlimit:1.5;">
    <g transform="matrix(1,0,0,1,-7238.03,-3016.63)">
        <g transform="matrix(1.91517,0,0,2.04863,8725.24,2281.38)">
            <g id="значок-одобрения" serif:id="значок одобрения" transform="matrix(0.286414,0,0,0.286414,-544.665,262.11)">
                <g transform="matrix(0.462443,0,0,0.432317,-1313.68,-44.5105)">
                    <circle cx="1229.02" cy="1023.55" r="132.933" style="fill:none;stroke:rgb(198,0,0);stroke-width:12.01px;"/>
                </g>
                <g transform="matrix(3.21435,3.00494,-0.443229,0.414354,-4253.27,-3739.41)">
                    <path d="M1236.39,973.105C1236.39,971.136 1236.29,969.248 1236.09,967.856C1235.9,966.464 1235.64,965.682 1235.37,965.682C1235.37,965.682 1235.37,965.682 1235.37,965.682C1235.1,965.682 1234.84,966.464 1234.65,967.856C1234.45,969.248 1234.35,971.136 1234.35,973.105C1234.35,997.826 1234.35,1075.82 1234.35,1075.82L1236.39,1075.82L1236.39,973.105Z" style="fill:rgb(198,0,0);"/>
                </g>
                <g transform="matrix(3.21435,-3.00494,0.210043,0.19636,-4954.24,3923.99)">
                    <path d="M1236.39,981.345C1236.39,977.191 1236.29,973.207 1236.09,970.27C1235.9,967.333 1235.64,965.682 1235.37,965.682C1235.37,965.682 1235.37,965.682 1235.37,965.682C1235.1,965.682 1234.84,967.333 1234.65,970.27C1234.45,973.207 1234.35,977.191 1234.35,981.345C1234.35,997.717 1234.35,1023.85 1234.35,1044.48C1234.35,1052.79 1234.56,1060.76 1234.95,1066.64C1235.33,1072.52 1235.85,1075.82 1236.39,1075.82C1236.39,1075.82 1236.39,1075.82 1236.39,1075.82L1236.39,981.345Z" style="fill:rgb(198,0,0);"/>
                </g>
            </g>
        </g>
    </g>
</svg>
