<?xml version="1.0" encoding="UTF-8" standalone="no"?>
<!DOCTYPE svg PUBLIC "-//W3C//DTD SVG 1.1//EN" "http://www.w3.org/Graphics/SVG/1.1/DTD/svg11.dtd">
<svg width="100%" height="100%" viewBox="0 0 26 26" version="1.1" xmlns="http://www.w3.org/2000/svg" xmlns:xlink="http://www.w3.org/1999/xlink" xml:space="preserve" xmlns:serif="http://www.serif.com/" style="fill-rule:evenodd;clip-rule:evenodd;stroke-linejoin:round;stroke-miterlimit:2;">
    <g transform="matrix(1,0,0,1,-2616.53,-1521.32)">
        <g transform="matrix(0.655301,0,0,0.655301,2363.28,458.186)">
            <g id="ssd" transform="matrix(0.0737582,0,0,0.0737582,386.838,1622.74)">
                <path d="M482,0L30,0C13.458,0 0,13.458 0,30L0,482C0,498.542 13.458,512 30,512L482,512C498.542,512 512,498.542 512,482L512,30C512,13.458 498.542,0 482,0ZM482,482L30,482L30,30L482,30C482.019,491.689 482.1,482 482,482Z" style="fill:none;fill-rule:nonzero;stroke:rgb(207,209,209);stroke-width:10.34px;"/>
                <path d="M443.002,255.311C443.002,213.256 419.022,185 383.33,185L352,185C343.71,185 336.984,191.734 337,200.028C337.118,262.242 337.034,257.602 337.225,310.674C337.256,318.944 343.974,325.62 352.225,325.62C355.235,325.62 376.944,325.506 384.509,325.374C418.402,324.783 443.002,295.317 443.002,255.311ZM383.984,295.38C380.099,295.448 373.415,295.503 367.172,295.543C367.064,262.98 367.097,258.254 367.026,215L383.329,215C410.861,215 413.001,245.854 413.001,255.311C413.002,275.003 404.029,295.03 383.984,295.38Z" style="fill:none;fill-rule:nonzero;stroke:rgb(207,209,209);stroke-width:10.34px;"/>
                <path d="M82.93,94.71C91.005,93.028 96.27,85.405 94.71,77.07C92.829,68.094 83.948,63.171 75.64,65.65C67.812,68.201 63.911,75.563 65.29,82.93C66.974,91.045 74.642,96.263 82.93,94.71Z" style="fill:none;fill-rule:nonzero;stroke:rgb(207,209,209);stroke-width:10.34px;"/>
                <path d="M436.359,94.35C444.309,91.751 448.065,84.311 446.71,77.07C444.828,68.087 435.952,63.17 427.64,65.65C419.081,68.439 415.425,76.877 417.65,84.36C420.016,92.1 428.178,96.782 436.359,94.35Z" style="fill:none;fill-rule:nonzero;stroke:rgb(207,209,209);stroke-width:10.34px;"/>
                <path d="M427.64,417.65C419.081,420.439 415.425,428.877 417.65,436.36C420.017,444.102 428.18,448.782 436.36,446.35C444.215,443.782 448.085,436.415 446.711,429.07C444.828,420.087 435.952,415.17 427.64,417.65Z" style="fill:none;fill-rule:nonzero;stroke:rgb(207,209,209);stroke-width:10.34px;"/>
                <path d="M75.64,417.65C67.022,420.458 63.442,428.936 65.65,436.36C68.474,444.997 76.937,448.557 84.36,446.35C92.327,443.745 96.063,436.296 94.711,429.07C92.843,420.163 84.019,415.15 75.64,417.65Z" style="fill:none;fill-rule:nonzero;stroke:rgb(207,209,209);stroke-width:10.34px;"/>
                <path d="M142.813,243.822C128.94,238.705 116.015,233.134 111.913,231.34C107.416,227.62 108.602,218.987 118.009,216.153C133.823,211.39 148.566,223.15 148.715,223.269C148.714,223.268 148.716,223.264 148.716,223.262C158.368,231.371 173.354,224.581 173.354,211.775C173.354,206.961 171.077,202.687 167.551,199.943C164.22,197.265 139.318,178.401 109.357,187.428C74.99,197.781 69.553,239.595 96.268,257.013C100.302,259.639 127.633,270.198 132.432,271.968C136.193,273.355 148.351,278.514 146.898,286.65C145.815,292.717 138.347,298.993 127.724,298.993C116.603,298.993 105.908,294.518 99.116,287.023C93.554,280.885 84.067,280.417 77.928,285.98C71.789,291.543 71.323,301.029 76.885,307.168C89.454,321.039 107.984,328.994 127.724,328.994C179.192,328.993 199.792,264.839 142.813,243.822Z" style="fill:none;fill-rule:nonzero;stroke:rgb(207,209,209);stroke-width:10.34px;"/>
                <path d="M276.697,223.276C276.692,223.272 276.67,223.255 276.635,223.227C276.597,223.302 276.671,223.255 276.697,223.276Z" style="fill:none;fill-rule:nonzero;stroke:rgb(207,209,209);stroke-width:10.34px;"/>
                <path d="M270.813,243.822C256.94,238.705 244.015,233.134 239.913,231.34C235.416,227.62 236.602,218.987 246.009,216.153C261.823,211.39 276.566,223.15 276.715,223.269C276.714,223.268 276.716,223.264 276.716,223.262C286.368,231.371 301.354,224.581 301.354,211.775C301.354,206.961 299.077,202.687 295.551,199.943C292.22,197.265 267.318,178.401 237.357,187.428C202.99,197.781 197.553,239.595 224.268,257.013C228.302,259.639 255.633,270.198 260.432,271.968C264.193,273.355 276.351,278.514 274.898,286.65C273.815,292.717 266.347,298.993 255.724,298.993C244.603,298.993 233.908,294.518 227.116,287.023C221.554,280.885 212.067,280.417 205.928,285.98C199.789,291.543 199.323,301.029 204.885,307.168C217.454,321.039 235.984,328.994 255.724,328.994C307.192,328.993 327.792,264.839 270.813,243.822Z" style="fill:none;fill-rule:nonzero;stroke:rgb(207,209,209);stroke-width:10.34px;"/>
            </g>
        </g>
    </g>
</svg>
