<?xml version="1.0" encoding="UTF-8" standalone="no"?>
<!DOCTYPE svg PUBLIC "-//W3C//DTD SVG 1.1//EN" "http://www.w3.org/Graphics/SVG/1.1/DTD/svg11.dtd">
<svg width="100%" height="100%" viewBox="0 0 53 37" version="1.1" xmlns="http://www.w3.org/2000/svg" xmlns:xlink="http://www.w3.org/1999/xlink" xml:space="preserve" xmlns:serif="http://www.serif.com/" style="fill-rule:evenodd;clip-rule:evenodd;stroke-linejoin:round;stroke-miterlimit:2;">
    <g transform="matrix(1,0,0,1,-129.765,-462.139)">
        <g id="Тип-столешницы" serif:id="Тип столешницы" transform="matrix(1,0,0,1,11.6064,0)">
            <g id="Тип-столешницы1" serif:id="Тип столешницы" transform="matrix(0.10791,0,0,0.10791,118.409,454.62)">
                <path d="M464,184L472,184C476.418,184 480,180.418 480,176L480,127.848C479.977,126.922 479.793,126.008 479.457,125.145C479.359,124.922 479.254,124.699 479.137,124.488C479.004,124.172 478.855,123.859 478.687,123.559L446.687,75.559C445.199,73.324 442.687,71.988 440,72L40,72C37.324,72 34.828,73.336 33.344,75.559L1.344,123.559C1.176,123.859 1.027,124.172 0.895,124.488C0.777,124.699 0.672,124.922 0.574,125.145C0.227,126.004 0.031,126.918 -0,127.848L-0,176C-0,180.418 3.582,184 8,184L16,184M44.281,88L435.719,88L457.055,120L22.945,120L44.281,88ZM32,184L448.864,183.69M464,168L16,168L16,136L464,136L464,168Z" style="fill:none;fill-rule:nonzero;stroke:rgb(207,209,209);stroke-width:4.63px;"/>
            </g>
            <g id="Слой2">
                <path d="M120.182,474.641L120.132,497.449C120.132,497.449 119.784,498.651 121.029,498.647C125.511,498.544 126.258,498.647 126.258,498.647C126.258,498.647 127.154,499.789 127.054,496.751C127.054,493.813 127.154,477.878 127.154,477.878L161.564,477.878L161.564,497.449C161.564,497.449 161.415,498.551 162.859,498.647C164.453,498.594 167.59,498.647 167.59,498.647C167.59,498.647 168.785,498.694 168.586,496.702C168.486,494.66 168.636,474.442 168.636,474.442" style="fill:none;stroke:rgb(207,209,209);stroke-width:0.2px;stroke-linecap:round;stroke-miterlimit:1.5;stroke-dasharray:0.4,1,0,0;"/>
                <path d="M121.779,474.442L122.028,496.68L125.451,496.804L125.265,477.072C125.265,477.072 125.265,476.014 126.323,476.076L162.177,476.076C162.177,476.076 163.547,475.64 163.422,477.445C163.298,479.251 163.422,496.804 163.422,496.804L166.784,496.804L166.846,474.442" style="fill:none;stroke:rgb(207,209,209);stroke-width:0.2px;stroke-linecap:round;stroke-miterlimit:1.5;stroke-dasharray:0.4,1,0,0;"/>
            </g>
        </g>
    </g>
</svg>
