<?xml version="1.0" encoding="UTF-8" standalone="no"?>
<!DOCTYPE svg PUBLIC "-//W3C//DTD SVG 1.1//EN" "http://www.w3.org/Graphics/SVG/1.1/DTD/svg11.dtd">
<svg width="100%" height="100%" viewBox="0 0 41 41" version="1.1" xmlns="http://www.w3.org/2000/svg" xmlns:xlink="http://www.w3.org/1999/xlink" xml:space="preserve" xmlns:serif="http://www.serif.com/" style="fill-rule:evenodd;clip-rule:evenodd;stroke-linejoin:round;stroke-miterlimit:2;">
    <g transform="matrix(1,0,0,1,-10.6628,-12.8941)">
        <g transform="matrix(0.0789958,0,0,0.0789958,10.9128,13.1441)">
            <g id="Тип-экрана" serif:id="Тип экрана">
                <g id="Тип-экрана1" serif:id="Тип экрана">
                    <path d="M375.555,413.988L33.016,413.988C23.082,413.988 15.004,405.906 15.004,395.973L15.004,367.52L496.984,367.52L496.984,395.973C496.984,405.906 488.902,413.988 478.969,413.988L375.555,413.988M193.98,428.988L318.004,428.988L318.004,455.891L193.98,455.891L193.98,428.988ZM156.328,470.895L355.656,470.895C362.492,470.895 368.055,476.457 368.055,483.293L368.055,497L143.93,497L143.93,483.293C143.93,476.457 149.492,470.895 156.328,470.895ZM496.984,352.52L15.004,352.52L15.004,33.016C15.004,23.082 23.082,15.004 33.016,15.004L478.969,15.004C488.902,15.004 496.984,23.082 496.984,33.016L496.984,352.52Z" style="fill:none;fill-rule:nonzero;stroke:rgb(207,209,209);stroke-width:6.33px;"/>
                    <path d="M375.555,428.988C371.41,428.988 418.879,428.988 423.023,428.988L478.969,428.988C497.176,428.988 511.984,414.176 511.984,395.973L511.984,33.016C511.984,14.813 497.176,0 478.969,0L33.016,0C14.813,0 0,14.813 0,33.016L0,395.973C0,414.176 14.813,428.988 33.016,428.988L178.98,428.988L178.98,455.891L156.328,455.891C141.223,455.891 128.93,468.184 128.93,483.293L128.93,499.5C128.93,506.395 134.535,512 141.43,512L370.555,512C377.449,512 383.055,506.395 383.055,499.5L383.055,483.293C383.055,468.184 370.766,455.891 355.656,455.891L333.004,455.891L333.004,428.988L375.555,428.988C379.695,428.988 427.164,428.988 423.023,428.988" style="fill:none;fill-rule:nonzero;stroke:rgb(207,209,209);stroke-width:6.33px;"/>
                    <path d="M389.27,93.789L379.27,93.789C375.125,93.789 371.766,97.148 371.766,101.289C371.766,105.434 375.125,108.793 379.27,108.793L389.27,108.793C393.414,108.793 396.773,105.434 396.773,101.289C396.773,97.148 393.414,93.789 389.27,93.789Z" style="fill:none;fill-rule:nonzero;stroke:rgb(207,209,209);stroke-width:6.33px;"/>
                    <path d="M469.285,93.789L459.281,93.789C455.141,93.789 451.781,97.148 451.781,101.289C451.781,105.434 455.141,108.793 459.281,108.793L469.285,108.793C473.43,108.793 476.785,105.434 476.785,101.289C476.785,97.148 473.43,93.789 469.285,93.789Z" style="fill:none;fill-rule:nonzero;stroke:rgb(207,209,209);stroke-width:6.33px;"/>
                    <path d="M429.277,93.789L419.277,93.789C415.133,93.789 411.773,97.148 411.773,101.289C411.773,105.434 415.133,108.793 419.277,108.793L429.277,108.793C433.422,108.793 436.777,105.434 436.777,101.289C436.777,97.148 433.422,93.789 429.277,93.789Z" style="fill:none;fill-rule:nonzero;stroke:rgb(207,209,209);stroke-width:6.33px;"/>
                    <path d="M429.277,165.695L419.277,165.695C415.133,165.695 411.773,169.051 411.773,173.195C411.773,177.34 415.133,180.695 419.277,180.695L429.277,180.695C433.422,180.695 436.777,177.34 436.777,173.195C436.777,169.051 433.422,165.695 429.277,165.695Z" style="fill:none;fill-rule:nonzero;stroke:rgb(207,209,209);stroke-width:6.33px;"/>
                    <path d="M389.27,165.695L379.27,165.695C375.125,165.695 371.766,169.051 371.766,173.195C371.766,177.34 375.125,180.695 379.27,180.695L389.27,180.695C393.414,180.695 396.773,177.34 396.773,173.195C396.773,169.051 393.414,165.695 389.27,165.695Z" style="fill:none;fill-rule:nonzero;stroke:rgb(207,209,209);stroke-width:6.33px;"/>
                    <path d="M469.285,165.695L459.281,165.695C455.141,165.695 451.781,169.051 451.781,173.195C451.781,177.34 455.141,180.695 459.281,180.695L469.285,180.695C473.43,180.695 476.785,177.34 476.785,173.195C476.785,169.051 473.43,165.695 469.285,165.695Z" style="fill:none;fill-rule:nonzero;stroke:rgb(207,209,209);stroke-width:6.33px;"/>
                    <path d="M50.508,93.789L40.508,93.789C36.363,93.789 33.004,97.148 33.004,101.289C33.004,105.434 36.363,108.793 40.508,108.793L50.508,108.793C54.652,108.793 58.012,105.434 58.012,101.289C58.012,97.148 54.652,93.789 50.508,93.789Z" style="fill:none;fill-rule:nonzero;stroke:rgb(207,209,209);stroke-width:6.33px;"/>
                    <path d="M90.516,93.789L80.516,93.789C76.371,93.789 73.012,97.148 73.012,101.289C73.012,105.434 76.371,108.793 80.516,108.793L90.516,108.793C94.66,108.793 98.016,105.434 98.016,101.289C98.016,97.148 94.66,93.789 90.516,93.789Z" style="fill:none;fill-rule:nonzero;stroke:rgb(207,209,209);stroke-width:6.33px;"/>
                    <path d="M130.523,93.789L120.52,93.789C116.379,93.789 113.02,97.148 113.02,101.289C113.02,105.434 116.379,108.793 120.52,108.793L130.523,108.793C134.668,108.793 138.023,105.434 138.023,101.289C138.023,97.148 134.664,93.789 130.523,93.789Z" style="fill:none;fill-rule:nonzero;stroke:rgb(207,209,209);stroke-width:6.33px;"/>
                    <path d="M50.508,165.695L40.508,165.695C36.363,165.695 33.004,169.051 33.004,173.195C33.004,177.34 36.363,180.695 40.508,180.695L50.508,180.695C54.652,180.695 58.012,177.34 58.012,173.195C58.012,169.051 54.652,165.695 50.508,165.695Z" style="fill:none;fill-rule:nonzero;stroke:rgb(207,209,209);stroke-width:6.33px;"/>
                    <path d="M90.516,165.695L80.516,165.695C76.371,165.695 73.012,169.051 73.012,173.195C73.012,177.34 76.371,180.695 80.516,180.695L90.516,180.695C94.66,180.695 98.016,177.34 98.016,173.195C98.016,169.051 94.66,165.695 90.516,165.695Z" style="fill:none;fill-rule:nonzero;stroke:rgb(207,209,209);stroke-width:6.33px;"/>
                    <path d="M130.523,165.695L120.52,165.695C116.379,165.695 113.02,169.051 113.02,173.195C113.02,177.34 116.379,180.695 120.52,180.695L130.523,180.695C134.668,180.695 138.023,177.34 138.023,173.195C138.023,169.051 134.664,165.695 130.523,165.695Z" style="fill:none;fill-rule:nonzero;stroke:rgb(207,209,209);stroke-width:6.33px;"/>
                    <path d="M240.613,195.656L240.613,146.59C240.613,140.797 235.902,136.086 230.113,136.086L215.789,136.086C215.328,136.086 214.871,136.113 214.437,136.172C193.574,138.781 186.211,158.051 183.785,168L167.934,168L167.934,106.676L344.051,106.676L344.051,168L328.199,168C325.773,158.051 318.414,138.781 297.566,136.172C297.121,136.117 296.66,136.086 296.195,136.086L281.871,136.086C276.082,136.086 271.371,140.797 271.371,146.59L271.371,278.891C271.164,281.98 270.785,295.586 278.977,304.285C283.359,308.938 289.402,311.367 296.406,311.254L307.293,311.254L307.293,321.82L204.695,321.82L204.695,311.254L215.48,311.25C222.602,311.355 228.629,308.938 233.008,304.285C241.18,295.609 240.82,282.051 240.613,278.883L240.613,195.656" style="fill:none;fill-rule:nonzero;stroke:rgb(207,209,209);stroke-width:6.33px;"/>
                    <path d="M225.613,195.656L225.609,279.043C225.609,279.316 225.621,279.574 225.637,279.813C225.836,282.5 225.578,290.289 222.086,294C221.152,294.988 219.465,296.32 215.578,296.25L200.191,296.25C194.398,296.25 189.687,300.961 189.687,306.754L189.687,326.324C189.687,332.113 194.398,336.824 200.191,336.824L311.789,336.824C317.582,336.824 322.293,332.113 322.293,326.324L322.293,306.754C322.293,300.961 317.582,296.25 311.789,296.25L296.305,296.25C296.234,296.254 296.164,296.254 296.094,296.254C292.449,296.254 290.812,294.973 289.898,294C286.402,290.289 286.148,282.5 286.34,279.848C286.363,279.574 286.371,279.316 286.371,279.043L286.371,151.09L295.926,151.09C300.516,151.742 310.91,155.34 314.195,174.301C315.074,179.344 319.426,183.004 324.543,183.004L348.551,183.004C354.34,183.004 359.051,178.293 359.051,172.5L359.051,102.176C359.051,96.383 354.34,91.672 348.551,91.672L163.434,91.672C157.641,91.672 152.934,96.383 152.934,102.176L152.934,172.5C152.934,178.289 157.641,183 163.434,183L187.441,183C192.562,183 196.914,179.34 197.785,174.297C201.07,155.355 211.453,151.746 216.059,151.09L225.613,151.09L225.613,195.656" style="fill:none;fill-rule:nonzero;stroke:rgb(207,209,209);stroke-width:6.33px;"/>
                    <path d="M343.254,34.746C340.324,31.82 335.574,31.82 332.645,34.746C329.715,37.676 329.715,42.426 332.645,45.355L333.441,46.152L178.543,46.152L179.34,45.355C182.27,42.426 182.27,37.676 179.34,34.746C176.41,31.82 171.66,31.82 168.73,34.746L155.129,48.348C152.199,51.281 152.199,56.027 155.129,58.957L168.73,72.563C170.195,74.023 172.117,74.758 174.035,74.758C175.953,74.758 177.875,74.023 179.34,72.563C182.27,69.629 182.27,64.883 179.34,61.953L178.543,61.156L333.441,61.156L332.645,61.953C329.715,64.883 329.715,69.633 332.645,72.563C334.109,74.023 336.031,74.758 337.949,74.758C339.867,74.758 341.789,74.023 343.254,72.563L356.855,58.957C359.785,56.027 359.785,51.277 356.855,48.348L343.254,34.746Z" style="fill:none;fill-rule:nonzero;stroke:rgb(207,209,209);stroke-width:6.33px;"/>
                </g>
            </g>
        </g>
    </g>
</svg>
