<?xml version="1.0" encoding="UTF-8" standalone="no"?>
<!DOCTYPE svg PUBLIC "-//W3C//DTD SVG 1.1//EN" "http://www.w3.org/Graphics/SVG/1.1/DTD/svg11.dtd">
<svg width="100%" height="100%" viewBox="0 0 27 27" version="1.1" xmlns="http://www.w3.org/2000/svg" xmlns:xlink="http://www.w3.org/1999/xlink" xml:space="preserve" xmlns:serif="http://www.serif.com/" style="fill-rule:evenodd;clip-rule:evenodd;stroke-linejoin:round;stroke-miterlimit:2;">
    <g transform="matrix(1,0,0,1,-2615.89,-1306.11)">
        <g transform="matrix(0.655301,0,0,0.655301,2363.28,458.186)">
            <g transform="matrix(0.0766504,0,0,0.0766504,385.859,1294.33)">
                <path d="M316,361C390.61,361 451,300.621 451,226C451,151.389 390.619,91 316,91C241.39,91 181,151.379 181,226C181,300.611 241.381,361 316,361ZM272.069,235.761C272.318,236.889 272.596,238.008 272.93,239.109C262.444,243.44 249.749,249.825 241.754,257.819C235.703,263.87 230.573,272.618 226.558,281.061C217.991,267.204 212.796,251.54 211.394,235.092C220.662,230.834 233.334,226 241,226C248.912,226 262.241,231.109 272.069,235.761ZM359.931,216.239C359.682,215.111 359.404,213.992 359.07,212.891C369.556,208.56 382.251,202.175 390.246,194.181C396.297,188.13 401.427,179.382 405.442,170.939C414.009,184.796 419.204,200.46 420.606,216.908C411.338,221.166 398.666,226 391,226C383.088,226 369.759,220.891 359.931,216.239ZM305.394,215.393C308.227,212.56 311.994,211 316,211C320.006,211 323.773,212.56 326.607,215.394C329.439,218.227 331,221.993 331,226C331,230.007 329.439,233.773 326.606,236.607C323.773,239.44 320.007,241 316,241C311.993,241 308.227,239.44 305.393,236.606C302.561,233.773 301,230.007 301,226C301,221.993 302.561,218.227 305.394,215.393ZM291.836,263.964C292.81,264.587 293.8,265.182 294.815,265.725C290.462,276.203 286,289.695 286,301C286,309.558 288.558,319.37 291.689,328.18C275.833,324.439 261.083,317.037 248.461,306.397C252.003,296.832 257.546,284.454 262.966,279.033C268.56,273.44 281.598,267.624 291.836,263.964ZM316,301C316,293.088 321.109,279.759 325.761,269.931C326.889,269.683 328.008,269.404 329.109,269.071C333.44,279.557 339.826,292.253 347.82,300.246C353.871,306.297 362.618,311.427 371.061,315.442C357.199,324.011 341.53,329.208 325.076,330.607C320.621,320.954 316,308.525 316,301ZM369.033,172.967C363.44,178.56 350.402,184.376 340.164,188.036C339.19,187.413 338.2,186.818 337.185,186.275C341.538,175.797 346,162.305 346,151C346,142.442 343.442,132.63 340.311,123.82C356.167,127.561 370.917,134.963 383.539,145.603C379.996,155.167 374.454,167.546 369.033,172.967ZM316,151C316,158.912 310.891,172.241 306.239,182.069C305.111,182.317 303.992,182.596 302.891,182.929C298.56,172.443 292.174,159.747 284.18,151.754C278.129,145.703 269.382,140.573 260.939,136.558C274.801,127.989 290.47,122.792 306.924,121.393C311.379,131.046 316,143.475 316,151ZM396.386,293.552C386.411,289.876 374.354,284.354 369.033,279.033C363.44,273.44 357.624,260.402 353.964,250.165C354.587,249.191 355.182,248.201 355.725,247.186C366.202,251.538 379.695,256 391,256C399.558,256 409.37,253.442 418.18,250.311C414.437,266.173 407.031,280.927 396.386,293.552ZM235.614,158.448C245.589,162.124 257.646,167.646 262.967,172.967C268.56,178.56 274.376,191.598 278.036,201.835C277.413,202.809 276.818,203.799 276.275,204.814C265.798,200.462 252.305,196 241,196C232.442,196 222.63,198.558 213.82,201.689C217.563,185.827 224.969,171.073 235.614,158.448Z" style="fill:none;fill-rule:nonzero;stroke:rgb(207,209,209);stroke-width:9.95px;"/>
                <rect x="121" y="91" width="30" height="30" style="fill:none;fill-rule:nonzero;stroke:rgb(207,209,209);stroke-width:9.95px;"/>
                <rect x="121" y="151" width="30" height="210" style="fill:none;fill-rule:nonzero;stroke:rgb(207,209,209);stroke-width:9.95px;"/>
                <path d="M90,0L45,0C20.187,0 0,20.187 0,45L0,467C0,491.813 20.187,512 45,512L90,512L90,421L121,421L121,482L361,482L361,436C361,427.729 367.729,421 376,421C384.271,421 391,427.729 391,436L391,482L481,482L481,421L512,421L512,30L90,30L90,0ZM60,482L45,482C36.729,482 30,475.271 30,467L30,45C30,36.729 36.729,30 45,30L60,30L60,482ZM151,421L331,421L331,452L151,452L151,421ZM451,452L421,452L421,421L451,421L451,452ZM482,60L482,391L90,391L90,60L482,60Z" style="fill:none;fill-rule:nonzero;stroke:rgb(207,209,209);stroke-width:9.95px;"/>
            </g>
        </g>
    </g>
</svg>
