<?xml version="1.0" encoding="UTF-8" standalone="no"?>
<!DOCTYPE svg PUBLIC "-//W3C//DTD SVG 1.1//EN" "http://www.w3.org/Graphics/SVG/1.1/DTD/svg11.dtd">
<svg width="100%" height="100%" viewBox="0 0 93 93" version="1.1" xmlns="http://www.w3.org/2000/svg" xmlns:xlink="http://www.w3.org/1999/xlink" xml:space="preserve" xmlns:serif="http://www.serif.com/" style="fill-rule:evenodd;clip-rule:evenodd;stroke-linejoin:round;stroke-miterlimit:2;">
    <g transform="matrix(1,0,0,1,-11847,-2838.76)">
        <g transform="matrix(1,0,0,0.262615,10933.3,2229.21)">
            <g transform="matrix(0.235252,0,0,0.895806,913.665,2321.06)">
                <path d="M275.797,116.392C275.779,116.381 275.762,116.371 275.744,116.36C273.832,115.129 271.376,115.129 269.464,116.36L223.184,145.64L176.984,174.84C176.602,175.09 176.241,175.371 175.904,175.68C175.581,176.029 175.286,176.403 175.024,176.8L145.704,223.12L116.464,269.4C114.755,272.109 115.566,275.691 118.275,277.4C120.166,278.593 122.573,278.593 124.464,277.4L170.864,248.12L216.984,219.2C217.455,218.907 217.91,218.586 218.344,218.24C218.732,217.768 219.093,217.274 219.424,216.76L248.464,170.76L277.744,124.36C279.406,121.622 278.535,118.055 275.797,116.392ZM164.624,238.4L139.944,254L155.544,229.32L180.984,188.92L204.984,212.92L164.624,238.4ZM238.464,164.56L212.984,204.92L188.984,180.92L229.224,155.52L253.904,139.92L238.464,164.56Z" style="fill:rgb(183,19,19);fill-rule:nonzero;"/>
                <path d="M336.224,57.68C299.333,20.694 249.222,-0.064 196.984,0C88.206,-0.013 0.013,88.159 0,196.937C-0.013,305.715 88.159,393.907 196.937,393.92C305.715,393.933 393.908,305.762 393.921,196.984C393.926,144.734 373.172,94.624 336.224,57.68ZM328.024,327.96L328.024,328C255.674,400.393 138.335,400.428 65.942,328.078C-6.451,255.728 -6.487,138.389 65.864,65.996C138.215,-6.397 255.553,-6.432 327.946,65.918C362.705,100.656 382.243,147.778 382.264,196.92C382.34,246.077 362.819,293.237 328.024,327.96Z" style="fill:rgb(207,209,209);fill-rule:nonzero;"/>
                <path d="M314.704,79.2C283.509,47.945 241.143,30.412 196.984,30.48C105.04,30.503 30.523,105.057 30.546,197.002C30.569,288.946 105.123,363.463 197.068,363.44C289.013,363.417 363.529,288.863 363.506,196.918C363.494,152.76 345.939,110.414 314.704,79.2ZM202.744,351.64L202.744,318.64C202.744,315.437 200.147,312.84 196.944,312.84C193.741,312.84 191.144,315.437 191.144,318.64L191.144,351.6C110.213,348.56 45.304,283.651 42.264,202.72L75.224,202.72C78.427,202.72 81.024,200.123 81.024,196.92C81.024,193.717 78.427,191.12 75.224,191.12L42.264,191.12C45.285,110.158 110.222,45.221 191.184,42.2L191.184,75.16C191.18,78.363 193.773,80.963 196.976,80.967C200.179,80.971 202.779,78.378 202.783,75.175L202.783,42.2C283.745,45.221 348.682,110.158 351.703,191.12L318.703,191.12C315.5,191.124 312.906,193.724 312.911,196.927C312.915,200.124 315.506,202.715 318.703,202.719L351.663,202.719C348.643,283.682 283.705,348.619 202.744,351.64Z" style="fill:rgb(207,209,209);fill-rule:nonzero;"/>
            </g>
        </g>
    </g>
</svg>
