<svg xmlns="http://www.w3.org/2000/svg" width="29" height="26" viewBox="0 0 29 26"><g><g><path fill="none" stroke="#cfd1d1" stroke-linejoin="round" stroke-miterlimit="20" d="M11.917 22.309c0 1.296-1.193 2.356-2.65 2.356-1.458 0-2.65-1.06-2.65-2.356 0-1.296 1.192-2.356 2.65-2.356 1.457 0 2.65 1.06 2.65 2.356zM5.69 1.108l1.192 2.355h19.609c.795 0 1.325.472 1.325 1.178 0 .236 0 .353-.265.59l-4.77 7.655c-.397.707-1.192 1.178-2.252 1.178h-9.805l-1.192 2.002v.118c0 .118.132.236.265.236h15.369v2.356h-15.9c-1.457 0-2.649-1.06-2.649-2.356 0-.354.133-.825.265-1.178l1.855-2.827-4.77-8.952h-2.65V1.108zm19.476 21.2c0 1.297-1.193 2.357-2.65 2.357-1.457 0-2.65-1.06-2.65-2.356 0-1.296 1.193-2.356 2.65-2.356 1.457 0 2.65 1.06 2.65 2.356z"/></g></g></svg>