<?xml version="1.0" encoding="UTF-8" standalone="no"?>
<!DOCTYPE svg PUBLIC "-//W3C//DTD SVG 1.1//EN" "http://www.w3.org/Graphics/SVG/1.1/DTD/svg11.dtd">
<svg width="100%" height="100%" viewBox="0 0 33 34" version="1.1" xmlns="http://www.w3.org/2000/svg" xmlns:xlink="http://www.w3.org/1999/xlink" xml:space="preserve" xmlns:serif="http://www.serif.com/" style="fill-rule:evenodd;clip-rule:evenodd;stroke-linejoin:round;stroke-miterlimit:2;">
    <g transform="matrix(1,0,0,1,-10417.8,-2569.71)">
        <g transform="matrix(0.684848,0,0,0.355586,9262.55,2402.52)">
            <g id="close" transform="matrix(0.508682,0,0,0.275285,794.23,406.133)">
                <g transform="matrix(2.91022,-10.3571,1.61619,5.7518,-5488.56,25285.5)">
                    <path d="M2454.81,66.454C2454.81,65.528 2454.4,64.778 2453.88,64.778C2453.88,64.778 2453.88,64.778 2453.88,64.778C2453.37,64.778 2452.95,65.528 2452.95,66.454C2452.95,74.616 2452.95,110.151 2452.95,118.313C2452.95,119.239 2453.37,119.989 2453.88,119.989C2453.88,119.989 2453.88,119.989 2453.88,119.989C2454.4,119.989 2454.81,119.239 2454.81,118.313C2454.81,110.151 2454.81,74.616 2454.81,66.454Z" style="fill:rgb(183,19,19);"/>
                </g>
                <g transform="matrix(2.91022,10.3571,-1.61619,5.7518,-5189.93,-25545.4)">
                    <path d="M2454.81,66.454C2454.81,65.528 2454.4,64.778 2453.88,64.778C2453.88,64.778 2453.88,64.778 2453.88,64.778C2453.37,64.778 2452.95,65.528 2452.95,66.454C2452.95,74.616 2452.95,110.151 2452.95,118.313C2452.95,119.239 2453.37,119.989 2453.88,119.989C2453.88,119.989 2453.88,119.989 2453.88,119.989C2454.4,119.989 2454.81,119.239 2454.81,118.313C2454.81,110.151 2454.81,74.616 2454.81,66.454Z" style="fill:rgb(183,19,19);"/>
                </g>
            </g>
        </g>
    </g>
</svg>
