<svg xmlns="http://www.w3.org/2000/svg" width="59" height="59" viewBox="0 0 59 59"><g><g><g><path fill="#b71313" d="M1.763 36.656a1.215 1.215 0 0 1-1.185-.949 28.862 28.862 0 0 1-.689-6.35C-.11 13.257 12.986.16 29.086.16c9.134 0 17.567 4.163 23.131 11.426a1.217 1.217 0 0 1-1.932 1.479C45.185 6.41 37.458 2.593 29.086 2.593 14.329 2.593 2.322 14.6 2.322 29.357a26.5 26.5 0 0 0 .628 5.815 1.215 1.215 0 0 1-1.187 1.484z"/></g><g><path fill="#b71313" d="M29.086 58.554c-9.134 0-17.567-4.164-23.131-11.426a1.217 1.217 0 0 1 1.932-1.48c5.1 6.655 12.827 10.473 21.199 10.473 14.757 0 26.764-12.008 26.764-26.764 0-2.04-.217-3.993-.647-5.8a1.214 1.214 0 0 1 .902-1.466 1.21 1.21 0 0 1 1.465.903c.472 1.993.713 4.134.713 6.363 0 16.1-13.097 29.197-29.197 29.197z"/></g><g><path fill="#b71313" d="M6.093 58.554c-.666 0-1.209-.538-1.216-1.205l-.122-12.165a1.214 1.214 0 0 1 .353-.866c.229-.234.54-.363.864-.363h12.165a1.217 1.217 0 0 1 0 2.433H7.201l.109 10.937a1.216 1.216 0 0 1-1.204 1.229h-.013z"/></g><g><path fill="#b71313" d="M52.2 14.758H40.035a1.217 1.217 0 0 1 0-2.433h10.949V1.376a1.217 1.217 0 0 1 2.433 0v12.166c0 .671-.545 1.216-1.217 1.216z"/></g><g><path fill="#cfd1d1" d="M20.57 41.522h-2.433a3.654 3.654 0 0 1-3.65-3.65V25.707a3.654 3.654 0 0 1 3.65-3.65h2.433a3.654 3.654 0 0 1 3.65 3.65v12.165a3.654 3.654 0 0 1-3.65 3.65zM18.137 24.49c-.671 0-1.216.546-1.216 1.217v12.165c0 .672.545 1.217 1.216 1.217h2.433c.672 0 1.217-.545 1.217-1.217V25.707c0-.671-.545-1.217-1.217-1.217z"/></g><g><path fill="#cfd1d1" d="M36.385 41.522h-1.849c-6.572 0-10.426-1.64-12.136-2.618a1.216 1.216 0 0 1-.453-1.66 1.211 1.211 0 0 1 1.66-.452c1.209.691 4.695 2.297 10.929 2.297h1.85c1.71 0 3.255-1.263 3.517-2.874a1.51 1.51 0 0 1 .025-.111c.146-.71 1.292-7.53 1.323-8.205 0-1.868-1.54-3.409-3.43-3.409H31.13a1.215 1.215 0 0 1-1.01-1.895c.002-.007.937-1.472.937-3.87 0-2.429-.976-3.31-1.63-3.31-.23.032-.487.377-.487 2.19 0 3.769-3.752 6.52-5.365 7.528a1.216 1.216 0 1 1-1.29-2.063c.99-.618 4.222-2.842 4.222-5.465 0-1.501 0-4.623 2.92-4.623 1.956 0 4.063 1.796 4.063 5.742 0 1.346-.231 2.475-.504 3.334h4.835a5.87 5.87 0 0 1 5.863 5.863c0 .078-.301 6.183-1.484 8.67l.107.016c-.457 2.803-3.002 4.915-5.922 4.915z"/></g></g></g></svg>