<svg xmlns="http://www.w3.org/2000/svg" width="51" height="65" viewBox="0 0 51 65"><g><g><g><path fill="#b71313" d="M50.288 14.568V30.91a34.452 34.452 0 0 1-21.11 31.76l-3.643 1.574c-.303.13-.647.13-.95-.002l-3.232-1.408A34.519 34.519 0 0 1 .663 31.24V14.568c0-.435.237-.836.62-1.046L24.57.76a1.19 1.19 0 0 1 1.134-.007l23.952 12.763c.388.207.631.612.631 1.052zm-2.385.715L25.152 3.16 3.047 15.274V31.24a32.131 32.131 0 0 0 19.26 29.407l2.756 1.202 3.172-1.37.008-.003a32.072 32.072 0 0 0 19.66-29.567z"/></g><g><path fill="#cfd1d1" d="M16.354 30.466a1.193 1.193 0 0 0-1.813 1.55l6.298 7.375c.42.493 1.158.56 1.66.151l14.669-11.935a1.192 1.192 0 1 0-1.505-1.85l-13.766 11.2z"/></g></g></g></svg>