<svg xmlns="http://www.w3.org/2000/svg" width="33" height="33" viewBox="0 0 33 33"><g><g><g><path fill="none" stroke="#cfd1d1" stroke-linejoin="round" stroke-miterlimit="20" d="M31.98 10.552c-.075-1.655-.338-2.785-.722-3.774a7.62 7.62 0 0 0-1.794-2.754 7.62 7.62 0 0 0-2.753-1.793c-.99-.384-2.12-.647-3.774-.722-1.658-.076-2.188-.094-6.41-.094-4.222 0-4.752.018-6.41.093-1.655.076-2.785.339-3.774.723A7.621 7.621 0 0 0 3.59 4.024a7.62 7.62 0 0 0-1.793 2.754c-.384.989-.647 2.12-.722 3.774C.998 12.21.98 12.74.98 16.962c0 4.222.018 4.752.094 6.41.075 1.654.338 2.784.723 3.774a7.619 7.619 0 0 0 1.793 2.753 7.62 7.62 0 0 0 2.753 1.793c.99.385 2.12.648 3.774.723 1.658.076 2.188.094 6.41.094 4.222 0 4.752-.018 6.41-.094 1.655-.075 2.785-.338 3.774-.723a7.948 7.948 0 0 0 4.547-4.546c.384-.99.647-2.12.722-3.774.076-1.659.094-2.188.094-6.41 0-4.222-.018-4.752-.094-6.41z"/></g><g><path fill="none" stroke="#cfd1d1" stroke-linejoin="round" stroke-miterlimit="20" stroke-width=".68" d="M26.691 8.663a1.866 1.866 0 1 1-3.731 0 1.866 1.866 0 0 1 3.731 0z"/></g><g><path fill="none" stroke="#cfd1d1" stroke-linejoin="round" stroke-miterlimit="20" d="M16.527 8.978a7.984 7.984 0 1 0 0 15.967 7.984 7.984 0 0 0 0-15.967z"/></g></g></g></svg>