<svg xmlns="http://www.w3.org/2000/svg" width="25" height="32" viewBox="0 0 25 32"><g><g><g><path fill="none" stroke="#cfd1d1" stroke-linejoin="round" stroke-miterlimit="20" d="M12.548.511C6.32.511 1.252 5.495 1.252 11.621c0 2.017.92 4.186.958 4.278A17.8 17.8 0 0 0 3.516 18.3l7.745 11.542c.317.473.786.744 1.287.744.501 0 .97-.27 1.287-.743L21.581 18.3a17.737 17.737 0 0 0 1.306-2.402c.039-.09.958-2.26.958-4.277 0-6.127-5.068-11.11-11.297-11.11z"/></g><g><path fill="none" stroke="#cfd1d1" stroke-linejoin="round" stroke-miterlimit="20" d="M12.548 5.74c-3.298 0-5.98 2.64-5.98 5.882 0 3.243 2.682 5.882 5.98 5.882 3.298 0 5.98-2.639 5.98-5.882s-2.682-5.882-5.98-5.882z"/></g></g></g></svg>