<svg xmlns="http://www.w3.org/2000/svg" width="27" height="19" viewBox="0 0 27 19"><g><g><g><path fill="#cfd1d1" d="M26.568 9.483v.013c0 3.872-.379 6.098-1.13 7.367-.721 1.284-1.504 1.517-3.1 1.625-1.595.091-5.602.146-9.073.146-3.478 0-7.486-.055-9.08-.148-1.592-.108-2.375-.34-3.104-1.625-.743-1.269-1.126-3.494-1.126-7.366V9.48c0-3.889.383-6.097 1.126-7.38C1.81.816 2.595.581 4.187.49c1.592-.106 5.6-.15 9.078-.15 3.471 0 7.478.044 9.072.152 1.595.09 2.378.326 3.1 1.61.752 1.283 1.131 3.491 1.131 7.382zM9.935 14.476l8.317-4.99-8.317-4.99z"/></g></g></g></svg>