<?xml version="1.0" encoding="UTF-8" standalone="no"?>
<!DOCTYPE svg PUBLIC "-//W3C//DTD SVG 1.1//EN" "http://www.w3.org/Graphics/SVG/1.1/DTD/svg11.dtd">
<svg width="100%" height="100%" viewBox="0 0 192 23" version="1.1" xmlns="http://www.w3.org/2000/svg" xmlns:xlink="http://www.w3.org/1999/xlink" xml:space="preserve" xmlns:serif="http://www.serif.com/" style="fill-rule:evenodd;clip-rule:evenodd;stroke-linejoin:round;stroke-miterlimit:2;">
    <g transform="matrix(1,0,0,1,-443.698,-23.2935)">
        <g transform="matrix(0.379831,0,0,0.601995,327.662,-260.408)">
            <g id="белый" transform="matrix(1.19097,0,0,1.19097,-284.658,291.037)">
                <g transform="matrix(1,0,0,1,29.6494,-270.652)">
                    <g id="S" transform="matrix(1.24786,0,0,0.958468,-182.666,351.917)">
                        <g transform="matrix(0.103542,0,0,0.105451,406.588,-5.45355)">
                            <path d="M1546,941.996C1546,923.432 1537.66,905.628 1522.82,892.501C1507.99,879.375 1487.86,872 1466.87,872L1096,872L1096,872.004C1096,890.568 1104.34,908.372 1119.18,921.499C1134.02,934.625 1154.14,942 1175.13,942L1546,942L1546,941.996Z" style="fill:white;"/>
                        </g>
                        <g transform="matrix(0.0939623,0,0,0.0859152,418.204,10.8869)">
                            <path d="M1580,810.996L1498.62,725L1177.38,725C1155.8,725 1135.1,734.06 1119.84,750.187C1104.57,766.315 1096,788.188 1096,810.996L1096,811L1580,811L1580,810.996Z" style="fill:white;"/>
                        </g>
                        <g transform="matrix(0.102318,0,0,0.0745612,410.548,22.1044)">
                            <path d="M1526,1032L1144.18,1032L1067,1131L1448.82,1131C1469.29,1131 1488.92,1120.57 1503.39,1102.01C1517.87,1083.44 1526,1058.26 1526,1032.01L1526,1032Z" style="fill:white;"/>
                        </g>
                        <g transform="matrix(0.124219,0.000158656,-0.000114012,0.0912708,383.672,7.52889)">
                            <path d="M1186.78,720.955C1186.78,720.955 1192.92,721.014 1186.78,720.955C1184.49,720.934 1154.82,721.246 1141.07,727.415C1126.03,734.169 1118.34,749.556 1118.23,749.732C1105.48,768.869 1096,803.589 1096,831.955L1096,835.045C1096,863.411 1096.67,896.407 1123.53,910.674C1146.03,922.63 1165.06,942 1189.99,942L1190,942C1190,942 1189.6,912.822 1173.55,867.977C1164.62,843.026 1153.73,831.209 1176.54,798.484C1218.4,738.414 1186.78,720.955 1186.78,720.955Z" style="fill:white;"/>
                        </g>
                        <g transform="matrix(-1,0,0,1.01117,759.669,-426.65)">
                            <path d="M231.392,505.812C231.392,505.812 231.084,507.466 228.848,507.476C226.611,507.486 231.519,508.032 231.519,508.032L231.392,505.812Z" style="fill:white;"/>
                        </g>
                        <g transform="matrix(-0.988516,-0.266283,-0.256805,0.974753,887.156,-348.559)">
                            <path d="M229.246,502.863C229.246,502.863 230.918,503.203 231.559,504.97C232.218,506.789 231.004,502.254 231.004,502.254L229.246,502.863Z" style="fill:white;"/>
                        </g>
                    </g>
                    <g transform="matrix(1.2474,0,0,0.963967,-156.684,87.0991)">
                        <g transform="matrix(1.02299,0,0,0.997603,346.287,-146.676)">
                            <path d="M228.712,502.874C231.134,503.092 232.505,505.751 232.034,506.681C232.012,506.724 232.186,502.625 232.186,502.625C232.186,502.625 227.636,502.777 228.712,502.874Z" style="fill:white;"/>
                        </g>
                        <g transform="matrix(1,0,0,1,351.514,-146.599)">
                            <path d="M231.907,505.897C231.907,505.897 231.084,507.466 228.848,507.476C226.611,507.486 231.519,508.032 231.519,508.032L231.907,505.897Z" style="fill:white;"/>
                        </g>
                        <g transform="matrix(-0.133209,0.00590755,-0.00428011,-0.0965116,741.48,431.914)">
                            <path d="M1185.35,733.489C1185.35,733.489 1178.8,732.771 1172.65,732.712C1170.37,732.69 1150.36,731.367 1136.61,737.537C1121.57,744.29 1125.87,743.168 1120.81,750.955C1105.57,774.441 1096,803.589 1096,831.955L1096,835.045C1096,863.411 1096.67,896.407 1123.53,910.674C1146.03,922.63 1165.06,942 1189.99,942L1190,942C1190,942 1188.98,911.782 1168.38,868.534C1157.59,845.868 1149.38,828.182 1176.54,798.484C1225.94,744.448 1185.35,733.489 1185.35,733.489Z" style="fill:white;"/>
                        </g>
                        <g transform="matrix(72,0,0,72,544.356,381.781)">
                            <path d="M0.554,-0.291L0.103,-0.291L0.103,-0.017L0.247,-0.017L0.247,-0.19L0.519,-0.19C0.569,-0.19 0.661,-0.197 0.661,-0.296L0.661,-0.34C0.661,-0.412 0.602,-0.474 0.524,-0.474L0.103,-0.474L0.207,-0.372L0.552,-0.372C0.552,-0.372 0.565,-0.34 0.564,-0.321C0.564,-0.301 0.554,-0.291 0.554,-0.291Z" style="fill:white;fill-rule:nonzero;"/>
                        </g>
                    </g>
                    <g transform="matrix(46.876,0,0,48.5508,588.547,455.095)">
                        <path d="M-0.119,-0.025L0.257,-0.682L0.586,-0.682L0.978,-0.024L0.686,-0.025L0.593,-0.194L0.251,-0.193L0.172,-0.024L-0.119,-0.025ZM0.559,-0.305L0.429,-0.528L0.304,-0.305L0.559,-0.305Z" style="fill:white;fill-rule:nonzero;"/>
                    </g>
                    <g transform="matrix(1.2442,0,0,0.969189,-164.931,85.1118)">
                        <g transform="matrix(72,0,0,72,641.556,381.781)">
                            <path d="M0.551,-0.291L0.095,-0.291L0.096,-0.017L0.24,-0.017L0.24,-0.189L0.317,-0.189L0.53,-0.017L0.695,-0.017C0.697,-0.017 0.698,-0.018 0.699,-0.019C0.699,-0.02 0.699,-0.022 0.698,-0.023C0.662,-0.054 0.503,-0.189 0.503,-0.189C0.553,-0.189 0.638,-0.197 0.638,-0.296L0.638,-0.34C0.638,-0.412 0.602,-0.474 0.524,-0.474L0.096,-0.474L0.197,-0.372L0.551,-0.372C0.551,-0.372 0.562,-0.346 0.563,-0.323C0.564,-0.301 0.551,-0.291 0.551,-0.291Z" style="fill:white;fill-rule:nonzero;"/>
                        </g>
                        <g transform="matrix(-0.133267,0.00439975,-0.00318768,-0.0965538,837.613,433.748)">
                            <path d="M1127.74,788.813C1127.74,788.813 1112.91,796.742 1112.91,825.108C1112.91,826.138 1108.25,898.35 1135.1,912.616C1157.61,924.573 1133.77,903.862 1158.7,903.862C1158.71,903.862 1193.85,909.175 1168,869.166C1154.93,848.94 1144.79,834.553 1171.68,795.377C1213.12,735.015 1127.74,788.813 1127.74,788.813Z" style="fill:white;"/>
                        </g>
                        <g transform="matrix(1.02299,0,0,0.997603,443.672,-146.665)">
                            <path d="M229.213,502.858C230.118,502.883 231.57,504.094 231.935,505.22C232.531,507.055 231.526,502.588 231.526,502.588L229.213,502.858Z" style="fill:white;"/>
                        </g>
                        <g transform="matrix(1,0,0,1,449.927,-146.667)">
                            <path d="M231.022,505.645C230.916,505.751 230.578,507.416 228.614,507.485C226.378,507.563 231.519,508.032 231.519,508.032L231.022,505.645Z" style="fill:white;"/>
                        </g>
                    </g>
                    <g transform="matrix(89.9362,0,0,69.9348,699.008,455.133)">
                        <path d="M0.199,-0.474L0.055,-0.474L0.055,-0.017L0.199,-0.017L0.199,-0.176L0.503,-0.017L0.723,-0.017C0.723,-0.016 0.343,-0.251 0.344,-0.25C0.344,-0.25 0.614,-0.43 0.67,-0.467C0.671,-0.468 0.672,-0.47 0.671,-0.471C0.671,-0.473 0.67,-0.474 0.668,-0.474L0.479,-0.474L0.199,-0.309L0.199,-0.474Z" style="fill:white;fill-rule:nonzero;"/>
                    </g>
                </g>
                <g transform="matrix(1.12045,0,0,1,412.422,-344.497)">
                    <g transform="matrix(1.65911,0,0,0.965953,-275.435,59.8143)">
                        <g transform="matrix(30.1533,0,0,40,377.569,485.655)">
                            <path d="M0.778,-0.512L0.011,-0.512L0.011,-0.03L0.216,-0.03L0.216,-0.399L0.843,-0.399C0.893,-0.399 0.985,-0.432 0.985,-0.531L0.985,-0.721C0.985,-0.793 0.926,-0.855 0.848,-0.855L0.011,-0.855L0.011,-0.736L0.778,-0.736L0.778,-0.512Z" style="fill:white;fill-rule:nonzero;"/>
                        </g>
                        <g transform="matrix(1.27311,0,0,1,-95.0146,113.136)">
                            <rect x="371.46" y="343.022" width="4.886" height="9.813" style="fill:white;"/>
                        </g>
                    </g>
                    <g transform="matrix(1.66417,0,0,0.967947,-469.537,216.385)">
                        <path d="M554.167,316.946L554.167,321.701L531.445,321.701C529.457,321.701 527.846,320.089 527.846,318.101L527.846,292.339C527.846,291.392 528.222,290.484 528.892,289.814C529.561,289.145 530.469,288.769 531.416,288.769L554.137,288.769L554.137,293.524L536.088,293.524C535.552,293.524 535.038,293.737 534.658,294.116C534.279,294.495 534.066,295.009 534.066,295.545L534.066,314.93C534.066,316.043 534.969,316.946 536.082,316.946L554.167,316.946Z" style="fill:white;fill-rule:nonzero;"/>
                    </g>
                </g>
            </g>
        </g>
    </g>
</svg>
